<svg width="300" height="150" viewBox="0 0 300 150" fill="none" xmlns="http://www.w3.org/2000/svg"><rect width="300" height="150" fill="#fff"/><path d="M11.76 48h-6.6l12.03-34.18h7.64L36.88 48h-6.6l-9.14-27.17h-.27zm.22-13.4H30v4.97H11.98zm45.47 2.62V22.36h6.05V48h-5.86v-4.56h-.27a7.7 7.7 0 0 1-2.85 3.53 8.3 8.3 0 0 1-4.86 1.36 9 9 0 0 1-4.46-1.11 8 8 0 0 1-3-3.3 11.6 11.6 0 0 1-1.08-5.23V22.36h6.04v15.4q0 2.42 1.33 3.86a4.6 4.6 0 0 0 3.5 1.44 5.5 5.5 0 0 0 4.65-2.59q.81-1.3.81-3.25m32.52-8.08-5.5.6A4.4 4.4 0 0 0 82.1 27a6 6 0 0 0-2.37-.45 6 6 0 0 0-3.17.81q-1.27.83-1.25 2.12-.02 1.13.82 1.82.85.7 2.8 1.15l4.37.94q3.64.78 5.41 2.49a6 6 0 0 1 1.8 4.45 7 7 0 0 1-1.42 4.28 9 9 0 0 1-3.85 2.87 15 15 0 0 1-5.68 1.03q-4.7 0-7.57-1.97a8 8 0 0 1-3.43-5.52l5.9-.57a4.2 4.2 0 0 0 1.7 2.62q1.3.88 3.39.88 2.14 0 3.45-.88 1.32-.88 1.32-2.19 0-1.1-.85-1.82a6 6 0 0 0-2.6-1.1l-4.38-.92q-3.7-.76-5.45-2.58a6.4 6.4 0 0 1-1.76-4.64 6.6 6.6 0 0 1 1.29-4.1A8.4 8.4 0 0 1 74.23 23q2.35-.97 5.43-.97 4.5 0 7.1 1.92a8 8 0 0 1 3.21 5.19m18.34-6.78v4.68H93.57v-4.68zm-11.1-6.14h6.04V40.3q0 1.21.37 1.87.38.63 1 .87.61.23 1.37.23a6 6 0 0 0 1.77-.23l1.01 4.72q-.48.16-1.38.37-.89.19-2.17.23a10 10 0 0 1-4.1-.68 6.4 6.4 0 0 1-2.88-2.37 7 7 0 0 1-1.03-4zM113.36 48V22.36h5.86v4.28h.27A6.4 6.4 0 0 1 125.8 22a14 14 0 0 1 2.17.16v5.56a11 11 0 0 0-2.8-.35q-1.65 0-2.98.72a5.3 5.3 0 0 0-2.8 4.84V48zm25.55.52a11 11 0 0 1-4.39-.87 7 7 0 0 1-3.07-2.6 7.6 7.6 0 0 1-1.12-4.24q0-2.17.8-3.6a6 6 0 0 1 2.2-2.26q1.37-.86 3.11-1.29 1.76-.44 3.62-.65 2.25-.23 3.66-.42a5 5 0 0 0 2.03-.6q.66-.4.66-1.28v-.1q0-1.89-1.12-2.92-1.12-1.04-3.22-1.04-2.22 0-3.53.97a5 5 0 0 0-1.73 2.29l-5.64-.8a9 9 0 0 1 2.2-3.9 9.6 9.6 0 0 1 3.76-2.38q2.22-.8 4.9-.8 1.86 0 3.7.43 1.83.44 3.35 1.44a7 7 0 0 1 2.43 2.69q.94 1.7.94 4.25V48h-5.81v-3.52h-.2a7.4 7.4 0 0 1-4.04 3.49q-1.48.55-3.49.55m1.57-4.44q1.82 0 3.16-.72a5.3 5.3 0 0 0 2.05-1.94q.73-1.2.73-2.62v-3.02q-.28.23-.96.44t-1.5.35a46 46 0 0 1-3.08.46q-1.34.2-2.42.6-1.06.42-1.68 1.17a3 3 0 0 0-.62 1.9q0 1.68 1.22 2.53a5.3 5.3 0 0 0 3.1.85m24.09-30.26V48h-6.05V13.82zm6.2 34.18V22.36h6.05V48zm3.05-29.27q-1.44 0-2.47-.96a3 3 0 0 1-1.04-2.32q0-1.36 1.04-2.32a3.5 3.5 0 0 1 2.47-.96q1.44 0 2.47.96t1.03 2.32-1.03 2.32-2.47.96m16.59 29.79a11 11 0 0 1-4.39-.87 7 7 0 0 1-3.07-2.6 7.6 7.6 0 0 1-1.12-4.24q0-2.17.8-3.6a6 6 0 0 1 2.19-2.26q1.38-.86 3.12-1.29 1.76-.44 3.62-.65 2.25-.23 3.66-.42a5 5 0 0 0 2.03-.6q.65-.4.65-1.28v-.1q0-1.89-1.11-2.92-1.12-1.04-3.22-1.04-2.22 0-3.53.97a5 5 0 0 0-1.73 2.29l-5.64-.8a9 9 0 0 1 2.2-3.9 9.6 9.6 0 0 1 3.75-2.38q2.22-.8 4.91-.8 1.86 0 3.69.43 1.83.44 3.35 1.44a7 7 0 0 1 2.44 2.69q.94 1.7.94 4.25V48h-5.81v-3.52h-.2a7.4 7.4 0 0 1-4.04 3.49q-1.5.55-3.49.55m1.57-4.44q1.81 0 3.15-.72a5.3 5.3 0 0 0 2.06-1.94q.73-1.2.73-2.62v-3.02q-.28.23-.97.44-.66.2-1.5.35a46 46 0 0 1-3.07.46q-1.35.2-2.42.6-1.06.42-1.69 1.17a3 3 0 0 0-.61 1.9q0 1.68 1.22 2.53a5.3 5.3 0 0 0 3.1.85m24.08-11.1V48h-6.04V22.36h5.78v4.36h.3a7.3 7.3 0 0 1 2.82-3.42 8.7 8.7 0 0 1 4.82-1.27 9 9 0 0 1 4.62 1.13 7.6 7.6 0 0 1 3.07 3.3q1.1 2.14 1.09 5.22V48h-6.04V32.61q0-2.56-1.34-4.02a4.7 4.7 0 0 0-3.65-1.45q-1.59 0-2.82.7a5 5 0 0 0-1.92 1.98 7 7 0 0 0-.69 3.16M30.27 71.73q-.42-1.34-1.15-2.42a7.5 7.5 0 0 0-4.04-3 10 10 0 0 0-2.84-.4q-2.75 0-4.9 1.38a9.3 9.3 0 0 0-3.4 4.08 16 16 0 0 0-1.21 6.5q0 3.88 1.22 6.56a9.3 9.3 0 0 0 3.39 4.1 9 9 0 0 0 5.04 1.38q2.6 0 4.5-1a7 7 0 0 0 2.96-2.84 9 9 0 0 0 1.03-4.34l1.4.22H23V77.1h13.87v4.1q0 4.4-1.87 7.6a13 13 0 0 1-5.14 4.94 16 16 0 0 1-7.5 1.72q-4.73 0-8.3-2.12a14.7 14.7 0 0 1-5.56-6.06 20.5 20.5 0 0 1-1.99-9.35q0-4.14 1.17-7.4a16 16 0 0 1 3.3-5.52 14 14 0 0 1 4.98-3.47q2.85-1.2 6.2-1.2 2.85 0 5.3.84 2.46.81 4.36 2.33a12.7 12.7 0 0 1 4.77 8.21zm23.5 23.77q-3.76 0-6.51-1.65a11 11 0 0 1-4.28-4.62q-1.5-2.98-1.5-6.95t1.5-6.96a11 11 0 0 1 4.28-4.64q2.75-1.65 6.5-1.65t6.52 1.65a11 11 0 0 1 4.25 4.64q1.52 3 1.52 6.96 0 3.97-1.52 6.95-1.5 2.97-4.25 4.62t-6.51 1.65m.03-4.84a5.2 5.2 0 0 0 3.4-1.12 7 7 0 0 0 2.04-3.04q.69-1.9.69-4.23 0-2.36-.69-4.26a7 7 0 0 0-2.04-3.06 5.2 5.2 0 0 0-3.4-1.13 5.3 5.3 0 0 0-3.47 1.13 7 7 0 0 0-2.05 3.06 13 13 0 0 0-.67 4.26q0 2.33.67 4.23a7 7 0 0 0 2.05 3.04 5.4 5.4 0 0 0 3.47 1.12m39.4-21.3L84.09 95H77.4l-9.13-25.64h6.44l5.9 19.05h.26l5.91-19.05zm14.66 26.14a13 13 0 0 1-6.66-1.6 11 11 0 0 1-4.28-4.57q-1.5-2.98-1.5-7 0-3.96 1.5-6.94 1.5-3 4.23-4.67a12 12 0 0 1 6.4-1.69q2.37 0 4.47.77 2.12.75 3.74 2.33a11 11 0 0 1 2.57 4.04q.93 2.44.93 5.81v1.85H98.25v-4.07h15.22a6.5 6.5 0 0 0-.75-3.09 5.5 5.5 0 0 0-2.05-2.15 6 6 0 0 0-3.04-.78q-1.85 0-3.25.9a6 6 0 0 0-2.2 2.33q-.75 1.44-.78 3.16v3.55q0 2.24.82 3.84a6 6 0 0 0 2.29 2.44q1.46.84 3.44.83 1.32 0 2.38-.36a5 5 0 0 0 1.86-1.12q.78-.75 1.18-1.82l5.64.63a9 9 0 0 1-2.03 3.9 10 10 0 0 1-3.8 2.58q-2.33.9-5.32.9m16.52-.5V69.36h5.85v4.28h.27a6.4 6.4 0 0 1 6.33-4.64 14 14 0 0 1 2.17.16v5.56a11 11 0 0 0-2.8-.35q-1.66 0-2.98.72a5.3 5.3 0 0 0-2.8 4.84V95zm24.67-15.02V95h-6.04V69.36h5.78v4.36h.3a7.3 7.3 0 0 1 2.82-3.42 8.7 8.7 0 0 1 4.82-1.27 9 9 0 0 1 4.62 1.13 7.6 7.6 0 0 1 3.07 3.3q1.1 2.15 1.09 5.22V95h-6.04V79.61q0-2.56-1.34-4.02a4.7 4.7 0 0 0-3.65-1.45q-1.59 0-2.82.7a5 5 0 0 0-1.92 1.98 7 7 0 0 0-.69 3.16M171.65 95V69.36h5.78v4.36h.3a6.8 6.8 0 0 1 2.65-3.44 7.7 7.7 0 0 1 4.42-1.25q2.6 0 4.4 1.27a6.6 6.6 0 0 1 2.53 3.42h.27a7 7 0 0 1 2.87-3.4 9 9 0 0 1 4.82-1.29q3.54 0 5.78 2.24 2.23 2.23 2.23 6.52V95h-6.06V78.73q0-2.4-1.27-3.5a4.5 4.5 0 0 0-3.1-1.11q-2.19 0-3.42 1.37a5 5 0 0 0-1.22 3.52V95h-5.92V78.48q0-1.99-1.2-3.17a4.2 4.2 0 0 0-3.11-1.19q-1.3 0-2.37.67a4.7 4.7 0 0 0-1.7 1.85 6 6 0 0 0-.64 2.77V95zm53.53.5a13 13 0 0 1-6.66-1.6 11 11 0 0 1-4.29-4.57 15 15 0 0 1-1.5-7q0-3.96 1.5-6.94 1.52-3 4.24-4.67a12 12 0 0 1 6.4-1.69q2.36 0 4.47.77 2.11.75 3.73 2.33a11 11 0 0 1 2.58 4.04q.93 2.44.93 5.81v1.85h-21.01v-4.07h15.22a6.5 6.5 0 0 0-.75-3.09 5.5 5.5 0 0 0-2.06-2.15 6 6 0 0 0-3.03-.78q-1.85 0-3.26.9a6 6 0 0 0-2.18 2.33q-.78 1.44-.79 3.16v3.55q0 2.24.82 3.84a6 6 0 0 0 2.29 2.44q1.46.84 3.43.83 1.32 0 2.4-.36a5 5 0 0 0 1.84-1.12q.79-.75 1.19-1.82l5.64.63a9 9 0 0 1-2.04 3.9 10 10 0 0 1-3.8 2.58q-2.32.9-5.31.9m22.55-15.52V95h-6.04V69.36h5.78v4.36h.3a7.3 7.3 0 0 1 2.82-3.42 8.7 8.7 0 0 1 4.82-1.27 9 9 0 0 1 4.62 1.13 7.6 7.6 0 0 1 3.08 3.3q1.1 2.15 1.08 5.22V95h-6.04V79.61q0-2.56-1.34-4.02a4.7 4.7 0 0 0-3.65-1.45q-1.59 0-2.82.7a5 5 0 0 0-1.92 1.98 7 7 0 0 0-.69 3.16m35.4-10.62v4.68H268.4v-4.68zm-11.1-6.14h6.05V87.3q0 1.21.36 1.87.4.63 1 .87.63.23 1.37.23a6 6 0 0 0 1.77-.23l1.02 4.72q-.48.16-1.39.37-.87.19-2.16.23a10 10 0 0 1-4.1-.68 6.4 6.4 0 0 1-2.88-2.37 7 7 0 0 1-1.04-4.01zM11.76 142h-6.6l12.03-34.18h7.64L36.88 142h-6.6l-9.14-27.17h-.27zm.22-13.4H30v4.97H11.98zM41.12 142v-25.64h5.85v4.28h.27a6.4 6.4 0 0 1 6.33-4.64 14 14 0 0 1 2.17.16v5.56a11 11 0 0 0-2.8-.35q-1.66 0-2.98.72a5.3 5.3 0 0 0-2.8 4.84V142zm28.76.5q-3.84 0-6.6-1.69a11.3 11.3 0 0 1-4.22-4.65 15.4 15.4 0 0 1-1.47-6.88q0-3.9 1.5-6.9t4.24-4.66q2.76-1.7 6.51-1.69 3.13 0 5.53 1.15a9.4 9.4 0 0 1 3.85 3.22q1.44 2.07 1.64 4.84h-5.78a5.5 5.5 0 0 0-1.66-3.08 4.8 4.8 0 0 0-3.5-1.26q-1.84 0-3.25 1a6.4 6.4 0 0 0-2.18 2.84 12 12 0 0 0-.77 4.44q0 2.62.77 4.5a6.6 6.6 0 0 0 2.15 2.9q1.4 1 3.29 1 1.33 0 2.38-.5a5 5 0 0 0 1.79-1.49q.71-.97.98-2.35h5.78a9.5 9.5 0 0 1-5.37 8.1q-2.4 1.16-5.61 1.16m21.98-15.52V142h-6.04v-34.18h5.9v12.9h.3a7.4 7.4 0 0 1 2.8-3.42 8.6 8.6 0 0 1 4.84-1.27q2.67 0 4.65 1.12a7.5 7.5 0 0 1 3.07 3.27q1.1 2.16 1.1 5.26V142h-6.04v-15.39q0-2.58-1.33-4.02a4.8 4.8 0 0 0-3.7-1.45q-1.6 0-2.88.7a5 5 0 0 0-1.97 1.98q-.7 1.3-.7 3.16M114.64 142v-25.64h6.05V142zm3.04-29.28q-1.44 0-2.47-.95a3 3 0 0 1-1.03-2.32q0-1.36 1.03-2.32a3.5 3.5 0 0 1 2.47-.96q1.46 0 2.47.96 1.05.96 1.04 2.32 0 1.36-1.04 2.32-1.02.96-2.47.95m22.02 3.64v4.68h-14.74v-4.68zm-11.1-6.14h6.04v24.07q0 1.21.37 1.87.4.63 1 .87.62.23 1.37.23a6 6 0 0 0 1.77-.23l1.02 4.72q-.49.16-1.39.37-.88.19-2.17.23a10 10 0 0 1-4.09-.68 6.4 6.4 0 0 1-2.88-2.37 7 7 0 0 1-1.04-4.01zm27.23 32.28a13 13 0 0 1-6.66-1.6 11 11 0 0 1-4.3-4.58q-1.5-2.96-1.5-6.99 0-3.96 1.5-6.94 1.53-3 4.25-4.67a12 12 0 0 1 6.4-1.69q2.36 0 4.46.77a10 10 0 0 1 3.74 2.33q1.64 1.58 2.57 4.04.94 2.44.94 5.81v1.85H146.2v-4.07h15.23a6.5 6.5 0 0 0-.75-3.09 5.5 5.5 0 0 0-2.06-2.15 6 6 0 0 0-3.04-.78q-1.85 0-3.25.9a6 6 0 0 0-2.19 2.33q-.76 1.44-.78 3.16v3.55q0 2.25.82 3.84a6 6 0 0 0 2.28 2.44q1.47.84 3.44.83a7 7 0 0 0 2.39-.36 5 5 0 0 0 1.85-1.12q.78-.74 1.19-1.82l5.64.63a9 9 0 0 1-2.04 3.9 10 10 0 0 1-3.8 2.58q-2.32.9-5.31.9m27.7 0q-3.85 0-6.6-1.69a11.3 11.3 0 0 1-4.22-4.65 15.4 15.4 0 0 1-1.47-6.88q0-3.9 1.5-6.9t4.24-4.66q2.75-1.7 6.5-1.69 3.13 0 5.53 1.15a9.4 9.4 0 0 1 3.86 3.22q1.43 2.07 1.63 4.84h-5.77a5.5 5.5 0 0 0-1.67-3.08 4.8 4.8 0 0 0-3.49-1.26q-1.85 0-3.25 1a6.4 6.4 0 0 0-2.19 2.84 12 12 0 0 0-.77 4.44q0 2.62.77 4.5a6.6 6.6 0 0 0 2.15 2.9q1.4 1 3.3 1 1.32 0 2.38-.5a5 5 0 0 0 1.78-1.49q.72-.97.99-2.35h5.77a9.5 9.5 0 0 1-5.37 8.1q-2.4 1.16-5.6 1.16m28.74-26.14v4.68h-14.74v-4.68zm-11.1-6.14h6.04v24.07q0 1.21.37 1.87.38.63 1 .87.61.23 1.37.23a6 6 0 0 0 1.77-.23l1.01 4.72q-.48.16-1.38.37-.89.19-2.17.23a10 10 0 0 1-4.1-.68 6.4 6.4 0 0 1-2.88-2.37 7 7 0 0 1-1.03-4.01zm32.49 21v-14.86h6.04V142h-5.86v-4.56h-.26a7.7 7.7 0 0 1-2.86 3.53 8.3 8.3 0 0 1-4.85 1.36 9 9 0 0 1-4.46-1.11 8 8 0 0 1-3-3.3 11.6 11.6 0 0 1-1.1-5.23v-16.33h6.05v15.4q0 2.43 1.34 3.86 1.34 1.44 3.5 1.44a5.5 5.5 0 0 0 4.64-2.59q.82-1.3.82-3.25M245.9 142v-25.64h5.86v4.28h.27a6.4 6.4 0 0 1 6.33-4.64 14 14 0 0 1 2.17.16v5.56a11 11 0 0 0-2.8-.35q-1.66 0-2.98.72a5.3 5.3 0 0 0-2.8 4.84V142zm28.93.5q-3.85 0-6.66-1.6a11 11 0 0 1-4.29-4.58 15 15 0 0 1-1.5-6.99q0-3.96 1.5-6.94 1.53-3 4.24-4.67a12 12 0 0 1 6.4-1.69q2.37 0 4.47.77a10 10 0 0 1 3.74 2.33 11 11 0 0 1 2.57 4.04q.93 2.44.93 5.81v1.85h-21.01v-4.07h15.22a6.5 6.5 0 0 0-.75-3.09 5.5 5.5 0 0 0-2.05-2.15 6 6 0 0 0-3.04-.78q-1.85 0-3.26.9a6 6 0 0 0-2.18 2.33q-.77 1.44-.79 3.16v3.55q0 2.25.82 3.84a6 6 0 0 0 2.29 2.44q1.46.84 3.44.83a7 7 0 0 0 2.38-.36 5 5 0 0 0 1.86-1.12q.78-.74 1.18-1.82l5.64.63a9 9 0 0 1-2.04 3.9 10 10 0 0 1-3.8 2.58q-2.33.9-5.3.9" fill="#000"/></svg>