<?xml version="1.0" encoding="UTF-8"?><svg xmlns="http://www.w3.org/2000/svg" viewBox="0 0 519.73 126.01" height="126.01" width="519.73" xml:space="preserve"><path style="fill:#231f20;fill-opacity:1;fill-rule:evenodd;stroke:none" d="m1511.53 409.7-26.04 60.2-26.81-60.2zm4.38-9.52h-61.75l-7.35-17.02q-3.6-8.52-3.6-14.06 0-7.35 5.92-10.82 3.47-2.08 17.15-3.1v-4.77h-58.14v4.77q9.4 1.43 15.47 7.73 6.06 6.44 14.95 26.43l62.52 139.48h2.45l63.04-143.35q9.02-20.37 14.82-25.65 4.38-4 12.38-4.64v-4.77h-84.57v4.77h3.48q10.18 0 14.31 2.85 2.83 2.05 2.84 5.91 0 2.33-.77 4.77-.27 1.17-3.87 9.67z" transform="matrix(.13333 0 0 -.13333 0 126.01)"/><path style="fill:#231f20;fill-opacity:1;fill-rule:nonzero;stroke:none" d="M1700.91 470.94v-94.36q0-13.8 2.58-17.26 2.57-3.38 10.44-4.26v-4.65h-49.11v16.11q-8.64-10.3-17.28-15.08a40 40 0 0 0-19.33-4.64q-10.2 0-18.18 6.19-7.86 6.32-10.57 14.7t-2.7 29.26v47.82q0 13.67-2.58 17.03-2.46 3.34-10.45 4.37v4.77h49.12v-82.37q0-12.89 1.16-16.64a11.6 11.6 0 0 1 3.86-5.66 10.4 10.4 0 0 1 6.2-1.93q4.63 0 8.37 2.44 5.15 3.36 12.38 13.53v64.46q0 13.67-2.58 17.03-2.46 3.34-10.44 4.37v4.77zm97.37 3.36 1.93-41.14h-4.38q-7.87 18.32-16.37 25.02-8.39 6.7-16.76 6.7-5.28 0-9.02-3.61-3.74-3.47-3.74-8.12 0-3.48 2.58-6.7 4.13-5.3 23.07-18.17 18.95-12.77 24.88-21.8a34.7 34.7 0 0 0 6.06-19.98q0-10.06-5.03-19.72a35.3 35.3 0 0 0-14.18-14.83 41 41 0 0 0-20.24-5.15q-8.63 0-23.07 5.4-3.87 1.44-5.29 1.43-4.25 0-7.09-6.44h-4.25l-2.06 43.32h4.38q5.8-17.03 15.86-25.53 10.18-8.5 19.2-8.51 6.2 0 10.06 3.75a12.5 12.5 0 0 1 3.99 9.27q0 6.19-3.87 10.7-3.86 4.51-17.27 13.66-19.73 13.67-25.52 20.9-8.5 10.54-8.51 23.32 0 13.9 9.54 25.13 9.67 11.35 27.84 11.35 9.8 0 18.95-4.76 3.48-1.95 5.67-1.94 2.33 0 3.74.9 1.42 1.03 4.52 5.55zm63.82 40.72v-44.08h28.62v-12.76h-28.62v-74.4q0-10.42.9-13.53 1.03-2.95 3.48-4.88 2.45-1.81 4.51-1.81 8.38 0 15.86 12.77l3.87-2.83q-10.45-24.76-33.91-24.77-11.48 0-19.46 6.33-7.87 6.44-10.06 14.3-1.29 4.4-1.29 23.73v65.1h-15.72v4.5q16.24 11.47 27.58 24.1a145 145 0 0 1 19.99 28.23zm87.46-44.08V443.6q12 18.68 21.01 24.75 9.03 6.19 17.41 6.2 7.21 0 11.47-4.52 4.39-4.4 4.39-12.5 0-8.64-4.26-13.42-4.12-4.77-10.05-4.77-6.84 0-11.87 4.4-5.02 4.38-5.92 4.88-1.29.79-2.97.78-3.74 0-7.08-2.83-5.29-4.39-8-12.5-4.13-12.51-4.13-27.6v-27.71l.14-7.23q0-7.33.9-9.4a10.6 10.6 0 0 1 4.51-5.15q3.09-1.55 10.31-1.93v-4.65h-65.09v4.65q7.85.64 10.57 4.26 2.82 3.72 2.83 19.45v66.64q0 10.32-1.03 13.16-1.3 3.6-3.74 5.28t-8.63 2.32v4.77z" transform="matrix(.13333 0 0 -.13333 0 126.01)"/><path style="fill:#231f20;fill-opacity:1;fill-rule:evenodd;stroke:none" d="M2070.05 377.62v40.35q-15.6-9.17-23.21-19.61-5.03-6.95-5.03-14.04 0-5.95 4.26-10.45 3.21-3.49 9.03-3.48 6.42 0 14.95 7.23m0-9.42q-22.05-19.45-39.58-19.47-10.32 0-17.14 6.72-6.84 6.82-6.84 17.01 0 13.78 11.87 24.75 11.84 11.08 51.69 29.4v12.1q0 13.65-1.56 17.15-1.42 3.6-5.53 6.2a16.6 16.6 0 0 1-9.29 2.69q-8.38 0-13.79-3.73-3.35-2.33-3.35-5.42 0-2.71 3.61-6.7 4.9-5.54 4.9-10.7a14.4 14.4 0 0 0-4.77-10.84q-4.65-4.36-12.24-4.37-8.12-.01-13.68 4.9-5.4 4.88-5.41 11.47 0 9.28 7.35 17.65 7.36 8.53 20.5 13.03a84 84 0 0 0 27.33 4.51q17.14 0 27.07-7.34 10.05-7.23 13.02-15.73 1.8-5.41 1.8-24.88v-46.8q0-8.25.65-10.45a6 6 0 0 1 1.93-3.08 4.6 4.6 0 0 1 2.96-1.04q3.35 0 6.84 4.77l3.86-3.09q-6.45-9.54-13.4-13.92a29 29 0 0 0-15.6-4.26q-10.31 0-16.11 4.77-5.8 4.9-7.09 14.7" transform="matrix(.13333 0 0 -.13333 0 126.01)"/><path style="fill:#231f20;fill-opacity:1;fill-rule:nonzero;stroke:none" d="M2174.79 525.21V375.43q0-12.78 2.96-16.39 2.97-3.47 11.6-3.98v-4.65h-65.09v4.65q7.98.25 11.86 4.63 2.57 2.96 2.58 15.74V500.2q0 12.63-2.97 16.11-2.97 3.6-11.47 4.13v4.77z" transform="matrix(.13333 0 0 -.13333 0 126.01)"/><path style="fill:#231f20;fill-opacity:1;fill-rule:evenodd;stroke:none" d="M2248.01 470.94v-95.51q0-12.78 2.97-16.39 2.95-3.47 11.6-3.98v-4.65h-65.1v4.65q7.99.25 11.85 4.63 2.58 2.96 2.58 15.74v70.37q0 12.78-2.96 16.25-2.97 3.6-11.47 4.12v4.77zm-18.05 58.4q8.38 0 14.18-5.94a19 19 0 0 0 5.8-14.04q0-8.25-5.93-14.06a19 19 0 0 0-14.05-5.8q-8.26 0-14.05 5.8a19 19 0 0 0-5.8 14.06q0 8.25 5.8 14.04a19 19 0 0 0 14.05 5.94m102.94-151.72v40.35q-15.6-9.17-23.2-19.61-5.03-6.95-5.03-14.04 0-5.95 4.25-10.45 3.22-3.49 9.03-3.48 6.44 0 14.95 7.23m0-9.42q-22.05-19.45-39.57-19.47-10.32 0-17.15 6.72-6.83 6.82-6.83 17.01 0 13.78 11.86 24.75 11.86 11.08 51.69 29.4v12.1q0 13.65-1.54 17.15-1.42 3.6-5.55 6.2a16.6 16.6 0 0 1-9.28 2.69q-8.37 0-13.8-3.73-3.35-2.33-3.35-5.42 0-2.71 3.62-6.7 4.89-5.54 4.89-10.7a14.4 14.4 0 0 0-4.77-10.84q-4.63-4.36-12.24-4.37-8.12-.01-13.66 4.9-5.42 4.88-5.42 11.47 0 9.28 7.35 17.65 7.34 8.53 20.5 13.03 13.14 4.5 27.32 4.51 17.14 0 27.07-7.34 10.06-7.23 13.02-15.73 1.8-5.41 1.81-24.88v-46.8q0-8.25.64-10.45a6 6 0 0 1 1.93-3.08 4.7 4.7 0 0 1 2.97-1.04q3.34 0 6.83 4.77l3.87-3.09q-6.44-9.54-13.41-13.92a29 29 0 0 0-15.6-4.26q-10.3 0-16.11 4.77-5.8 4.9-7.09 14.7" transform="matrix(.13333 0 0 -.13333 0 126.01)"/><path style="fill:#231f20;fill-opacity:1;fill-rule:nonzero;stroke:none" d="M2437.07 470.94v-15.6q9.28 10.06 17.79 14.56a37.5 37.5 0 0 0 18.3 4.65q11.73 0 19.47-6.58a31 31 0 0 0 10.31-16.12q2.06-7.33 2.06-28.22v-46.91q0-13.95 2.45-17.4 2.57-3.37 10.58-4.26v-4.65h-60.98v4.65q6.83.89 9.79 5.66 2.07 3.22 2.06 16v53.61q0 14.83-1.15 18.7a11 11 0 0 1-4 5.93 9.5 9.5 0 0 1-6.06 2.19q-11.08-.01-20.62-15.86v-64.57q0-13.55 2.45-17.15 2.58-3.63 9.4-4.51v-4.65h-60.96v4.65q7.6.76 10.83 4.9 2.18 2.81 2.19 16.76v68.05q0 13.67-2.58 17.03-2.45 3.34-10.44 4.37v4.77zm318.35 58.26v-61.6h-4.77q-8.63 25.25-25.92 38.4-17.27 13.15-37.76 13.15-19.6 0-32.62-11.08-13.02-10.97-18.42-30.68a152 152 0 0 1-5.42-40.48q0-25.14 5.92-44.08 5.94-18.95 19.09-27.85 13.26-8.9 31.45-8.89 6.32-.02 12.89 1.3 6.7 1.4 13.66 3.98v36.34q0 10.32-1.41 13.29-1.42 3.1-5.93 5.54-4.39 2.44-10.7 2.44h-4.51v4.77h84.95v-4.77q-9.67-.64-13.54-2.7-3.75-1.94-5.8-6.57-1.16-2.45-1.16-12v-36.34a169 169 0 0 0-34.93-11.21 179 179 0 0 0-37.51-3.87q-24.88 0-41.39 6.7a106 106 0 0 0-29 17.8 85 85 0 0 0-19.59 24.87q-9.03 17.8-9.03 39.83 0 39.45 27.72 66.64 27.71 27.2 69.73 27.2 13.03 0 23.47-2.06 5.66-1.04 18.3-5.93 12.77-4.77 15.08-4.77 3.61 0 6.71 2.58 3.08 2.7 5.67 10.05z" transform="matrix(.13333 0 0 -.13333 0 126.01)"/><path style="fill:#231f20;fill-opacity:1;fill-rule:evenodd;stroke:none" d="M2839.6 465.4q-6.58-.01-11.34-5.03-4.65-4.9-6.19-19.59-1.42-14.59-1.42-40.6 0-13.8 1.81-25.78 1.41-9.17 6.05-13.93t10.58-4.77q5.8 0 9.67 3.23 5.01 4.36 6.7 12.24 2.58 12.24 2.58 49.5 0 21.9-2.46 30.03-2.45 8.25-7.21 12-3.36 2.7-8.77 2.7m-.51 9.15a56 56 0 0 0 29.26-8.12q13.54-8.12 20.5-23.07 7.08-14.97 7.09-32.75 0-25.66-13.02-42.91-15.73-20.9-43.45-20.9-27.2 0-41.89 19.08t-14.7 44.22q0 25.9 14.96 45.11 15.08 19.34 41.25 19.34" transform="matrix(.13333 0 0 -.13333 0 126.01)"/><path style="fill:#231f20;fill-opacity:1;fill-rule:nonzero;stroke:none" d="m2952.8 346.8-40.6 93.45q-7.36 16.9-11.48 21.41-2.97 3.34-8.77 4.51v4.77h64.07v-4.77q-6.06 0-8.25-2.19a8.8 8.8 0 0 1-3.09-6.7q0-4.77 5.67-17.92l19.85-45.24 15.85 39.04q6.83 16.77 6.84 23.74 0 3.98-2.97 6.44-2.82 2.58-10.19 2.83v4.77h39.46v-4.77q-5.68-.76-9.29-4.26t-10.83-20.48l-40.21-94.63z" transform="matrix(.13333 0 0 -.13333 0 126.01)"/><path style="fill:#231f20;fill-opacity:1;fill-rule:evenodd;stroke:none" d="M3082.3 423.63q0 20.74-2.31 28.5-2.2 7.73-6.96 11.72-2.72 2.32-7.22 2.32-6.71 0-10.96-6.58-7.61-11.46-7.61-31.44v-4.52zm31.71-8.63h-66.12c.77-16 5.02-28.61 12.76-37.91q8.9-10.69 21.4-10.68 7.73 0 14.05 4.23 6.31 4.4 13.54 15.61l4.37-2.83q-9.8-19.98-21.65-28.36-11.86-8.24-27.46-8.26-26.82 0-40.6 20.62-11.1 16.65-11.09 41.25 0 30.18 16.24 47.95 16.38 17.93 38.29 17.93 18.3 0 31.71-15.08 13.54-14.97 14.56-44.47" transform="matrix(.13333 0 0 -.13333 0 126.01)"/><path style="fill:#231f20;fill-opacity:1;fill-rule:nonzero;stroke:none" d="M3171.2 470.94V443.6q11.98 18.68 21.01 24.75 9.01 6.19 17.4 6.2 7.2 0 11.47-4.52 4.38-4.4 4.38-12.5 0-8.64-4.25-13.42-4.12-4.77-10.05-4.77-6.84 0-11.86 4.4-5.04 4.38-5.93 4.88-1.3.79-2.97.78-3.73 0-7.09-2.83-5.28-4.39-7.99-12.5-4.12-12.51-4.12-27.6v-27.71l.13-7.23q0-7.33.9-9.4a10.5 10.5 0 0 1 4.51-5.15q3.09-1.55 10.31-1.93v-4.65h-65.1v4.65q7.86.64 10.58 4.26 2.82 3.72 2.83 19.45v66.64q0 10.32-1.04 13.16-1.28 3.6-3.73 5.28t-8.64 2.32v4.77zm111.12 0v-15.6q9.27 10.06 17.79 14.56a37.5 37.5 0 0 0 18.31 4.65q11.71 0 19.46-6.58a31 31 0 0 0 10.31-16.12q2.06-7.33 2.06-28.22v-46.91q0-13.95 2.45-17.4 2.58-3.37 10.57-4.26v-4.65h-60.98v4.65q6.85.89 9.81 5.66 2.06 3.22 2.06 16v53.61q0 14.83-1.16 18.7a11 11 0 0 1-4 5.93 9.5 9.5 0 0 1-6.05 2.19q-11.09-.01-20.63-15.86v-64.57q0-13.55 2.44-17.15 2.58-3.63 9.42-4.51v-4.65h-60.98v4.65q7.6.76 10.83 4.9 2.2 2.81 2.2 16.76v68.05q0 13.67-2.58 17.03-2.46 3.34-10.45 4.37v4.77zm139.68 0v-15.86q9.92 10.82 18.3 15.1a40 40 0 0 0 18.57 4.37q11.59 0 19.46-5.4 7.86-5.44 12.12-16.51 10.3 11.6 19.71 16.75a41 41 0 0 0 19.86 5.16q12.5 0 19.85-5.8a29 29 0 0 0 10.31-14.57q2.96-8.77 2.97-28.1v-49.36q0-13.95 2.44-17.29 2.58-3.34 10.58-4.37v-4.65h-62.27v4.65q7.36.63 10.83 5.66 2.33 3.5 2.33 16v51.81q0 16.1-1.29 20.5-1.3 4.38-4.13 6.44a10 10 0 0 1-6.45 2.19q-5.54 0-11.21-4.13-5.67-3.99-11.47-12.1v-64.71q0-13.03 2.19-16.39 2.96-4.77 11.34-5.27v-4.65h-62.39v4.65q5.02.23 7.86 2.44a10.8 10.8 0 0 1 3.87 5.41q1.03 3.23 1.03 13.8v51.82q0 16.35-1.28 20.5a12.4 12.4 0 0 1-4.39 6.44 10.2 10.2 0 0 1-6.44 2.32q-5.16 0-9.41-2.71-6.06-3.98-12.89-13.65v-64.71q0-12.77 2.44-16.9 2.58-4 10.58-4.76v-4.65h-62.14v4.65q7.6.76 10.83 4.9 2.18 2.81 2.2 16.76v68.05q0 13.67-2.58 17.03-2.46 3.34-10.45 4.37v4.77z" transform="matrix(.13333 0 0 -.13333 0 126.01)"/><path style="fill:#231f20;fill-opacity:1;fill-rule:evenodd;stroke:none" d="M3651.72 423.63q0 20.74-2.32 28.5-2.2 7.73-6.96 11.72-2.72 2.32-7.22 2.32-6.7 0-10.95-6.58-7.62-11.46-7.61-31.44v-4.52zm31.72-8.63h-66.14c.77-16 5.03-28.61 12.77-37.91q8.88-10.69 21.39-10.68 7.74 0 14.06 4.23 6.32 4.4 13.53 15.61l4.39-2.83q-9.82-19.98-21.66-28.36-11.86-8.24-27.47-8.26-26.82 0-40.6 20.62-11.08 16.65-11.08 41.25 0 30.18 16.24 47.95 16.37 17.93 38.29 17.93 18.3 0 31.71-15.08 13.53-14.97 14.57-44.47" transform="matrix(.13333 0 0 -.13333 0 126.01)"/><path style="fill:#231f20;fill-opacity:1;fill-rule:nonzero;stroke:none" d="M3737.2 470.94v-15.6q9.28 10.06 17.79 14.56a37.5 37.5 0 0 0 18.3 4.65q11.73 0 19.46-6.58 7.74-6.45 10.31-16.12 2.07-7.33 2.08-28.22v-46.91q0-13.95 2.44-17.4 2.58-3.37 10.57-4.26v-4.65h-60.97v4.65q6.83.89 9.79 5.66 2.06 3.22 2.07 16v53.61q0 14.83-1.16 18.7a11 11 0 0 1-3.99 5.93 9.5 9.5 0 0 1-6.07 2.19q-11.09-.01-20.62-15.86v-64.57q0-13.55 2.45-17.15 2.57-3.63 9.41-4.51v-4.65h-60.98v4.65q7.6.76 10.83 4.9 2.19 2.81 2.19 16.76v68.05q0 13.67-2.58 17.03-2.44 3.34-10.44 4.37v4.77zm132.2 44.08v-44.08h28.63v-12.76h-28.63v-74.4q0-10.42.91-13.53 1.03-2.95 3.48-4.88 2.44-1.81 4.51-1.81 8.38 0 15.86 12.77l3.87-2.83q-10.46-24.76-33.91-24.77-11.48 0-19.46 6.33-7.87 6.44-10.06 14.3-1.29 4.4-1.29 23.73v65.1h-15.72v4.5q16.24 11.47 27.58 24.1a145 145 0 0 1 19.98 28.23zM434.59 187.7a8 8 0 0 0-3.34-3.32m33.52 239.33c3.5 0 6.31 2.83 6.31 6.35a6.34 6.34 0 0 1-6.31 6.37 6.34 6.34 0 0 1-6.3-6.37 6.3 6.3 0 0 1 6.3-6.35m286.05 138.56h-69.18v121.95h69.18zm0-57.93c-1.19-13.16-5.66-24.1-14.76-30.3l-54.41-32.5v114.5h69.17zm-75.36 57.93h-63.9V684.2h63.9zm0-124.44-25.14-15.02h-.44a10.6 10.6 0 0 0-13.33.1l-24.98 14.92v118.2h63.89zM585.7 562.27v44.64h19.67v-44.64zm19.67-120.73-54.42 32.5c-9.1 6.2-13.57 17.14-14.76 30.3v51.7h69.18zm-45.3 242.67v-47.04H536.2v47.04zm5.97-17.66 2.8 2.93-1.74 3.2 3.68-.38 2.2 3.89 2.16-3.84 3.74.33-1.74-3.2 2.8-2.93-3.58-.68v-3.98l-3.37 2.53-3.38-2.53v3.98zm16.92-49.15c-.19 1.19-1.74 1.5-2.42 1.5-2.1 0-2.98-3.5-4.75-3.6-1.32-.08-2.26-.2-2.26 1.41 0 1.18 2.71 2.11 3.75 3.14-14.75 0-15.03-6.75-17.34-6.75-3.86 0 3.24 7.11 5.3 9.18-2.99.48-4.72 4.17-8 6.01 1.54 2.21 2.42 1.26 4.34-.29 0 1.55 1.16 3.37 4.59 3.37 6.6 0 4.75-6.39 5.81-6.39s-.07 6.39 4.35 6.39c6.53 0 14.72-16.82 7.3-16.82-3.18 0-.61 2.4-.67 2.85m-15.86-35.9 3.68-.39 2.2 3.89 2.16-3.83 3.74.34-1.74-3.21 2.8-2.92-3.58-.68v-3.98l-3.37 2.53-3.38-2.53v3.98l-3.57.68 2.8 2.92zm-26.96 45.4 3.66-.39 2.23 3.89 2.16-3.84 3.71.34-1.73-3.2 2.8-2.92-3.57-.69v-3.98l-3.37 2.52-3.4-2.52v3.98l-3.55.7 2.79 2.9zm-3.95-64.63v44.64h23.89v-44.64zm54.89 58.51 2.8 2.91-1.75 3.2 3.68-.38 2.2 3.89 2.18-3.84 3.73.34-1.74-3.2 2.8-2.92-3.57-.69v-3.98l-3.4 2.52-3.36-2.52v3.98zm14.29 16.4H585.7v47.03h19.67zm151.84 53.15v.11H529.8v-.11h-.04l.18-183.67c0-17.72 7.5-33.22 17.87-37.99l87.46-52.24a10.63 10.63 0 0 1 15.1-.83l88.82 53.07c10.36 4.77 17.87 20.27 17.87 38l.18 183.66z" transform="matrix(.13333 0 0 -.13333 0 126.01)"/><path style="fill:#231f20;fill-opacity:1;fill-rule:nonzero;stroke:none" d="M601.7 513.96c-.33.73-8.67-2.77-6.3-2.55.25 2.47 4.86 7.48 6.94 9.34-.38 2.9-4.11.27-8-1.76 12.95 18.55 4.64 10.94-2.6 9.62 11.56 12.46 8.53 12.25 0 8.37 6.7 5.32 8.13 11.64 7.1 13.48-6.28-8.37-12.06-7.07-12.06-14.84 0-5.1-1.85-13.5-4.48-16.33-3.37-3.66-.78 13.7-9.65 13.7-2.84 0-9.55.23-11.57-3.24 1.82 0 4.52-4.61 4.52-6.45s1.68-6.88-1.36-6.88c-3.03 0-6.56 6.38-6.56 9.44 0 3.07-.2 2.34-.2 6.73 0 7.35-11.96 17.67-16.83 17.67 0-5.1 6.69-6.33 6.69-12.86-2.83 0-6.88 5.3-6.88 2.03 0-3.26 4.25-3.88 4.25-6.74s-4.86 1.02-4.86-2.04c0-2.7 2.66-2.23 3.3-4.87-1.97.55-3.75.3-4.1-.7-.32-.9.58-2.04 2.07-2.87-.68-.63-1.27-2.16-1.27-6.46 0-14.5 9.09-21.25 15.77-21.25 4.75 0 4.02 3.32 4.6 4.91.2-2.46 2.53 1.22 2.53-3.07 0-4.49-4.6-2.52-4.6-6.4 0-5.18 7.27.2 7.27-5.55 0-6.95-.86-6.8-.86-9.46 0-1.83 7.63 2.55 7.15 3.34 1.83-.67 1.75-6.06 5.15-5.93 2.2.08 2.67 5.53 4.4 6-1.02-.28 6.9-5.18 6.9-2.7 0 6.76-2.77 3.89-2.77 8.54 0 4.28 9.36 3.45 7.88 5.64-1.24 1.82-2.08.7-3.08 3.9.18-.6-7.36 10.75 1.57 4.9 9.38-6.14 10.44 14.27 9.94 15.34m242.62-48.04c4.13 0 7.47 2.95 7.47 6.6s-3.34 6.59-7.47 6.59-7.48-2.95-7.48-6.59c0-3.65 3.34-6.6 7.48-6.6m-30.25-17.97c4.14 0 7.48 2.95 7.48 6.58s-3.34 6.6-7.48 6.6c-4.13 0-7.48-2.97-7.48-6.6s3.35-6.58 7.48-6.58M454.6 406.5c4.13 0 7.48 2.95 7.48 6.59 0 3.65-3.35 6.6-7.47 6.6-4.14 0-7.5-2.95-7.5-6.6s3.36-6.59 7.5-6.59m23.29-2c4.14 0 7.49 2.94 7.49 6.6 0 3.63-3.35 6.58-7.49 6.58-4.13 0-7.47-2.95-7.47-6.59 0-3.65 3.34-6.6 7.47-6.6m647.15 313.67c11.11-13.2 13.49-34.36 5.55-49.54-4.36.4-3.57 5.98-4.36 9.19-7.94 14.78-14.28 33.56-7.14 50.33 5.17-.8 3.17-7.19 5.95-9.98m-949.59-17.98c-2.39-9.59-2.39-22.77 0-31.56-1.98-2.01-1.59 2-3.57 1.6-15.47 11.17-8.33 33.15-12.28 48.73a3.06 3.06 0 0 0 3.95.8c7.13-4.8 10.31-11.58 11.9-19.57m983.71-1.21c2.37-4.38-1.99-8.78-5.17-10.78-3.57-.8-7.54 1.2-9.91 4.4-1.2 4.39 1.18 8.39 4.77 10.39 3.95.39 7.92-.4 10.31-4M151.27 681.4c-.8-3.6-1.99-7.2-5.15-8.78-2.39 0-5.97 0-7.54 1.98-2.39 2-2.78 5.6-1.6 8.4 1.6 2.8 4.77 3.2 7.54 3.59 2.77-1.2 5.55-2 6.75-5.2m1023.36-6.79a9 9 0 0 0 0-6.38c-2.77-3.6-6.75-5.2-10.71-3.6-2.77 1.6-3.57 4.4-4.36 6.8.79 3.19 3.97 5.99 6.74 7.19 3.57 0 5.94-2 8.33-4m-22.61-.41c3.17-1.58.79-5.58.4-7.98-1.99-2-4.76-5.19-8.33-3.99-1.99 1.99-4.35 1.99-5.16 4.79 0 4 1.59 7.99 5.56 9.2 3.17.79 5.15-.81 7.53-2.02m-28.95-5.98c0-4.4.39-10-4.77-10.8-4.76-1.6-7.93 2.42-9.11 5.6-.4 4 1.97 8 5.95 9.6 3.16 0 5.95-2 7.93-4.4m-928.57-2c1.2-3.99-2.78-6.38-5.15-8.4-2.78-.79-6.35 1.61-7.95 4.41-2.77 2.79.8 5.2 1.6 7.58 3.96 3.6 9.9.8 11.5-3.6m-23.8-1.19c0-3.18-1.6-6.39-4.35-7.6-3.18-1.19-6.35 1.21-7.95 3.61-1.98 3.99.4 7.59 3.57 9.19 4.38 1.6 7.14-2.4 8.72-5.2m856.39-1.59c3.96-8.4 7.13-18.37 7.93-28.77-1.59-7.59 1.19-17.57-4.37-22.78-5.55 2-5.94 8.8-9.52 12.38-7.13 14-.78 30.38 1.59 43.96 3.18 1.2 3.18-2.8 4.37-4.8m-875.02-4.79c1.18-4.8-2.38-7.19-5.16-9.98-4.76-1.2-7.93 2.39-9.92 5.6a10 10 0 0 0 5.16 9.56c3.98.4 7.93-1.58 9.92-5.18m937.68-11.58c5.16-11.59 5.56-25.57 1.98-38.35l-2.38-2c-5.55 10.78-13.48 20.78-16.27 32.36q0 12.58 4.78 22.78c2.77 1.97 4.36-.4 5.55-2.8.39-4.4 2.38-9.6 6.34-11.99m50 7.19c-.41-4-1.99-8.4-5.97-9.6-3.97-.8-7.92.41-9.12 4.8-1.19 4 1.2 7.6 4.36 9.6 4.37 2.4 8.74-1.62 10.73-4.8M171.1 641.85c0-3.2-2.78-6.79-5.95-7.59-3.18-2.39-5.54 1.6-8.34 2.8-1.2 3.2-1.99 6 0 9.19 1.2 2.4 3.98 2.4 6.36 3.2 3.57-2 7.13-3.6 7.93-7.6m17.44 1.99c1.6-4-2.77-5.98-4.35-7.98-4.77-1.6-7.14 2-9.12 4.79-.8 4 1.58 6.4 4.35 8.8 4.77 1.18 7.15-2 9.12-5.6m962.29 1.2c-.4-5.2-8.34-10.4-9.13-15.58-4.36-10.79-13.87-18.78-24.58-22.38-2.39-1.99-5.56-4.79-9.13-5.19-.79 7.99 6.35 15.19 10.71 22.36 8.33 10.8 19.84 17.6 32.13 20.8m-987.66-16.79c5.94-6.79 9.12-12.79 16.25-18.77.4-1.6-.8-4-2.77-4-19.44 1.2-32.52 21.18-42.05 35.15 1.2 4.4 6.35.8 9.13 1.2 6.74-5.19 14.28-6.79 19.44-13.58m993.22-5.59c-.81-17.18-9.13-34.76-24.6-43.15-4.36-1.6-9.13-6-13.49-3.2 8.33 17.19 21.03 31.16 34.92 46.35zm-76.16-11.58c1.18-6-1.99-9.6-6.74-11.6-4.37-.4-7.14 3.2-9.13 6.4a8.35 8.35 0 0 0 5.56 8.79c1.18 1.2 3.15 1.2 4.75 1.2 2.39-.8 3.57-2.8 5.56-4.8m-938.89-3.6c7.55-5.19 14.28-12.38 21.42-18.77-5.14-3.6-11.5-.4-17.45-.4-13.49 4.79-22.6 16.38-36.49 20.38.4 4.39 5.55 2.79 8.34 3.98 8.72.8 15.86-3.18 24.18-5.2" transform="matrix(.13333 0 0 -.13333 0 126.01)"/><path style="fill:#231f20;fill-opacity:1;fill-rule:nonzero;stroke:none" d="M566.16 725.74c-22.2 8.8-36.89-14.37-59.5-11.58-2.77-1.6-1.98-4.4-3.57-6.4-1.19-1.19-3.17-.4-4.36.4-1.18 9.6-4.36 18.39-5.55 27.58-2.38 3.99-1.2 9.58-3.17 13.58-12.7 34.75 30.93 8.4 39.66 28.75 7.55 17.59-14.68 19.59-21.42 31.96v5.2c-6.35 6.4-13.09 8.4-17.06 16.79 2.78 9.99 3.97 20.77 1.2 30.76-.4 2.4-1.99 5.6-5.55 4.4-7.55-10.4-13.1-18.79-20.24-28.78-7.54 5.6-14.68 12.79-23.4 17.6-5.95.78-11.5 6.78-18.25 4.38-1.18-2.4 0-4.39 1.2-5.98.4-15.6 8.32-27.98 19.42-39.16l1.2-6c-7.13-16.37-5.16-35.14-7.13-52.74-17.86-45.53-46.82-89.48-86.09-121.04-22.6-25.57-49.58-50.34-53.15-85.5-1.18-5.59.8-12.38-3.56-16.37-13.1 4.8-26.18 11.18-36.9 19.57-18.24 12.78-44.42 11.2-56.32 34.36-4.77 9.2 1.2 18.38 5.55 25.16 13.48 12.8 11.5 35.57 4.37 51.13-1.58.4-1.99-1.58-3.17-1.97-1.2-23.59-19.84-39.96-12.7-65.94 1.6-7.58 5.56-12.38 7.54-19.57-2.79.8-6.73.8-9.13 2-8.73 1.2-17.45 4.8-26.57 3.6-18.24-8.4-43.23 1.99-57.91-14.8-2.39-.39-5.56-.8-4.76-4.38 8.72 0 17.05-2.4 25.78-2 13.88-2.4 23 9.2 32.52 14.39h2.38c3.97 3.99 10.72 1.6 15.88 2.4 24.98-2.81 44.42-14.79 65.04-27.18v-1.59c-7.93-3.6-17.05-6-25-10.39-9.12-6.8-19.43-15.58-22.2-26.78-6.35-9.98 1.99-18.76 5.95-27.15.39-4 .79-8.79 4.36-10.39 12.7 13.58.79 30.36 2.77 45.94 3.18 12 14.3 17.58 25.8 20.77 22.6 9.59 38.88-8.78 57.1-19.17-.38-18.38 2-35.96-1.97-53.92-5.56-2-12.7-3.2-18.65-2.82-31.34-2.38-55.93-19.57-84.08-29.16-12.7-4.4-27.77-3.98-40.46-8.79 9.9-2.79 20.23.8 30.54 1.21 38.87 5.6 68.62 35.55 110.67 30.36l.78-1.2c-4.75-9.98-11.1-18.37-18.64-25.97-1.2 4.4-1.58 7.99-5.56 10.39-3.16 1.6-6.74 0-9.1-3.2-1.2-2-1.2-4.38 0-5.98 1.97-3.6 5.15-4.4 8.72-5.6-.8-3.6-5.17-5.2-7.54-8.39-11.1-18.78-33.72-11.19-46.8-24.37-1.99-2.8-9.13-4.4-5.96-8.79 15.08-1.6 29.76 2.4 40.86 10.4 14.68 16.36 30.15 31.94 44.82 47.53 2.37-12.8-1.19-25.98-8.72-36.35-3.57 2-6.36 4.79-10.72 6-3.96-.82-6.73-4.8-7.13-8 1.58-2.8 3.17-6 5.94-8-13.48-9.59-30.53-10.39-46-14.78-28.96-3.6-57.12-5.98-86.47-6.39-13.9.8-29.76-3.98-42.84 0-15.08-2.8-31.34 2-43.64-6.39-1.58-1.99.38-4 .38-6 18.27-11.98 43.26-2.37 63.89-5.99H275.8c11.51.4 23 .8 32.13 6 20.24 11.58 31.34 32.36 41.66 52.73 3.96 7.19 6.74 15.59 8.33 23.97 3.95 13.57 16.25 23.18 29.73 24.37 1.99-20.78-1.97-41.54-6.74-60.72-2.38-12.8-10.7-25.18-5.55-38.75 1.2-6.4 7.94-6.4 13.1-7.2 48 .8 95.99 2.8 146.75-.8 9.12-1.59 17.07-4.38 26.97-4 .8 1.22 3.58 1.6 2.39 4-1.2 4.4-4.37 10-9.53 11.2-.78 2.39-4.35 1.58-5.55 3.19-25.37 14.37-55.92 6.8-85.68 6.38-15.46-1.58-30.93-4.37-44.03 4.4-5.94 7.2-1.58 29.96-1.58 29.96 0 9.04 21.82 71.92 24.6 77.11.78 6 3.17 11.58 2.37 18.38 3.17 7.99 2.39 18.38 2.39 27.16 1.58 12.8 7.93 24.77 12.28 37.16 2.39 6 4.38 12.38 6.75 18.38 2.38 7.59 3.19 14.78 7.94 20.77 12.94-8.2 25.6-7.97 31.81-22.65l5.47-33.28c0-2 1.59-5.99 4.37-3.6 10.3 6.8 7.14 21.98 7.14 32.36 2.38 12.39-6.34 18.38-9.92 29.17-2.78 2-7.34 11.52-7.34 11.52-1.6 8.8-20.82 14.85-16.46 25.63 2.37 9.19 4.76 17.58 13.48 22.77 1.29-.9 1.85-1.84 1.98-2.83l4.77 3.33.5 33.41c12.84.05 32.01-1.6 45.1-1.6 3.59-1.2 6.36-3.99 10.33-4.4l3.16 4.4 32.15 6.27c-13.64-1.52-21.94 14.15-34.92 14.15" transform="matrix(.13333 0 0 -.13333 0 126.01)"/><path style="fill:#fff;fill-opacity:1;fill-rule:nonzero;stroke:none" d="M601.08 711.59q1.45.14 2.97.57z" transform="matrix(.13333 0 0 -.13333 0 126.01)"/><path style="fill:#231f20;fill-opacity:1;fill-rule:nonzero;stroke:none" d="M255.59 600.3c.39-4.8-2.4-7.58-5.97-9.18-3.17 1.19-5.53 1.6-7.51 4.78-1.6 4.4 2.37 7.6 5.54 9.2 3.17-.8 7.14-1.2 7.94-4.8m-25.79 0c2.39-2.4 2.78-6.39 1.6-9.18-2.78-2.4-7.15-4.4-9.54-1.21-2.38 2.4-4.75 5.2-2.77 8.4 2.77 2.8 7.54 5.19 10.72 1.99" transform="matrix(.13333 0 0 -.13333 0 126.01)"/><path style="fill:#fff;fill-opacity:1;fill-rule:nonzero;stroke:none" d="m781.95 595.9.34-.57" transform="matrix(.13333 0 0 -.13333 0 126.01)"/><path style="fill:#231f20;fill-opacity:1;fill-rule:nonzero;stroke:none" d="M1084.19 589.12c1.59-4.4-1.98-7.6-5.15-9.2-3.97 1.2-9.12 2.01-9.12 7.2.39 3.2 3.15 5.19 5.94 5.99 3.57 1.2 6.74-1.6 8.33-3.99m21.03.79c1.19-1.99 3.97-5.2.79-7.2-1.59-1.18-2.78-1.58-3.98-3.18-4.35-.8-8.31.8-9.51 4.79-.8 4.4 2.78 6.4 5.96 8.4 2.76.8 4.75-1.21 6.74-2.81m-974.99-4.79c-1.57-4.8-5.55-6.8-10.7-5.2a17 17 0 0 0-3.17 5.2c.4 2.8 1.19 5.6 4.37 6.8 4.75-.41 8.32-2.4 9.5-6.8m133.69-6.8c-.4-3.18-3.97-5.98-6.74-7.58-3.98-.4-6.75 2.8-8.74 5.6 0 3.2 1.59 7.18 4.76 7.98 4.37 1.6 9.13-1.6 10.72-6m-23.41 2.81c1.2-1.2 2.38-4.4 1.2-6.4-2.39-2-5.96-5.58-9.92-3.2-2.4 2-5.16 3.6-4.38 7.6 1.6 1.6 3.57 4 5.97 4.79 3.16.8 4.75-1.2 7.13-2.8m925.4-4.79c0-3.2-3.17-6.39-5.17-7.58-3.17-1.2-6.74-.4-8.72 2-2.38.78-1.59 3.98-1.59 5.98 1.99 2.8 4.76 4.4 7.54 5.2 3.57-.8 5.95-3.2 7.94-5.6m25.38-3.59c-1.19-3.6-3.97-6.8-7.54-7.2-2.37.4-6.74 1.2-5.93 4.8 0 2.8 1.58 5.6 3.56 6.4 3.96 2 8.72 0 9.91-4m-1015.83-5.6q1.2-7.19-4.77-9.58c-2.77-1.6-5.55.4-7.52 2-1.99 2-3.56 5.19-1.99 7.98.79 3.6 4.36 2.8 6.74 4.4 3.57-.4 5.56-2 7.54-4.8m19.44-3.59c1.18-3.2-2.38-4.4-3.18-6.8-1.97-1.19-4.76-2.39-7.14-.79-2.78 2.4-5.95 6-3.18 9.58 3.18 6 11.5 2.8 13.5-1.99m947.59 1.99c.4-3.99-3.16-6.79-5.54-9.19a6.8 6.8 0 0 0-7.94 4.8c-.39 3.2 1.59 5.6 4.37 7.6 3.57.4 7.14 0 9.11-3.2m32.54-6.39c-.81-3.6-.4-7.6-4.37-9.99-3.19-.8-7.13-.4-9.51 1.6-2.39 2-2.79 5.58-1.59 8.39 1.98 3.19 5.55 5.59 9.52 4.79 2.78-1.6 3.57-3.6 5.95-4.8M160.4 550.76c1.57-3.18-2-4-3.18-5.59-2.78-1.6-5.57-.4-7.93.8-2.8 1.6-1.6 5.58-1.2 7.59 3.56 6.8 10.72 2 12.3-2.8m989.65-7.59c1.58-.4.79-2.8.39-3.6-9.51-4.79-23.8-5.98-32.13 1.6-4.76 4-10.7 5.6-15.86 8.8 1.98 5.19 9.12 4.8 14.28 6 11.49-1.6 20.62-12.4 33.32-12.8m-970.62 3.6c.8-3.2-1.58-4.4-2.37-6.79-1.6-2.4-4.76-1.6-6.75-.8-3.56 2.4-5.16 6.8-2.78 10 4.37 4.38 9.53 1.98 11.9-2.41m34.9-2.4c1.59-3.6-.78-6.8-3.95-8.78-2.8-1.6-5.15.79-7.55 1.2-1.97 2.79-5.55 5.99-1.97 9.18 3.57 5.99 10.7 2.8 13.47-1.6m458.61-16.89c-.75-7.98-13.95 1.13-12.07-9.5 1.88-7.6 3.4-16.7 7.92-22.39 3.76-5.31 1.87-13.66 1.51-20.1-3.4-5.7-9.05-9.89-15.07-12.91-11.31 1.13-27.9-5.69-33.17 8.34-2.26 6.08-6.42 12.15-6.42 18.98 1.15.76 2.66.76 3.78 1.9 0 2.65-3.01 4.18-2.63 6.83 12.8 2.28-5.28 13.67 5.65 14.42 9.04-9.49 23.74-6.45 31.65-16.7 1.89-1.51 3.4-3.8 5.65-4.93-1.5 9.5-6.03 18.97-7.53 29.22a13.2 13.2 0 0 0 4.52 13.29c6.8 5.3 12.43-2.28 16.2-6.45m-423.68 2.5c1.19-3.98-1.98-6.39-4.37-8.38-3.56-1.6-5.55 2.4-7.14 4.4-1.2 3.98 1.59 6 3.97 7.99 2.78 0 5.95-1.2 7.54-4M493.97 526c4.76-15.6 3.17-31.56-4.77-44.75-.38-3.19.8-8.4-3.56-7.99-10.7 14.78-2.78 35.56 1.6 51.14.78 4 5.54 5.58 6.73 1.6m339.54-7.6c5.55-11.18 5.94-25.96.8-37.15l-3.18-3.19c-4.36 9.19-7.94 18.37-9.12 28.36 1.98 7.2 4.36 13.58 4.76 21.17 5.56 1.2 5.15-6 6.74-9.18m-553.33-4.4c-2.38-4.79-9.12-5.99-13.5-9.18-9.5-7.2-23.4-8.8-35.29-6.8 10.31 14.38 26.18 22.77 45.2 18.78.81-1.6 2.8-.8 3.59-2.8m-163.02-14.38c14.66-10.39 18.64-24.77 27.36-39.14 1.18-1.6 5.16-2.01 3.57-5.2-3.18-2.4-6.34 2.39-10.71 1.6-15.07 6.78-24.6 23.56-24.2 41.14 0 1.6 2.38 1.6 3.98 1.6m700.88-12.38c.4-4-.4-7.99-3.57-9.19a7.24 7.24 0 0 0-9.12 4.8c-1.2 2.78 1.18 4.39 1.98 6.38 3.17 3.2 8.73 1.6 10.71-2" transform="matrix(.13333 0 0 -.13333 0 126.01)"/><path style="fill:#231f20;fill-opacity:1;fill-rule:nonzero;stroke:none" d="M985.43 466.07c0 7.59 1.99 14.79 2.77 21.97 1.2 2.4 1.98 5.2 1.59 8.39 9.53 12.8 28.96 8.79 44.03 7.6 5.95-3.2 13.48-2.8 19.83-4.4 2.78 2 6.74 2.4 9.92 2 12.68 6.8 4.36 21.56 5.16 33.15l-4.77 11.99a47 47 0 0 0-3.18 8c-2.36 2.79-3.95 7.98-6.33 10.77-6.74 17.58-19.84 27.57-30.95 41.55-20.23 26.37-51.96 41.16-83.69 51.54-31.33 10.79-63.07-3.2-91.24-13.18-8.72 2.4-13.07 9.19-15.46 16.78a79.3 79.3 0 0 0 7.54 42.34c1.2 9.99 7.92 17.58 10.7 26.77 7.15 22.37 14.68 44.35 16.27 68.71.79 14.79-10.3 25.18-21.42 31.57-7.53 1.99-16.26 1.6-21.8-4.4-5.17-10.79-16.28-17.98-25.8-23.17-.8-6.8 7.53-2.4 10.31-4.8 8.73-1.6 18.66 1.21 25.79-4.39.8-15.98-8.33-29.17-16.66-41.15-13.49-19.97-27.76-40.35-36.1-62.32l-1.58 1.6 1.92-97.66c12.65-21.04 28.44-45.03 52.02-52.96 12.7-10.38 28.56-22.77 45.62-13.58 9.11 2.8 9.91-9.99 14.27-15.18 4.76-14.78-5.94-25.17-6.74-38.75l-10.32-21.97c-11.9-23.18-22.6-47.95-40.85-67.52-5.95 0-9.51-6.39-15.46-6.8-3.18-4.39-9.53-1.19-13.49-2.79-12.3-5.2-29.75-2-38.08-13.57.79-1.2 1.98-1.6 3.17-2.02 24.19-.39 51.17-1.99 76.95-.8 3.18 1.21 5.97 4 6.35 7.6-3.56 6.8 1.19 12.8 4.36 17.99 1.98 9.59 8.33 15.57 11.11 24.77 8.33 16.36 17.84 32.34 26.97 48.73l12.3 19.97c2.78 6.8 7.53 15.19 12.29 22.37 3.17 3.2 4.77 6.8 7.14 10.78.4 4-1.58 5.6-3.97 8.4 2.78 2.8 7.14 2 10.73 2.8 9.91-5.99 20.23-15.58 22.2-26.37l3.58-10.38 1.59-4.8-.8-13.18 1.58-12.39c1.99-19.18-1.59-38.75-3.57-57.93-6.75-23.16-33.32-20.78-52.36-25.95-4.76-3.2-13.87-1.6-13.87-9.6 22.99-4.8 49.97-2 74.56-1.6 3.96 1.6 4.76 5.2 6.74 8.8.8 5.19 5.95 9.58 4.36 15.17-4.36 5.59-.39 14.37-1.57 21.97.8 2 .8 4.79 0 7.6 3.16 11.58 2.38 25.57 4.75 36.76zm195.15 15.58c-12.7-17.98-26.18-38.35-48.38-44.74-1.6 0-3.19-.8-3.99 1.2 13.49 14.39 20.65 36.75 41.66 41.94 3.17 1.6 7.54 3.2 10.71 1.6M97.71 462.07c-1.98-1.58-.38-5.17-3.97-5.59-3.17-1.6-6.72.41-8.31 3.6-1.6 4 1.97 7.99 5.14 8.79 3.17-1.6 6.35-2.8 7.14-6.8m114.25-5.59c1.18-3.59-2.8-3.59-4.77-4.39-16.66-6-33.71-.4-45.62 11.58 0 1.6 0 3.2 1.6 3.6 16.25-3.99 35.3-.8 48.79-10.79m-92.42 5.2c.78-1.6 1.19-4.4.78-6-2.38-3.59-5.95-4.4-9.9-3.59-2.4 1.2-3.58 2.8-5.17 5.2.4 3.98 3.57 6.38 6.74 7.57 3.18-.39 5.56-1.19 7.54-3.18m371.67-2.01c.78-3.58-2.38-6-4.77-7.58-3.57-.8-6.74.8-8.32 3.2-1.19 2.78 0 6.78 2.78 7.58 3.57.8 9.12.41 10.3-3.2m704.46-1.6c1.19-3.99-2.37-5.98-5.15-8.38-2.38-1.2-5.16 0-7.55 1.2-.39 2-2.77 3.6-1.96 6.4 1.57 3.59 5.14 5.19 9.11 4.78 1.98-1.58 3.57-2 5.55-4m26.19 1.6c2.37-3.58.4-6.39-1.59-9.18a5.45 5.45 0 0 0-7.15-2.4c-2.38 2.4-5.56 3.6-5.94 7.2 0 3.19 3.56 5.59 5.94 6.78 3.98 1.6 5.56-2.4 8.74-2.4M81.05 448.09c.4-2.8-1.98-4.4-2.76-6.78-2-.8-3.98-2.4-6.36-1.6-2.79 1.19-4.76 3.6-5.95 6.38.8 3.6 3.16 6.8 7.14 8 3.18-.8 6.75-2.4 7.93-6" transform="matrix(.13333 0 0 -.13333 0 126.01)"/><path style="fill:#231f20;fill-opacity:1;fill-rule:nonzero;stroke:none" d="M916.4 448.09c.8-1.6.4-3.6.4-5.2-2.37-3.18-5.55-5.98-9.52-3.98-2.37 2.4-5.15 4.78-3.97 8.4 3.2 4.39 9.93 5.97 13.09.78m-771.49-6c-.78-2.8-1.97-5.59-5.55-5.98-3.56-.4-4.76 2.8-6.74 4.4 0 3.6-.4 7.18 3.18 9.18 4.75 1.6 9.11-2.39 9.11-7.6m-38.07-.79c1.19-4-1.6-6.79-3.97-8.78-4.76-1.6-8.73 2-10.7 5.59.39 3.59 3.17 7.98 7.13 9.2 3.57 0 5.55-4 7.54-6m835.75.78c.8-3.98-.4-7.97-4.36-9.57-4.77-1.6-8.73 2.4-10.71 5.59 1.98 3.2 2.37 7.6 7.14 8.37 3.57 0 5.95-1.58 7.93-4.39m-817.11-1.59c1.19-2.79-1.18-4-2-5.99-1.97 0-3.16-2.4-5.54-1.6-1.58 2.01-4.76 2.8-5.15 5.59-.4 4 2.38 6 5.15 7.6 3.97.38 6.36-2.4 7.54-5.6m1048.35-3.2c-1.18-3.18-3.56-4.78-6.74-6.38-3.17-.8-5.16 1.99-7.53 3.2-1.99 1.58-1.2 5.18-.39 7.19 3.96 6.78 14.66 3.6 14.66-4m30.15-1.61c-1.19-4.4-5.55-6.38-9.51-6.77-3.58 1.58-7.54 4.37-4.77 9.17 1.59 1.6 2.38 3.2 4.77 3.6 4.76 1.6 8.32-2 9.51-6m-188.42-2.79c2-5.2-2.75-6.8-5.93-9.18-2.78.4-5.16 1.58-7.55 3.18-.79 4.4 1.19 8.4 5.57 10.4 3.57 0 5.54-1.6 7.91-4.4m-109.06-4.78c1.98-.8 1.18-3.6.78-4.81-2.37-1.6-5.54-5.59-9.12-3.18-2.77 1.58-4.75 3.98-3.97 7.58 2 4.39 10.33 4.8 12.31.4m22.2-2.81c.4-3.18-.4-4.78-3.17-6.38-2.78-2.8-5.95.4-8.73 1.2-.78 1.59-1.58 4-.4 5.98a8.8 8.8 0 0 0 5.16 3.2c2.78-.8 5.96-.8 7.14-4m-673.11-.39c2.37-2.38-.4-5.2-.8-7.6-1.99-2.38-6.35-4.37-9.92-1.99-3.96 1.6-3.56 6.8-2.76 9.98 2.37.8 2.37 3.62 5.54 3.62 3.57-.41 5.55-2.02 7.94-4m802.42-1.61c.8-3.98-3.18-5.59-5.94-6.39-4.77-1.6-7.14 2-9.12 5.2 0 2.4 2.37 3.98 3.17 6 5.55 2.38 9.12-1.6 11.89-4.81m-21.41 0c1.57-3.98-2.78-6-4.37-7.99a8 8 0 0 0-8.73 1.6c-1.99 1.2-1.99 3.6-1.99 6 2.39 2 3.58 4.4 6.37 5.2 3.56 0 7.13-2.02 8.72-4.81m178.89-4.78c.78-5.6-6.35-2.8-9.12-4.4-16.67-9.98-38.09-2.4-53.95 3.6 1.19 5.19 7.14 3.18 10.32 5.19 17.05 10.78 34.5-2.4 51.55-3.2zm-1085.65 4.78-1.58-2.8c-14.68-8.78-33.72-14.78-51.16-9.2l-1.6 2.41c14.68 10.8 34.1 13.6 53.16 10.8zm968.64-2.79c0-3.2-1.59-6-3.98-7.58-3.96-1.21-9.12 0-10.31 4.37-1.18 3.2 1.99 6.41 5.15 7.6 2.79 0 7.55-.39 9.14-4.4m-897.63-1.59c-1.59-3.19-.8-6.4-4.77-8s-8.72 2.02-9.9 5.2c-1.2 4.4 1.97 5.59 3.96 7.6 4.75 2.38 8.34-1.2 10.7-4.8m-28.14-2c1.18-2.79-1.2-4.4-2-6.38-1.99-2.4-5.55-2.01-7.94-1.21-2.76 2.4-5.54 5.2-4.36 9.59 2.38 1.99 3.57 3.2 6.35 4.39 3.57-.78 7.14-2.4 7.94-6.39m953.55-9.18a8.55 8.55 0 0 0-6.34-7.2c-3.18-.4-5.96 2-7.54 4a6.2 6.2 0 0 0 1.58 7.58c.79 1.21 3.57 1.21 5.16 2.01a8.5 8.5 0 0 0 7.14-6.39m-982.91 4.38c1.19-3.18-1.58-4.38-1.99-6.78-1.2-6.8-5.54-11.19-8.72-17.19-7.54-9.18-18.25-9.18-28.96-11.97l-1.58 3.19c11.5 14.78 23.8 26.36 40.06 33.57zm963.08-8.79c.79-4.78-3.18-5.59-5.95-7.58-3.57 0-6.34 2-7.94 4.79-1.19 4.4 2.78 6 5.16 7.99 3.96.8 7.54-2 8.73-5.2m-917.47 0c-.4-.78.41-1.58 1.2-2-.4-4.39-3.57-5.58-5.95-7.57a10.7 10.7 0 0 0-8.73 3.98c-1.59 3.6 0 8 3.96 9.2 3.58.4 8.34 0 9.52-3.61m990.46-11.97c3.95.39 4.74 5.2 9.12 5.97 3.97.8 7.52-1.58 9.52-4.4 1.58-4.78-2-7.18-5.16-9.17-2.78-2-8.74 2.4-8.35-2.8 2.79-1.99 5.17-4.78 5.57-7.98-.79-1.6-3.57-1.2-4.76-.41-11.51 4.8-23.8 12.8-28.56 24.76-1.59 3.62-9.12 6.41-4.76 9.61 11.51.8 21.02-8.4 27.38-15.58m38.07 12.38c1.98-2 1.19-5.6-.39-7.6-2-3.98-7.94-2.38-11.5-1.99-1.99 2-3.97 3.98-3.18 7.19 1.58 2.4 3.18 4 5.95 5.2 3.57.8 6.34-.8 9.12-2.8m-143.98-21.58a57 57 0 0 0 8.72-15.98c-.8-1.19-2.78-.8-3.56-.8-13.49 7.6-30.94 15.98-36.11 31.95-1.19 1.6-4.37 3.62-3.96 6.41 10.31 2 20.23-5.6 27.37-11.2 2.78-4 5.95-5.99 7.54-10.38m-906.75 15.17c1.58-3.57-1.6-6.38-3.57-7.96-4.36-.82-6.75.78-9.14 3.18-2.76 4.4 2.4 7.99 5.57 9.59 3.16.4 5.15-2.8 7.14-4.8m956.33-9.19c.39-2.4-2.77-3.98-3.97-5.58-3.17-.41-6.35-1.6-9.12 1.19-.79 2-2.78 5.2-.4 7.19 4.36 5.6 10.72 1.2 13.49-2.8m98.77-5.58c1.18-4.8-2.39-7.99-5.57-10-3.96-1.2-7.13 1.6-9.51 3.61-1.98 2.38-.39 4.79 0 7.58 2.77 2.4 6.34 4.4 10.32 2.8 1.58-1.2 3.17-2 4.76-4m-274.49-55.13c0-4.78-8.73-3.6-12.3-7.19-12.3-6.38-26.98-6.38-41.64-6v2.41c14.27 11.97 34.9 16.37 53.94 10.78m-578.71-17.17c-.41-3.61-2.4-5.6-5.96-6.8a7.7 7.7 0 0 0-6.74 4c-1.6 4.8 2.38 6.79 5.15 8.78 3.58-.4 6.75-3.2 7.55-5.98m571.96-4.39c-.79-3.61-1.98-7.6-5.94-9.2-3.58-.8-5.96 1.2-8.74 2.8-1.98 1.6-.78 4.39-1.17 6.4 2.77 7.17 13.07 7.17 15.86 0m78.93-1.6c-9.91-6.4-21.02-14-34.11-14l-21.41.4-2 1.6c13.08 15.98 36.89 15.98 57.52 14.38zm-759.59-9.59c0-3.62-1.59-6.39-5.16-7.6-3.97-.8-6.75.8-8.34 3.6-1.58 3.59 0 7.18 3.17 9.2 4.37 2.79 8.74-2.02 10.32-5.2m19.83-4.01c1.2-1.99-.77-3.2-1.58-5.2-2.38-1.18-5.54-1.98-7.53 0-2.78 1.61-3.58 4.4-2.38 6.8s3.58 2 4.76 3.6c2.77-1.2 5.55-2.4 6.73-5.2m-151.91-40.35c-3.97-4.78-10.31 1.21-14.68 3.61-13.88 7.97-13.48 23.56-27.37 32.76 1.6 4.78 5.15-.41 7.93.39 2.38-1.6 5.56-3.2 8.34-4.4 13.48-7.6 16.66-20.37 25.78-32.36" transform="matrix(.13333 0 0 -.13333 0 126.01)"/><path style="fill:#231f20;fill-opacity:1;fill-rule:nonzero;stroke:none" d="M653.43 257.93c-1.59-4.8-4.76-8.79-4.36-13.98l-1.59-.8c1.2 6-4.76 9.58-3.18 15.97-3.18 4.8-3.18 10.8-5.94 15.98-3.57 6.4 3.16 9.2 5.94 13.6 5.56-2.41 7.54-7.6 11.5-12.4 2.39-6.79-2.77-11.98-2.37-18.37m630.68 147.42c-6.35 11.58-17.07 16.37-29.76 16.37-10.3-.8-17.85-7.58-22.21-16.37-2.37-8.79.8-16.8 7.54-21.97 2.78-1.21 6.35-.8 7.93 2 1.99 5.19-3.56 5.19-4.36 9.19-1.59 5.59.41 10.37 4.36 13.97 3.97 4 10.72 2 15.47 2 4.76-3.2 9.53-5.99 11.9-11.6a32 32 0 0 0 0-21.17c-4.36-9.98-14.27-17.97-24.59-19.98-32.92-4.78-394.28-3.18-394.28-3.18-42.43-4-90.82 7.99-127.31-14.38-16.67-7.98-25-26.36-29.35-42.75-10.72-9.59-22.22-20.78-30.95-31.56l-1.2 1.19c1.99 9.59 6.36 17.99 8.35 27.58 5.94 7.99 5.94 18.77 10.3 27.56 15.08 24.37 29.35 49.14 52.76 66.3 9.92 13.2 27.36 10.8 42.44 10.8 16.26-7.6 35.3-9.98 55.13-7.98.79.8 1.2 1.58 1.2 2.79-5.56 5.2-14.69 7.19-21.03 12.38-15.86 7.6-30.94-2.38-47.6-1.19-.79.8-1.58 1.2-1.19 2.4 15.08 11.18 32.13 19.16 49.2 26.37 13.87 7.58 28.54 11.58 43.22 17.17 5.95 0 11.51 5.2 17.05 1.6l21.03 5.59c.8-.41 1.6-1.59 3.18-1.2 17.84 6 40.46.4 60.67.79l2.8-2.39 19.03-4.78c7.14-.8 10.32-9.2 17.85-9.6 3.96 5.6-4.36 8-6.35 11.6 8.74 1.98 18.65-.4 26.57-4.01l-3.95-4.4c-2.4-4.4 1.18-7.58 4.75-9.18 2.78-.8 4.77 1.2 6.74 2 5.16 3.59-.4 7.18 1.19 10.38 29.36-5.19 57.52-12.38 84.5-23.96 7.52-2.4 14.66-7.99 23-7.6-8.34 7.6-19.84 11.58-30.15 15.98-6.75 4-16.27 4.4-21.41 9.98 1.18 2.01 3.96 1.21 5.14 2.81 13.5 1.58 25 11.58 34.52 22.37.79 2.38 5.15 1.6 4.76 4.8-3.57 4-9.53-1.21-14.28-.82-16.66-3.18-23.81-22.75-40.47-26.35-20.22 4.79-40.85 9.6-61.08 14.77-9.92 1.6-20.61 2.4-29.74 6.4l-22.22 2h-40.46c-.4.8-1.58 1.19-1.2 2.4 14.3 3.6 26.6 11.99 40.88 15.58l106.3 48.73c11.11 9.99 21.01 21.18 30.15 32.76a7.6 7.6 0 0 1-4.38 7.6c-2.78 1.2-5.95.8-7.92-1.6-4.77-3.6 0-8 0-12.4-4.77-6.38-12.31-11.97-18.25-15.57-1.58.4-109.48-49.14-109.48-49.14-15.87-6.8-31.73-14.38-48.4-17.98l-23-3.59c-1.58-4.8-5.55-7.6-9.93-9.18-6.33-1.2-11.5-5.2-18.23-5.2-51.57-19.97-105.11-41.14-145.97-81.9 2.38 4.8 3.57 10.8 3.97 16.8-.8 5.97-.4 12.77-4.36 17.57-.93 2.19-3.84 8.63-2.9 10.94l-5.83-3.75c-3.57-8.81-6.74-24.77-3.17-33.97 1.2-7.19 7.13-15.58 1.59-21.97-19.05-23.16-29.76-51.15-42.44-77.5-4.77.78-7.15 5.2-9.14 9.59 13.5 17.17 24.21 36.35 28.17 58.32 2.78 2 .8 7.19 3.57 9.59-.79 6.39 3.56 12.77.4 17.97 2.53 8.73-11.6 16.77-2.57 22.36l-7.48-3.57c-17.06-22.39 8.86-55.94-10.58-77.5v-1.6c-5.55-7.21-8.34-14.4-15.87-19.18-9.51 3.98-13.08 14.78-18.64 22.77-8.73 8.4-8.73 25.57-3.56 37.15 3.55 11.58-2.39 21.58-3.59 31.97l-3.95 2.38c-9.52-12.38-13.09-31.95-5.57-46.74 3.97-7.18 4.38-17.18 10.33-23.18 3.56-11.58 10.7-19.16 17.05-29.55 1.6-4-2.38-4.79-4.36-6.8-4.36 2.8-3.58 9.2-7.54 12-13.1 27.96-30.14 50.33-50.76 73.1-.8 3.6-4.38 6.8-2.4 10.78 7.55 7.21 9.13 21.2 5.16 30.37-.78 2-3.16 4.4-2.76 6.39l-5.97 4.8c.8-13.98-8.32-26.36-4.35-41.15v-.8c-40.86 30.76-86.02 58.23-132.05 79.8l-3.65-10.15c11.62-2.93 42.48-21.7 42.48-21.7 13.88-5.2 26.57-13.6 39.66-21.17 53.95-29.98 89.65-79.51 113.84-134.65.4-4.4 4.38-9.18 1.6-13.57-8.34 12.77-20.23 19.96-30.15 30.35-2.79 18.79-13.88 36.76-30.15 44.35-5.95 8.77-18.64 9.57-28.55 12.39l-144.39.8c-117.41 1.6-224.5-3.62-341.12-1.6-16.27 1.6-36.1 7.18-40.85 24.37-3.17 5.98-3.17 16.37 0 21.95 4.36 7.6 12.29 10 20.22 10.8 6.35-.8 10.71-6.8 13.5-11.19 0-5.2-4.38-9.98-6.37-14.37.4-1.6 2-4.8 4.77-3.6 5.16 2 9.13 7.58 10.33 12.78.38 2.81 1.57 6.8-1.2 8.79-2.38 8.4-11.11 14.4-18.64 16.38-9.93.8-20.23-1.99-26.98-9.18-9.52-8-9.12-22.38-6.35-33.57 6.35-17.58 25-29.57 42.84-31.95l385.96-1.6c37.67-2 80.11 4.39 118.2-3.2 13.88-4.4 28.56-14.77 32.12-30.36-.41-.8-1.6-.41-2.77-.41-31.35 20.37-72.6 27.97-112.66 23.18-15.86.8-30.14-5.2-44.42-9.2-7.54-1.6-14.68 2.02-19.44 6.4-14.28 12.78-39.26 11.98-57.5 7.2 0-1.21-.4-2.4.38-2.81 19.44 1.6 30.94-15.18 48.4-17.17 3.96-.8 7.13 3.6 10.7.39-18.23-8.77-35.7-19.16-55.13-24.77-5.95 1.2-9.12 6.8-13.88 10-7.54 8.38-21.41 4.79-31.73 5.59-3.57-.8-6.74 1.6-9.13 0 3.18-6.39 10.31-9.98 17.07-13.18 9.9-4.4 21.4.4 30.54-5.6-2.4-2.8-5.56-3.6-8.34-5.6-18.64-7.18-34.11-23.96-54.74-22.77-21.8-2.38-44.03 4-58.71 19.18-6.34 15.59-22.6 23.97-40.06 23.16-1.18-.78-2.77-.78-2.37-2.79 8.72-5.18 15.47-15.57 24.19-21.56 5.56-6.8 16.26 0 21.4-7.6 7.57-5.2 17.09-9.59 25.8-11.19 6.35-2.8 13.5-3.98 20.63-5.59l-2.78-1.6c-36.08-11.97-77.75-13.18-118.2-11.58-11.9.41-23.4 4-35.3 3.6 1.98-2.4 5.95-4.4 9.52-5.6-3.16-1.98-6.75-2.79-10.71-3.2-4.76-1.19-10.32-1.6-15.09-3.98-6.33.4-11.9-2.01-17.04-4-6.75-7.2-14.68-14.79-22.6-18.38 0-1.6-.4-4 1.58-4 7.53 3.2 17.05.81 24.59 4 13.08 1.2 20.62 15.58 30.95 21.58 11.09 8.79 26.96 6.78 40.45 4.78 7.93-1.99-.8-5.2 1.58-10.39 3.18-2.79 5.95-6 10.33-4.78.78.8 1.57 1.6 2.76 2 2.38 3.2 1.99 6.79.4 10 5.56 3.58 13.1-.42 19.03 1.98 15.08.4 30.16 3.6 44.84 4 2.37.4 5.16 2.8 7.53.4-1.18-3.2-5.16-3.62-3.57-7.99.79-3.6 4.76-5.2 7.92-6 3.98 1.6 7.54 4.4 5.96 9.6-.79 2.79-3.96 3.18-5.96 4.39 8.34 4 17.85 5.2 26.19 9.18a75 75 0 0 1 16.66 5.6c5.16.4 9.53 5.18 14.28 3.19a82 82 0 0 0-8.34-19.18c-6.33-21.18-11.1-49.14 0-69.52 1.2-.39 1.6.41 2.4.8-8.34 21.18-3.58 45.55 3.55 65.53 5.56 33.95 40.47 43.95 65.47 56.74l1.18-1.62c-6.75-17.56-16.66-34.36-15.08-55.53.8-3.6-1.58-7.17 0-9.59 6.75 3.62 11.11 11.6 14.67 18.4 2.78 17.97-7.52 40.33 10.73 53.52 32.51 12.79 63.06 29.57 100.74 29.96 1.19-1.2 3.97.8 4.36-1.58-7.93-8.8-19.42-17.2-23-27.97-12.7-17.58-12.3-47.54-6.75-69.12 3.58-12.39-7.14-19.18-12.3-28.77-2.45-3.38-3.16-9.2-5.43-13.1l7.82-.89c6.74 7.19 13.09 15.98 13.5 26.39.78-4 4.34-7.2 7.52-8 2.77 4.39-2.38 7.59-2.78 11.98 6.35 3.6 9.14-4.4 14.29-6 8.33-1.99 15.46-5.58 24.18-5.58l2.78 2.8c-8.72 13.57-26.17 15.97-41.25 16.77-7.93 13.18-7.93 29.55-7.14 45.55 1.6 8.38 3.18 17.17 7.94 24.76 1.98 5.61 7.53 10.79 11.1 15.18a55 55 0 0 0 25 13.6h1.18c0-.8.4-1.22.4-1.22-10.71-8.38-11.9-19.96-18.24-30.35-6.75-9.98-9.93-23.57-3.58-34.75 2.39-5.19 1.2-13.18 6.75-16.8 5.14 7.2 5.55 16.4 8.32 24.38-1.19 13.19-9.11 25.57-1.58 38.36 3.97 9.98 12.3 13.99 21.42 17.58 21.81 2 40.85-9.2 59.89-17.58 3.98-2.79 10.71-5.2 11.5-10.78-.4-10.8-6.33-21.58-14.68-26.78-10.7-6.38-26.17-7.18-36.1.4-5.94 6-8.31 16.38-6.33 24.37 4.36 4.8 10.32 8.79 17.45 6.39 3.97-2 7.53-6 12.7-3.6 1.97 1.2 2.77 4.4 1.58 6.4-4.36 2.4-5.94 8.39-11.91 9.19-7.52 1.19-16.65.8-21.8-4.4a28.2 28.2 0 0 1-9.12-27.97c2.77-12.77 12.28-21.97 24.58-25.56 18.25-4.4 37.3 1.21 48.8 16.78 4.75 5.2 5.94 10.78 8.72 17.18 19.04-11.58 33.3-31.97 40.86-52.73 0-6.8 1.99-13.99.4-19.98l13.87-1.2c-1.2 3.2 0 6.78 1.2 9.58 5.15 26.36 21.42 48.36 40.85 65.52 6.75 4 5.15-5.19 6.75-7.98 5.94-15.2 19.84-25.96 34.5-30.37 16.65-2.8 32.53 1.2 42.84 13.98 5.16 9.59 11.51 23.6 2.77 33.57a27.4 27.4 0 0 1-21.8 10.38c-10.32 0-16.67-7.2-21.82-14.79 0-3.18-.4-6.78 2.37-8.38 1.59 0 4.77-.39 5.95 2 .8 5.99 5.95 8.78 10.71 11.99 4.37 2.4 9.12 0 12.7-2.4 4.36-3.6 5.16-9.6 5.55-15.6-.8-7.57-5.95-15.58-13.08-18.76-11.51-6-28.17-3.2-38.1 3.6-4.74 5.19-7.53 11.18-11.09 17.57-.8 6.39-3.18 12 0 18.38 17.45 10.39 35.7 17.99 56.72 19.98 8.32-1.6 15.48-7.19 21.01-13.18 18.25-18.8-3.95-45.55 8.74-66.31 4.75.78 4.75 7.16 6.73 11.17 5.97 14.37-1.58 29.96-5.15 43.94-4.76 8.8-7.53 16.4-15.08 23.58 2 .8 2.8.8 4.76.8 8.34-5.59 17.46-12 24.2-20.78a107.3 107.3 0 0 0 15.47-65.51c-3.16-12-15.86-17.6-25.78-21.97-3.96-3.2-8.72-8-10.7-12.8 4.76-2.79 11.5 0 16.25 2 7.54 2.8 11.9 12.4 17.07 16.77.78-.39.4-1.6.78-2.4.4-4.37-1.98-10.37 1.99-11.56 1.98 5.58 2.39 13.57 3.57 20.37 5.16-5.6 5.94-12.8 7.53-19.98 3.58-7.19 9.53-16.78 19.04-17.99 2.38 3.6-.39 7.2-1.18 10.4-1.2 10-9.53 15.19-15.08 22.37-13.88 19.18-7.54 49.15-18.25 70.7-3.96 11.61-12.3 19.99-21.42 29.58l1.6 1.6c19.43.4 35.69-6 53.54-9.59 21.82-10.78 53.55-8.4 63.86-36.76 4.37-15.97 11.5-30.76 22.62-43.14l1.19.8c2.36 3.98 2.36 10.78 0 14.78-2.39 19.96-19.84 24.77-28.97 41.55l1.19 1.6c9.52-2.81 19.44-5.2 28.96-9.2 31.74-8.79 53.94-39.94 57.91-72.3 0-25.57-4.76-46.74-14.67-68.3-1.2-3.23-6.75-6.8-3.18-9.6 4.37 3.19 5.16 8.38 7.54 11.98 13.09 21.97 19.82 52.32 13.09 80.29-.4 5.2-6.35 9.2-3.58 14.37 1.99-2.38 4.38-2.77 6.75-3.57 2.39 1.6 5.96 1.6 7.54 4.4.4 2.4 1.97 5.19 0 7.18-2.38 3.6-7.54 3.6-11.5 2.8-1.99-2.4-4.36-5.6-4.77-8.8-3.95 6.8-7.93 15.57-14.28 21.18l.8 1.19c17.86-5.98 34.11-14.77 52.36-19.57 3.97-2.4 8.32-4.4 13.88-4.4 15.47-6 32.52-8.37 48.79-12.38 11.9 1.2 21.81-4.4 33.72-1.6v.8l-.4-.39c-4.37 5.59-13.87.4-19.04 4.4-27.38 2.79-53.55 9.97-78.14 19.56.39 1.2 1.99.8 3.17.8 3.97 2 6.75 5.6 6.34 9.99-1.98 2.79-5.15 4.4-9.12 4.4-2.38-1.2-5.55-4-5.95-6.79.4-3.2 3.18-6.8 5.95-7.6-.79-.8-2.38-.4-3.56-.4-12.3 5.6-24.21 10.8-36.1 16.38-4.36.8-7.94 4.4-12.3 5.2-9.12 4.4-18.25 8.79-27.38 12.38-25.36 13.18-53.53 20.37-80.5 29.96-5.95 1.6-11.52 3.2-17.06 4.79-9.91 2.8-19.83 5.21-29.75 8-33.72 8.38-78.94 9.18-108.29-9.2-4.76 1.6-7.54-5.97-9.92-1.19 8.33 21.98 32.53 29.16 54.34 29.96 159.06 1.6 308.21 2.8 464.89 5.2 18.25 0 36.1 6.39 45.61 22.77 6.74 9.6 7.94 25.98 2.78 36.76" transform="matrix(.13333 0 0 -.13333 0 126.01)"/><path style="fill:#231f20;fill-opacity:1;fill-rule:nonzero;stroke:none" d="M1083.79 283.09c0-1.18 2.39-1.59 1.59-3.58-13.88-12.4-33.31-16-53.15-16.8-1.59-.39-3.18-1.58-5.15-1.19-1.19.8-1.59 2-.78 2.8 14.26 15.58 36.07 23.57 57.49 18.77m-63.85-6.39c1.57-5.59-1.98-8.79-6.36-10.78-4.36.39-6.73 3.2-8.71 6.4-1.19 3.19 1.58 4.79 2.78 6.78 3.16 3.2 10.7 3.2 12.29-2.4m-754.04-.8c.79-2.8.4-6.39-1.98-8.38-1.6-2-5.15-2.4-7.15-2-2.78.4-4.36 3.6-5.15 5.98 0 3.6 1.98 5.6 5.15 7.6 3.18 0 6.74.41 9.13-3.2m-71-25.96v-2.8a30.9 30.9 0 0 0-25.8 5.99c-5.54 8-11.89 16-21 19.98 0 1.2-2.4 2.79 0 3.59 19.82 0 31.73-15.98 46.8-26.76m949.19 26.36c-9.14-13.58-17.06-30.36-33.31-36.36-2.79 0-5.16-3.98-7.55-1.19 6.35 15.2 19.84 31.56 35.31 37.95 1.58 0 3.95.4 5.55-.4m-855.19-4.8c.4-4.4-2.77-5.2-5.55-7.57-3.17-.41-4.76 1.99-6.75 4.39-1.58 4 2 5.59 3.97 7.58 3.17.8 6.75-1.58 8.34-4.4m905.15-2.38c-3.56-5.2-1.98-12.8-5.54-18.4-7.94-9.18-14.69-19.55-27.37-21.56-1.98 3.99 2.77 7.99 4.76 11.6 5.56 11.97 13.49 25.55 26.17 30.74zM71.93 265.53c1.19-2.81 2.38-5.6 0-8.81a9.4 9.4 0 0 0-9.12-1.58 7.44 7.44 0 0 0-3.17 9.59c2.38 3.59 9.5 5.58 12.3.8m-22.62-4.81c.4-1.99 1.58-3.6 1.19-5.58-1.19-2.01-3.16-4.42-5.54-4.8-4.37-.8-7.13 1.6-9.12 5.19-.4 3.6.79 6.8 3.94 8.4 3.58 1.6 7.56-.41 9.53-3.2m46.8-2.41c.8-3.18 1.6-8.79-3.16-9.57-5.56-2.42-8.74 1.58-11.9 4.79a9.1 9.1 0 0 0 4.75 7.98c3.97.4 7.55 0 10.3-3.2m65.07-5.19c-.4-2.8.4-6.8-2.78-7.58-1.98-2.02-5.55-1.21-7.53-.8-.8 2.4-5.17 4.4-2.78 7.18a15 15 0 0 0 5.55 4.4c2.38-1.2 5.97 0 7.54-3.2m1070.96-2.8c-1.19-2.8-2.77-6.39-5.95-6.39-3.56.4-7.13.8-9.11 4.42-1.59 4.37 1.98 6.78 5.16 7.97 3.95 0 9.12-1.6 9.9-6m-72.58-1.97c.39-3.22-3.17-5.6-4.76-6.82-5.55-2.38-10.31 1.6-12.31 6 .79 3.6 3.59 6 6.76 7.19 5.15.4 7.93-2.39 10.31-6.37m49.18.78c0-2.81-1.58-5.6-3.56-6.8-3.18-1.19-7.14-.8-9.53 1.6-3.57 3.2-.79 6 1.59 8.4 3.57 2 10.3 1.6 11.5-3.2m-1147.12-6.8c.8-4.4-.8-8.38-4.76-9.98-3.57 0-7.54 2-8.72 5.59-.4 3.6.77 7.19 3.97 8.38 3.95 1.2 7.14-1.2 9.51-3.99m1078.12-4.39c1.18-4.4-1.2-8.38-5.57-10.4-3.17-.77-5.16.8-7.54 2.82-1.58 2-3.56 6.39-.39 8.38 3.17 6 11.1 3.6 13.5-.8m-864.72-4.39c1.58-4.4-3.16-5.2-4.36-7.58-1.6-.8-4.76-1.2-5.95.39-1.99 2.4-4.36 4.8-3.18 8.4 1.98 1.6 2.78 3.18 5.16 3.98 4.37 1.2 5.96-2.8 8.33-5.2m949.98-2.79c.79-2.8-1.57-3.98-1.98-5.97-2.38-2.02-6.34-2.43-9.12-1.63-3.57 2.02-3.57 5.2-3.57 8.8 2.38 1.6 2.77 3.59 5.55 4.4 3.57 0 7.94-1.6 9.12-5.6m-24.58-1.19c1.58-4.78-2.78-7.2-5.95-8.4-1.59-.39-3.97.8-4.37-1.6 10.32-5.2 16.66-13.57 24.59-21.17v-3.19c-14.27.4-28.96 3.99-39.28 15.18-2.76 2-7.53 2-10.69 4.79 5.15 5.2 14.68 3.2 21.81 3.59 5.16 5.6-5.95 9.59.79 14.37 2.38.41 3.97 2.82 7.15 2.02 2.77-1.2 4.35-3.2 5.95-5.59m-162.25-.41c.8-2-1.57-4.37-1.97-6.39a7.9 7.9 0 0 0-8.72-1.6c-1.99 2.8-5.18 5.2-3.98 9.2 3.18 6 13.48 4.79 14.67-1.21m-886.9-13.98c-1.2-3.6-2.8-5.98-6.75-6.4-3.18.42-5.94 1.61-7.14 4.8-.4 2.79 1.6 4.39 1.98 6.4 4.37 3.6 12.3 1.2 11.9-4.8m32.14 5.19c0-5.58-5.96-8.79-7.94-14.37-5.95-13.19-16.65-25.18-31.73-26.37-1.6 3.6 5.16 7.99 6.74 11.58 6.34 13.58 19.04 20.76 30.55 29.16zm845.26-5.58c.39-4.4-3.57-7.6-6.75-9.2-3.56-1.2-6.35 1.6-8.33 3.2-3.17 3.18-1.18 6.39.41 9.59 4.76 4.78 11.5.8 14.67-3.6m24.6-2.81a9.9 9.9 0 0 0-7.14-8.79c-.8 1.22-2.78.41-3.97.82-2.78 1.59-5.17 3.99-5.17 7.17 1.99 2.01 2.79 5.2 5.56 5.6 3.58.4 9.53 0 10.72-4.8m-808.39.41c.4-4.4-2.76-6.8-5.94-8.38-3.57-.4-5.96 2-7.54 4.79-.78 3.6 2.77 6 4.75 7.99 4.77 1.6 5.97-2 8.73-4.4m27.38-1.6c-1.2-3.6-3.57-6-7.54-6.78-2.78.79-5.94 1.59-7.14 4.79-.39 3.98 2.78 6 5.54 7.99 3.97 0 8.34-1.6 9.14-6m866.29-27.97c1.98-1.58 5.55-3.57 4.74-6.38-6.33-2.8-11.49 4.39-17.43 5.58-9.53 9.6-16.66 19.98-20.63 31.97 3.57 3.6 7.53-.8 10.71-2 9.12-7.58 17.84-17.58 22.61-29.17m14.68 27.97c1.18-2.8.78-6-.8-8.79-2.38-3.98-7.54-3.2-11.1-2.38-1.99 2.38-5.56 5.58-3.18 9.18 1.19 3.18 4.75 3.98 7.54 5.2 2.76.38 4.75-2.02 7.54-3.2M308.73 200.4c.4-3.2 1.2-8-2.77-9.99-3.57-.8-8.32.4-9.52 4.8-1.97 4.79 2.38 5.6 4.76 7.97 3.17.82 5.15-.78 7.53-2.79m743.34-25.96c5.55-7.99 9.51-17.97 10.3-28.38-1.2-2.79 1.99-5.58-.39-7.57h-1.59c-17.85 12.77-21.81 30.76-28.56 48.73-1.59.8-1.99 2.4-1.59 4 3.97 3.6 6.74-3.6 10.72-4.8zM360.3 188c-.4-.38 0-.8.4-.8-15.86-11.16-38.08-17.96-56.32-7.18-.4 1.21.4 3.2 1.97 3.6 11.51 3.59 22.61 9.2 34.92 7.6zm-90.44-1.98c-13.47-8.4-25.77-24.77-42.45-28.77-3.16-1.2-5.14-5.59-9.1-3.19 7.14 21.58 30.54 33.15 51.55 35.16zm758.8-17.97c1.18-3.2 0-7.6-3.17-8.4-1.99-2-5.95-2-7.53 0-3.57 1.6-3.57 5.2-3.57 7.99 1.17 2.79 3.96 3.2 5.95 4.4 3.56-.81 6.34-.81 8.32-4m-32.92-2c-2.39-5.6-9.12-8.8-14.28-10.38-13.49-4.8-25.78 1.59-37.68 4.79.39 3.18 4.36 2 6.34 4 13.1 2.8 26.57 5.59 40.45 2 1.2.8 3.98 1.19 5.17-.42m-725.88-11.58c-1.18-1.6-1.58-5.2-4.77-6.38-2.76-1.2-5.53 0-7.9 1.58-.8 2.42-3.6 4.41-1.6 7.2.8 2.8 3.96 3.6 6.34 4.4 3.97-.41 7.14-2.8 7.92-6.8m23.42-3.59c-1.2-2.38-2.37-6-5.55-7.6-3.19-.78-5.56.8-7.95 2.8-1.18 2.42-2.37 5.19-1.18 8 .8 2 3.57 2.4 5.56 3.6 3.96.39 7.53-3.6 9.12-6.8m727.85-3.98c.39-3.2-1.18-5.2-2.77-7.6-1.98-2.8-5.95-3.19-8.72-1.6-2.78.4-3.58 3.59-4.76 5.58-2.39 3.2 1.58 5.22 2.78 7.99 4.35 3.61 11.49 1.6 13.47-4.37m17.46.78c.39-2 1.59-3.99.79-5.59-2.39-2-3.97-7.19-8.73-5.2-2.37-.78-3.56 2.4-4.75 3.2-1.59 4-.4 9.99 4.75 10.79 3.57 1.21 5.96-2 7.94-3.2M279 136.1c.77-4.42-.8-8.4-3.98-10.8-4.36-.8-9.93-.8-11.5 4.39-.4 4 0 9.18 4.76 11.58 3.97.41 8.72-.4 10.72-5.18m22.59 1.59c-.78-11.18-3.17-24.77-14.27-31.16-6.36-1.2-12.7-7.2-19.04-3.2v2c8.32 11.98 23.4 21.18 33.31 32.36m657.26-9.18c1.58-2.4-1.19-4.42-2.38-6.41-2.37-2.8-6.75-1.58-9.51-.4-2.8 1.2-3.18 5.2-2 8 .8 2.4 3.18 3.6 5.16 4.4 3.58.38 6.75-2.8 8.73-5.6m-617.58-18.37c5.54-9.2 2.38-21.58 5.54-31.57-6.74-.8-9.52 6.8-13.88 10.79-8.71 11.99-7.53 27.96-11.5 41.95a2.1 2.1 0 0 0 2.79.8c5.94-4 10.3-11.58 15.06-16.78-.8-2.79 2.38-2.79 1.99-5.2m637.41 15.19c0-3.21-3.57-4.01-5.55-6-2.78.39-5.16 1.6-7.53 3.6-1.2 4 1.98 5.19 3.96 7.18 3.96 1.6 7.93-.4 9.12-4.79m47.21-35.56c0-1.2-.4-3.58-2.39-2.78h-1.59c-11.5 10.37-23 21.96-21.41 37.95l2.38.4c10.7-9.2 22.61-19.19 23.01-35.57m-29.75 12.79c.4-3.2-1.59-5.59-3.57-7.58-4.38-1.2-11.1-.8-11.91 5.18-.39 4 3.97 6 5.96 7.99 4.75 1.2 7.93-2 9.52-5.59m-26.19-8.38C964.4 79.36 949.32 71.76 939 60.57c-1.98 1.2-1.19 4.4-.78 6 3.96 15.17 15.87 29.95 30.54 35.95 6.33-.8 0-5.2 1.18-8.38m29.77-11.99c0-3.6-3.57-5.2-5.55-7.19-3.18.4-6.35 1.2-8.73 4.4-.4 3.98 2.77 5.2 5.14 7.18a8.25 8.25 0 0 0 9.14-4.4M705.1 804.3h-4.38c-11.5 0-1.74-13.94 4.44-13.94 7.68 0 8.16 13.94-.06 13.94m-35.52-13.94c11.5 0 .62 13.94-5.56 13.94h-11.49c-11.5 0-.63-13.94 5.56-13.94zm-48.19 0c11.5 0 .62 13.94-5.56 13.94h-11.49c-11.49 0-.61-13.94 5.55-13.94zm83.16 17.08a9.84 9.84 0 0 0 9.81-9.88 9.83 9.83 0 0 0-9.8-9.88H586.92a9.85 9.85 0 0 0-9.8 9.88 9.85 9.85 0 0 0 9.8 9.88zm.85-182.34c0-5.21 6.95-1.74 12.13-1.74 5.17 0 12.14-3.47 12.14 1.73 0 7.39-6.97 4.82-12.14 4.82s-12.14 2.57-12.14-4.82m22.01-12.28c5.04 0 5.5 6.95 5.5 12.96 0 13.63-10.8 0-16.32 12.83-4.04-10.82-15.13-.8-15.13-12.43 0-8.01-.05-13.36 7.91-13.36zm-33.17 59.67 22.49-8.63 22.09 8.63-8.75-33.08 17.5 3.62-5.96-20.05 5.97-19.25-15.52 4.22 6.76-35.68-22.09 8.61-22.49-8.61 9.15 35.68-17.91-5.02 4.79 20.05-4.8 19.25 17.13-2.82zm-52.59-48.66v4.2l-3.77.73 2.95 3.05-1.82 3.38 3.85-.4 2.33 4.1 2.29-4.04 3.92.34-1.84-3.38 2.95-3.05-3.76-.73v-4.2l-3.56 2.67zm-17.44-22.45v4.18l-3.77.72 2.96 3.07-1.83 3.37 3.85-.4 2.35 4.1 2.27-4.04 3.92.34-1.84-3.37 2.96-3.07-3.76-.72v-4.18l-3.55 2.66zm29.59 2.85v4.2l-3.76.7 2.95 3.09-1.82 3.38 3.86-.42 2.33 4.1 2.28-4.04 3.92.36-1.82-3.38 2.94-3.08-3.75-.7v-4.21l-3.57 2.66zm3.5-16.77v2.37l-2.13.4 1.66 1.73-1.04 1.92 2.2-.24 1.31 2.31 1.28-2.27 2.22.2-1.03-1.92 1.66-1.73-2.12-.4v-2.38l-2 1.5zm-27.49-19.2v7.2l-6.45 1.21 5.05 5.28-3.13 5.77 6.6-.7 4.03 7.02 3.9-6.92 6.7.6-3.13-5.77 5.05-5.28-6.44-1.21v-7.2l-6.09 4.56zm14 376.85 13.96-34.35 35.38 10.41-17.94-32.41 30.12-21.38-36.35-6.08 2.2-37.05-27.37 24.85-27.4-24.85 2.22 37.05-36.36 6.08 30.14 21.38-17.95 32.42 35.37-10.42zM515.82 174.67c-4.2-1.58-5.84-2.74-4.8-7.1l4.98-21.05c.91-3.9 1.2-10.04-1.4-13.8-3.1-4.52-9.65-7.4-14.37-8.54-3.45-.84-10.94-2.23-16.96.31-3.97 1.7-6.55 3.52-8.24 10.65l-5.22 22.05c-1.31 5.54-3.39 5.2-7.88 4.53l-.4 1.66 26.6 6.37.4-1.65c-5.16-1.44-7.58-2.08-6.2-7.9l5.2-22.05c.9-3.78 3.06-12.88 14.38-10.16 13.85 3.32 11.62 13.47 10.62 17.7l-4.77 20.13c-.94 4.02-2.42 6.06-9.26 4.67l-.38 1.66 17.3 4.16zm39.41-4.42c-2.43 4.32-8.85 10.88-18.17 8.81-4.11-.92-8.01-3.88-7.07-8.18.8-3.58 2.61-4.69 9.88-6.02l12.66-2.24c2.93-.53 9.78-3.03 11.37-10.26 1.28-5.82-2-14.98-16.55-18.2-7.48-1.68-11.55-.23-14-.76-1.66-.37-1.78-1.66-1.86-2.8l-2.3-.5-3.6 16.36 2.28.53c3.06-6.35 9.3-12.81 19.32-10.58 9.5 2.1 8.43 8.77 8.24 9.62-.97 4.44-5.03 5.2-10.62 6.12l-5.76.94c-14.7 2.42-15.96 8.12-16.62 11.17-.9 4.04-.43 13.6 14.57 16.95 6.32 1.4 10.52.04 12.8.55 1.82.4 2 1.48 2.11 2.83l2.38.53 3.16-14.36zm52.34-26.17-28.75-2.75-.16 1.68c5.84.97 7.76 1.29 7.23 6.97l-3.4 35.63c-5.6-.8-13.86-1.94-14.45-12.91l-2.35-.24-1.04 13.61 48.34 4.65 1.44-13.57-2.32-.22c-2.64 10.67-10.97 10.2-16.56 9.93l3.38-35.63c.56-5.74 2.5-5.68 8.5-5.45zm32.24 24.12c10.59-.11 14.82 1.3 15 10.1.13 6.88-3.12 9.86-9.6 9.98-4.44.08-4.62-.66-5.06-2.75zm35.04-24.1-16.59.31L641.94 166l-2.17.04-.27-13.3c-.1-5.45 1.66-5.69 7-6.4l-.04-1.7-27.32.54.02 1.7c5.52.44 7.13.62 7.24 6.1l.58 30.03c.12 5.84-2.38 6.01-6.98 6.39l.03 1.7 26.04-.51c5.67-.12 22.79-1 22.56-12.4-.16-8.37-8.53-10.32-12.92-11.37l15.88-19.67a4 4 0 0 1 3.28-1.37z" transform="matrix(.13333 0 0 -.13333 0 126.01)"/><path style="fill:#231f20;fill-opacity:1;fill-rule:nonzero;stroke:none" d="m705.43 156.25-6.09 17.36-9.57-15.4zm22.5-18.98-26 3.26.2 1.68c5.02-.28 6.47-.4 6.74 1.83.24 1.82-1.72 7.13-2.57 9.42l-18.06 2.26c-2.84-4.57-4.47-7.17-4.6-8.24-.33-2.56 3.5-3.24 6.22-3.73l-.21-1.68-16.3 2.05.22 1.68c4.39 0 5.8 2.15 8.83 6.9l22.4 34.66 2.25-.27 13.5-37.68c2.72-7.65 3.72-10.11 7.6-10.45zm47.1-9.59L729 136.13l.31 1.66c4.55-.33 6.97-.58 7.71 3.5l5.86 32.32c.79 4.42-2.44 5.14-5.98 6.02l.3 1.66 27.78-5.1-.31-1.66c-5.61.8-8.1 1.2-9.15-4.69l-5.71-31.52c-.58-3.22 1.07-4.06 6.4-5.04 12.02-2.23 17.48 2.5 22.51 9.38l2.3-.41zm30.52-6.84-27.71 5.82.36 1.68c4.33-.59 7.48-.96 8.33 3.16l6.65 32.17c.9 4.4-2.8 5.3-6.4 6.27l.35 1.64 27.71-5.8-.34-1.68c-3.75.65-7.56 1.39-8.5-3.14l-6.66-32.15c-.87-4.26 2.26-5.12 6.55-6.29zm33.33 11.29-6.46 17.26-9.24-15.64zm22.93-18.5-26.09 2.72.17 1.68c5.03-.18 6.49-.26 6.71 1.97.18 1.82-1.88 7.09-2.78 9.36l-18.11 1.89c-2.76-4.63-4.34-7.27-4.44-8.36-.26-2.56 3.6-3.16 6.3-3.57l-.16-1.7-16.35 1.7.18 1.7c4.4.07 5.77 2.26 8.7 7.07l21.64 35.15 2.26-.21 14.32-37.4c2.88-7.6 3.94-10.04 7.81-10.3zM640.82 658.39c-4.76 0-11.17-3.28-11.17 2.37 0 8 5.42 6.2 10.18 6.2s12.15 1.8 12.15-6.2c0-5.65-6.4-2.37-11.16-2.37m14.13 3.12c0 16.32-9.14 1.03-14.2 14.9-3.7-11.73-14.71-1.85-14.71-14.47 0-4.82 1.25-7.6 3.6-9.15v-4.81c0-1.25 1-2.26 2.23-2.26h17.32c1.24 0 2.24 1 2.24 2.26v5.22c2.09 1.78 3.52 4.6 3.52 8.3m141.93-200.15c4.14 0 7.48 2.95 7.48 6.58s-3.34 6.6-7.48 6.6c-4.12 0-7.47-2.97-7.47-6.6s3.35-6.58 7.47-6.58m-35.16 241.6s-3.51-5.91-3.51-7.02c0-2.16 1.6-3.91 3.56-3.91s3.55 1.75 3.55 3.9c0 .14-3.6 7.03-3.6 7.03m-239.57 0s-3.5-5.91-3.5-7.02c0-2.16 1.58-3.91 3.55-3.91s3.56 1.75 3.56 3.9c0 .14-3.61 7.03-3.61 7.03m59.89 0s-3.5-5.91-3.5-7.02c0-2.16 1.6-3.91 3.55-3.91 1.97 0 3.56 1.75 3.56 3.9 0 .14-3.61 7.03-3.61 7.03m59.89 0s-3.5-5.91-3.5-7.02c0-2.16 1.59-3.91 3.55-3.91s3.56 1.75 3.56 3.9c0 .14-3.6 7.03-3.6 7.03m59.88 0s-3.5-5.91-3.5-7.02c0-2.16 1.6-3.91 3.56-3.91s3.56 1.75 3.56 3.9c0 .14-3.62 7.03-3.62 7.03m-179.56-82.24s3.5-5.9 3.5-7.02c0-2.16-1.6-3.9-3.56-3.9-1.97 0-3.56 1.74-3.56 3.9 0 .13 3.62 7.02 3.62 7.02m0-79.91s3.5-5.9 3.5-7c0-2.16-1.6-3.9-3.56-3.9-1.97 0-3.56 1.74-3.56 3.9 0 .12 3.62 7 3.62 7m9.58-63.24s3.52-5.92 3.52-7.01c0-2.15-1.6-3.9-3.57-3.9s-3.56 1.75-3.56 3.9c0 .11 3.61 7.01 3.61 7.01m50.24-33.61s3.5-5.92 3.5-7.04c0-2.14-1.59-3.9-3.55-3.9s-3.56 1.76-3.56 3.9c0 .12 3.6 7.03 3.6 7.03m182.69 176.77s-3.49-5.9-3.49-7.02c0-2.16 1.6-3.9 3.55-3.9 1.96 0 3.55 1.74 3.55 3.9 0 .13-3.6 7.02-3.6 7.02m-.01-79.91s-3.49-5.9-3.49-7c0-2.16 1.6-3.9 3.55-3.9 1.96 0 3.55 1.74 3.55 3.9 0 .12-3.6 7-3.6 7m-9.59-63.24s-3.5-5.92-3.5-7.01c0-2.15 1.59-3.9 3.56-3.9 1.95 0 3.55 1.75 3.55 3.9 0 .11-3.61 7.01-3.61 7.01m-50.25-33.61s-3.5-5.92-3.5-7.04c0-2.14 1.6-3.9 3.56-3.9 1.97 0 3.56 1.76 3.56 3.9 0 .12-3.62 7.03-3.62 7.03m-61.14-35.64s-3.5-5.9-3.5-7.01c0-2.15 1.59-3.9 3.55-3.9 1.97 0 3.56 1.75 3.56 3.9 0 .14-3.61 7.01-3.61 7.01m97.46 119.2c.75-1.15 2.64-1.52 5.02-.7l2.26 6.45c.19.45-2.61 3-4.27 2.6-6.4-1.53-13.18-2.29-16.95-8.35 0-4.18 3-7.97 6.03-9.87 2.25.75 2.63-1.52 4.14-2.65.37-1.91-.76-3.43-2.63-3.43-4.53 4.56-12.43-1.52-15.83 4.19 1.5 5.68 4.53 12.14-.38 17.45.38 1.13 2.27 2.28 1.13 3.41-1.88 5.31-7.54 1.14-10.93 1.14-5.65.77-10.17-2.27-13.57-6.82.38-1.9 1.13-3.8 3.01-5.7 1.52.38 2.27 0 2.65-1.52l-3.77-2.28c1.12-1.14 1.12-2.65 1.5-4.17-2.64-1.14-5.27 2.65-6.4 4.55 0 3.04.38 8.35-3.78 9.12-.74 0-3.26-1.11-3.26-1.11-.92-1.16-1.54-3.52-1.54-6.28 0-2.7 1.48-6.79 1.48-6.79s11.62-8.61 14.26-13.91c-3.4-6.83-3.4-16.32-11.3-20.11-2.27-1.51-2.27-3.8-2.27-6.08l1.89-1.52c4.9 2.66 14.31 3.42 13.57 11.76 1.89 3.42 3.76 7.22 7.15 9.87a7.8 7.8 0 0 0 8.67-4.17c-1.13-5.7-4.9-9.49-10.17-11.37-.76-.77-.38-1.9-.38-3.05 1.51-2.66 5.65-1.52 7.91-1.14 6.42 4.19 9.06 11.77 14.7 14.04.75-3.8-7.54-4.93-2.26-8.72 3.39.75 7.92-.38 10.18 4.17-2.65 6.45 9.03 9.49 1.88 15.18 0 5.69 6.02 7.96 5.64 14.05-2.26 6.06-9.41 6.06-11.29 11.76 2.25 1.52 5.65 1.14 7.91 0m-275.24-69.06c4.13 0 7.48 2.95 7.48 6.58s-3.35 6.58-7.48 6.58-7.48-2.95-7.48-6.58 3.35-6.58 7.48-6.58M77.54 231.48a7.2 7.2 0 0 1 7.36 7.08c0 3.88-3.3 7.05-7.36 7.05-4.08 0-7.36-3.17-7.36-7.05a7.2 7.2 0 0 1 7.36-7.08m246.2-54.41c.31 0 .44.04.44.3q-.01.29-.28.29c-.15 0-.15-.04-.16-.1zm1.03-.68h-.48l-.48.6h-.07v-.37c0-.18.06-.18.2-.2v-.03h-.79v.04c.16.01.2.01.2.2v.85c0 .18-.06.18-.2.2v.03h.75c.17 0 .68-.02.68-.35 0-.23-.24-.29-.36-.33l.46-.57q.06-.04.1-.03zm1.04.93c-.04.14-.18.38-.46.38-.13 0-.25-.08-.25-.2 0-.1.05-.16.24-.23l.34-.14c.09-.04.27-.16.27-.37 0-.18-.15-.41-.6-.41-.2 0-.32.06-.39.06q-.06-.01-.07-.06h-.08v.49h.08c.06-.2.18-.43.49-.43.27 0 .3.2.3.23 0 .12-.13.18-.28.24l-.16.05c-.4.18-.4.34-.4.43 0 .12.08.4.52.4.2 0 .3-.08.37-.08q.08.01.08.07h.07v-.43zm2.49.36q-.11-.03-.16-.14l-.47-1.2h-.07l-.39.94h-.01l-.45-.93h-.05l-.5 1.19c-.05.1-.08.12-.17.14v.03h.7v-.03c-.09-.02-.16-.02-.16-.1l.02-.06.28-.72h.01l.28.6-.09.2q-.01.06-.17.08v.03h.75v-.03q-.17-.01-.18-.08l.03-.12.25-.66.27.68.01.08c0 .08-.09.08-.16.1v.03h.43zm.62-.71c.03 0 .1 0 .1.02l.02.18c0 .39-.04.53-.19.53s-.14-.14-.14-.3q-.01-.42.21-.43m-.56-.56c.24.04.52.13.64.5l-.1-.01q-.07-.03-.11-.02c-.17 0-.43.07-.43.43 0 .1.08.44.51.44.2 0 .54-.13.54-.6 0-.35-.34-.74-1.05-.8zm1.37.89q.28.01.5-.1a.4.4 0 0 0 .25-.36c0-.26-.25-.47-.68-.47-.18 0-.33.06-.33.17q0 .1.14.12c.16 0 .3-.18.45-.18.08 0 .24.04.24.22 0 .12-.14.21-.26.25q-.24.09-.5.08l.23.68h.75l-.1-.25h-.65z" transform="matrix(.13333 0 0 -.13333 0 126.01)"/><path style="fill:#231f20;fill-opacity:1;fill-rule:nonzero;stroke:none" d="M773.83 498.36c-1.45-15.98-6.87-29.3-17.94-36.84l-104.2-66.25h-.57a13 13 0 0 0-8.02-2.83c-3.12 0-5.93 1.13-8.16 2.95L530.9 461.52c-11.05 7.54-16.49 20.86-17.94 36.84V705h260.87zm7.8 214.08v.15H505.17v-.15h-.04l.22-211.25c0-21.55 9.12-40.39 21.73-46.19l106.3-67.5a12.9 12.9 0 0 1 18.35-1L759.7 455c12.62 5.8 21.74 24.65 21.74 46.2l.21 211.24z" transform="matrix(.13333 0 0 -.13333 0 126.01)"/><path style="fill:#231f20;fill-opacity:1;fill-rule:nonzero;stroke:none" d="m680.61 404.53 3.36 1.62c-1.4-.5-2.45-1.05-3.36-1.62M445.76 128.87l-10.01 15.43-5.68-17.27zm26.33-13.09-26.05-3.03-.19 1.7c4.95.9 6.4 1.14 6.13 3.36-.2 1.84-3.35 6.53-4.73 8.56l-18.07-2.11c-1.7-5.12-2.68-8.03-2.54-9.1.28-2.56 4.17-2.33 6.92-2.13l.2-1.7-16.32-1.88-.2 1.68c4.28 1.04 5.14 3.46 6.98 8.8l13.59 39.01 2.26.28 21.98-33.4c4.46-6.8 6-8.94 9.85-8.36z" transform="matrix(.13333 0 0 -.13333 0 126.01)"/><path style="fill:#231f20;fill-opacity:1;fill-rule:nonzero;stroke:none" d="M919.58 199.6c-3.56-7.2-9.12-12.4-17.05-13.58.39 9.59 9.12 16.38 5.95 27.16-5.17 7.6-15.48 9.98-25 8-3.56-2.41-1.97-6.4-3.17-10L878.73 198c-7.95 0-8.34 7.19-10.71 12.77.39 8.4 3.96 16.78 12.29 20.78 6.34 3.2 16.66 2.8 23-.8 5.17-1.19 11.12-3.6 13.09-8.4 5.96-5.58 4.37-15.56 3.18-22.75m-32.13-4c4.37 4.4-1.18 29.58 11.11 13.19 0-3.2.4-7.99-2.79-10.4-1.98-1.6-5.15-4.78-8.32-2.78m4.37-10c.39-6.36-5.55-4.78-8.73-7.18h-9.52c-1.98 3.2-1.18 7.99-1.18 11.19 6.34-1.2 13.48-1.2 19.43-4m11.1-48.72c-3.17-4-.4-10.38-4.36-13.99 0-7.19-5.96-10.78-11.11-13.57-47.2-10.4-93.6 5.58-139.22 13.57-63.87 13.99-138.43 17.99-203.5 3.2a946 946 0 0 1-89.63-21.17c-18.25-2.4-38.08-5.2-55.53.4-14.27 6.79-8.34 25.17-12.7 37.94.79 10-2.77 17.99-3.17 27.58-1.18 3.18-1.98 7.19-1.58 10.39 5.93-.8 11.9-5.2 18.24-6.8 33.33-6.38 63.07 4.4 94 9.98 29.76 6.4 60.3 11.6 91.64 13.99 35.7.39 72.19 2.4 106.3-3.6 11.1-.4 20.63-3.2 31.32-4 22.23-2.8 42.86-8.79 65.46-10.37 3.57-1.2 7.93-1.2 11.9-2.01 35.7-5.59 75.76-15.57 109.87 0 0-14.38-5.94-27.56-7.93-41.54m-201.5-29.16c1.98-5.6 5.56-10.79 3.57-17.58-3.96-7.6-11.9-7.6-19.03-9.18-3.58-.41-6.36.78-9.12 2.79.39 1.6-.41 2.8-1.59 3.98 1.18 5.2-9.13 10.4-1.99 14.79 6.34 6 21.42 19.57 28.17 5.2m8.72-1.6c4.77-1.2 5.16-6.4 5.56-10.38-.4-8.79-5.15-16.38-13.48-19.59-4.37-2.4-11.1-3.2-15.48-1.6 9.53.41 19.84 4 23.8 13.6zm10.32-53.13c-.8-.41-.8-1.21-.8-1.6-11.5-.41-19.03 6.38-27.75 12.38l-.41 2c10.72-.8 19.44-7.6 28.97-12.78M705.8 16.23c-.4-1.2-2.4-1.2-3.18-.39-11.9 15.18-17.46 31.15-25 47.93l1.6.39c9.51-15.57 17.05-32.75 26.58-47.93m-19.84 9.59-2-.8c-1.97 1.6-1.18 6-.78 8.4 2.37-2.01 4.37-4.8 2.78-7.6m-11.11 23.97c.4-3.99 4.36-5.6 1.99-9.18-.8 1.58-3.18 5.2-2 9.18m-2.37 25.17v1.2h.78v-1.2zm-23.01-57.54c-7.54-.39-19.04-4.78-26.19 1.6.4 3.2-3.16 4.79-2.77 8 6.34 2.4 11.89-5.2 17.85.4 9.12-.4 18.64 1.2 27.76-.8 4.37-1.21 11.1 7.19 11.9-1.21-3.17-13.18-19.04-3.98-28.55-7.99M632 64.96l1.98 3.2c-3.18-9.59-7.94-19.57-13.1-28.77-2.37 9.6 7.55 17.2 11.12 25.57m11.1 7.6c5.16 5.58 9.92-3.2 11.91-7.6 5.95-8.77 21.41-16.78 15.47-28.75-7.55-6.8-19.45-.4-27.77-5.6-4.36.4-11.91-.8-14.28 3.59 4.36 12.8 8.34 27.17 14.67 38.36m-1.18 15.17h-1.58l2.37 2.4c1.19-.8-.4-1.6-.79-2.4m9.11-.78c1.59 2.39 3.57 5.98 6.35 5.98 0-.4.4-.8.8-1.21-2.39-2-4.36-3.99-7.15-4.77m5.56-6c.8.79 2.78.79 3.58 0zm10.7-12.4c-.39-.78.4-1.99-.79-2.79l-9.12 7.19c4.37.8 7.55-1.2 9.92-4.4m-.79 24.38v-1.21h-.4v1.21zm16.67 24.77c-4.76-1.6-8.33-7.2-13.09-8.38 2.39 4.4 8.33 8.79 13.1 8.38m-19.84 5.2c-.8 3.6 3.57.8 5.16 2.4l12.3-.8c-6.36.8-14.29-14-17.46-1.6m-28.95-11.18c1.98 5.59 2.39 10.37 5.96 14.78 3.95 0 7.52 0 10.7-1.6.79-8 10.7-18.79 0-25.58-3.57-1.6-8.74-5.18-12.7-1.6-5.15 4.4-5.95 8.4-3.95 14m-5.95-24.77c-.4 1.59.79 3.6 1.2 5.59 1.97 2 3.96-1.6 4.76-2.81a5.9 5.9 0 0 0-5.96-2.78m-.4 18.36h-.4v4.4h.4zm-4.75 12c-5.16 1.19-7.95 7.18-13.48 7.18 4.75 1.6 9.5 1.21 15.06.41 1.99-2.81-1.2-5.21-1.58-7.6m-4.38-32.37c1.2 5.2 3.58 12 6.35 16.78-.4-5.2-2.77-12.38-6.35-16.78m-8.71 0c-6.75.8-13.1 2.8-19.04 4.79-3.98 4 0 8.4 0 12.79 5.55 8.79 21.4 13.18 28.96 5.2-1.2-8.8-4.37-16.4-9.92-22.78m3.56-10.78v-1.6h-.8v2h1.6c-.4 0-1.2 0-1.6-.4zm-9.9-23.18a307 307 0 0 0-19.46-37.54c-.78-2-3.97-2.4-6.33-2.81 0 5.6 5.55 10 7.93 14.78 8.32 10.8 10.7 22.38 20.22 32.75 2.38-2.38-2.37-3.98-2.37-7.18m-37.7 4c9.53 4 19.43 12.38 30.15 8.79-7.54-6-19.84-8.38-30.15-8.79m14.27 27.56c-1.97 13.98 3.6 25.98 12.72 35.96 5.54 1.19 11.89 2.4 17.05-.8-10.32-2.8-23.41-5.18-25.8-18.38.4-5.18-1.18-8 1.2-12.37 4.37-7.6 14.28-4.41 19.83-10.39 0-2-1.58-4.4-3.57-4.8-6.75 4-15.07 5.58-21.43 10.78M394.41 210.78c1.2 3.2 0 7.99 4.36 8.79 2.78.8 7.15.8 7.54-2.4-.4-4.79-.79-9.57-1.98-13.99-5.56-.39-8.33 2.82-9.92 7.6m1.2-13.42c5.94-4.37 14.26-2.38 21.41-3.59 1.19-4.4 1.19-9.98-1.98-13.57-6.74 1.6-15.47.8-19.04 7.18.8 2.8-1.2 6.8-.4 9.98m-18.64 11.43c1.18 7.19 2.76 14.78 9.5 19.98 9.53 5.2 22.62 3.98 31.35-1.21 2.77-1.58 4.76-3.99 6.36-7.58 1.97-6.8-1.21-13.98-5.97-17.99h-3.96c0 6.4 0 12.8 2.37 17.99-.39 4.8-4.36 5.2-7.53 7.19-6.75 1.99-12.7-1.2-17.86-4-3.96-4.8-7.53-10.79-5.14-17.58 2.77-4.4.38-10.38 1.96-15.18l-1.19-1.6c-4.74 5.2-11.1 10.8-9.9 19.98m372.17-169.8c9.48-4.3 28.56-8.46 42.3-10.03-1.23-5.42-10.9-.33-9.78-7.96-12.3 4.78-26.57 7.18-35.7 16.77.8.41 1.6 1.6 3.18 1.21m-247.64-6.4-5.54 5.2c2.77 3.6 8.72 1.6 13.08 4 10.31 3.21 22.22 7.2 33.72 4.8-11.9-9.6-27.37-10.79-41.26-14m428.4 182.2c-4.76 12.38-14.68 20.76-26.98 24.76-12.69 2.8-26.18.8-34.51-8.79-14.27-11.58-4.36-30.76-3.96-46.35 0-3.18.39-5.58-2.79-7.18-57.5 5.2-111.05 19.57-168.18 25.56-13.13 2.27-26.29 1.68-38.77 4.32l-15.96 1.68c-49.58-1.6-99.16-4.4-145.57-16.39-9.91-3.18-21.03-3.98-30.94-7.58-7.14 1.2-13.09-4-19.83-2l-13.06-3.05a11 11 0 0 0-4.4.25c-6.35 16.39 12.7 26.37 6.75 42.34-5.16 9.2-15.47 18-27.37 16.39-13.49 1.6-25.38-6-31.74-16.39-9.11-19.96 2.39-40.74 5.95-60.3-.8-6.4 6.36-13.58 0-18.8-12.7 8.81-29.35 13.6-44.82 9.2-4.76-2.4-13.48.8-15.86-4.8 17.06-9.18 38.87-8 57.9-7.2 2.39.81 3.97 1.22 5.96-.38 1.59-10.4-1.99-24.38 4.37-33.56 7.13-9.59 19.03-11.99 30.53-13.18 36.5 1.2 69.02 11.97 102.34 20.37 5.16.4 9.12 3.19 14.68 3.19 17.84 4 37.29 7.18 56.32 7.6-8.33-10.79-13.08-22.78-16.66-35.96-4.76-10.79 8.33-12.39 12.3-18.38-12.3-3.6-21.02-12-32.53-16.78-25.39.8-46.8-8.79-70.6-11.58-.4-5.2 8.33-3.6 9.12-8.8-1.19-3.59-4.75-3.98-7.53-5.99-.4-2.38 0-2.8 2.37-3.2 2.39 2.81 7.54.82 9.92 3.61 7.93 0 14.68 2.38 22.21 2.8 6.76 2.79 14.28 3.2 20.24 7.98 8.32 2.4 13.49 8 21.81 10.4 11.9 0 22.6 3.98 33.71 4.78v-2.4c-9.1-14.77-18.6-29.95-28.14-43.92-1.58-2.81.4-5.6 2.77-6.4 5.57-1.6 11.1 0 15.47 2.4 8.34 14.37 15.87 27.97 22.62 42.75 2.79 13.57 12.7 20.76 22.61 29.96 1.59.8 3.97 3.19 5.55.8-7.94-9.2-13.09-17.99-19.03-27.97-3.18-11.19-3.98-25.56 5.94-34.76 4.77-4 11.9-2.8 18.26-3.2 15.46 7.98 35.3-4.79 47.2 10.39 7.13 1.2 8.31-7.2 12.28-11.2 6.75-1.99 13.88-8.77 20.63-3.98-.4 4.4-5.16 8.4-7.53 12.38-4.77 8.4-10.7 15.2-15.08 22.78-1.99 5.58-5.54 9.2-6.35 14.78 7.15-2.4 13.49-7.19 21.43-8.4C719.67 44.6 728 45 734.35 41c5.16-6.8 13.08-10.79 19.83-15.18 9.9-4.8 21.02-5.6 31.33-9.59 3.97-.39 9.93-3.6 12.7 0-1.6 2-3.58 3.18-5.95 4.4-1.2 5.19 7.14 2.4 9.92 6.38-.98 1.97-2.71 2.76-4.61 3.03-5.69 3.05-19.81 4.1-23.56 6.17-4.76.78-9.13 2.8-13.88 4.4-23.8 0-36.89 21.56-55.93 29.55 4.36 4 11.1 7.18 13.89 13.18 3.56 5.6 4.76 14.78 1.19 21.17-3.58 12.38-19.45 10.8-28.56 17.58l1.19 1.21c15.46.78 28.96-2.8 42.84-5.6 38.07-5.18 73.37-19.58 113.05-20.38 21.8 0 49.17-1.19 59.88 19.98 1.98 12.39 4.37 24.77 6.35 37.15 4.76 19.98 17.84 38.36 15.86 60.34" transform="matrix(.13333 0 0 -.13333 0 126.01)"/></svg>