<svg width="100" height="49" viewBox="0 0 100 49" fill="none" xmlns="http://www.w3.org/2000/svg">
<path fill-rule="evenodd" clip-rule="evenodd" d="M27.7143 0.571411V16.2857C25.5421 14.7077 22.9053 13.8468 20.2857 13.4171C17.845 13.0168 15.063 13.2656 12.7143 14.0162C5.79898 16.2262 0.753982 22.5535 0.434125 29.8576C0.0363251 38.9422 6.92184 47.1176 15.9998 48.0248C17.1 48.1348 18.1828 48.2076 19.2856 48.061C22.336 47.6556 25.1133 46.8643 27.7141 45.1433V47.429H36.1427V0.571884L27.7143 0.571411ZM39.4286 0.571411V47.4286H47.8571V14.7143H54.5714V7.14284H47.8571V0.571411H39.4286ZM86.4285 0.571411V7.2857H93.1428V13.8571H99.8571V0.571411H86.4285ZM68.21 13.2248C66.4373 13.2146 64.6138 13.4855 63.0001 13.9969C56.0213 16.2087 51.0406 22.682 50.72 29.9997C50.284 39.9583 59.3591 49.4055 69.5714 48.0597C72.6303 47.657 75.3915 46.8681 78 45.142V47.4277H86.4285V13.8563H78V16.2849C75.8143 14.697 73.207 13.8486 70.5714 13.4163C69.811 13.2916 69.0155 13.2287 68.2098 13.2241L68.21 13.2248ZM68.9706 20.8501C69.9498 20.8481 70.9449 21.0355 71.8573 21.3328C73.106 21.7398 74.2596 22.2249 75.2859 23.0664C78.8032 25.9497 79.7784 30.919 77.8863 35C76.3266 38.3644 73.1161 40.0967 69.5716 40.5307C64.0749 41.2035 58.8514 35.8188 59.1564 30.4285C59.4417 25.3867 63.0693 21.6244 68.0001 20.9183C68.3194 20.8725 68.6441 20.8508 68.9706 20.8501ZM18.7992 20.8577C19.7401 20.8601 20.6754 21.0419 21.5717 21.3328C23.073 21.8203 24.409 22.4815 25.5694 23.5843C28.7519 26.6085 29.4062 31.5828 27.3822 35.4285C25.7173 38.5917 22.5596 40.1233 19.143 40.5307C13.6274 41.1881 8.52887 35.6403 8.87015 30.2857C9.19355 25.2105 12.9223 21.5737 17.8573 20.9177C18.1709 20.876 18.4853 20.8569 18.799 20.8577L18.7992 20.8577Z" fill="#EBF5D4"/>
</svg>
