<svg width="250" height="53" viewBox="0 0 250 53" fill="none" xmlns="http://www.w3.org/2000/svg"><path d="M4.18 48.98h-2.4l-.28.64q-.15.33-.14.54 0 .28.23.41.14.09.67.12v.19H0v-.19q.36-.05.6-.3.24-.24.58-1l2.42-5.3h.1l2.44 5.45q.36.78.58.97.17.15.48.18v.19H3.92v-.19h.13q.4 0 .56-.1.1-.09.1-.23l-.02-.18-.15-.37zM4 48.6l-1-2.28-1.04 2.3zm7.76-2.32v3.6q0 .51.1.65.1.13.4.16v.18h-1.9v-.61q-.33.39-.67.57-.33.18-.75.18-.4 0-.7-.24t-.4-.56q-.12-.32-.11-1.11v-1.83q0-.52-.1-.64-.1-.14-.4-.17v-.18h1.9v3.13q0 .5.05.64.04.14.15.21a.4.4 0 0 0 .24.08q.18 0 .32-.1.21-.12.48-.51v-2.46q0-.52-.1-.64-.1-.14-.4-.17v-.18h1.9m3.72-.12.07 1.56h-.17q-.3-.7-.64-.95a1 1 0 0 0-.65-.25.5.5 0 0 0-.35.14q-.14.14-.14.3t.1.26q.15.2.9.69.72.48.96.83t.23.77q0 .38-.2.74-.19.37-.54.57t-.79.2a3 3 0 0 1-.9-.21l-.2-.06q-.16 0-.27.25h-.17l-.07-1.65h.17q.22.64.61.97t.75.33q.23 0 .39-.15.15-.14.15-.35a.6.6 0 0 0-.15-.4q-.15-.18-.67-.53-.76-.51-1-.8a1.4 1.4 0 0 1 .05-1.85q.37-.42 1.07-.43.38 0 .74.19.15.07.22.07t.15-.04q.05-.04.17-.2zm2.47-1.56v1.69h1.1v.48h-1.1v2.84q0 .4.04.5.03.12.13.2a.3.3 0 0 0 .17.07q.33 0 .62-.49l.15.1q-.4.96-1.31.95-.44 0-.75-.24-.3-.25-.4-.54a4 4 0 0 1-.04-.9v-2.48h-.61v-.17a6 6 0 0 0 1.84-2h.17zm3.09 1.68v1.04q.46-.71.82-.94.35-.24.67-.24a.6.6 0 0 1 .45.18q.16.16.17.48 0 .33-.16.5a.5.5 0 0 1-.4.2.7.7 0 0 1-.46-.17q-.18-.18-.23-.19l-.11-.03q-.15 0-.27.1a1 1 0 0 0-.31.48q-.16.48-.16 1.06v1.33q0 .28.04.35.07.14.18.2.12.05.4.08v.17h-2.52v-.17q.3-.03.4-.17.12-.15.12-.74v-2.53q0-.4-.05-.5a.4.4 0 0 0-.14-.2 1 1 0 0 0-.33-.1v-.18h1.9zm4.77 3.92q-.85.74-1.54.74a1 1 0 0 1-.66-.26 1 1 0 0 1-.27-.65q0-.52.46-.94t2-1.12v-.46q0-.51-.05-.65a.5.5 0 0 0-.22-.24 1 1 0 0 0-.36-.1q-.33 0-.53.14-.13.1-.13.2 0 .12.14.26.2.22.19.41 0 .24-.18.41a.7.7 0 0 1-.48.17.8.8 0 0 1-.53-.18.6.6 0 0 1-.21-.44q0-.36.28-.68.3-.32.8-.5.51-.16 1.05-.17.67 0 1.06.28t.5.6q.07.2.07.95v1.78q0 .32.03.4t.07.12l.11.04q.14 0 .27-.18l.15.12q-.25.35-.52.53-.27.16-.6.16-.4 0-.63-.18a.8.8 0 0 1-.27-.56m0-.36V48.3q-.6.34-.9.75a1 1 0 0 0-.2.53q0 .23.17.4.12.13.35.13.25 0 .58-.27" fill="#000"/><path d="M29.78 44.21v5.7q0 .49.12.63.1.14.44.15v.18h-2.52v-.18q.3 0 .46-.17.1-.12.1-.6v-4.76q0-.48-.11-.61-.11-.15-.45-.16v-.18z" fill="#000"/><path d="M32.21 46.28v3.64q0 .49.12.62.11.15.44.16v.18h-2.52v-.18q.31 0 .46-.18.1-.11.1-.6v-2.68q0-.48-.11-.62-.11-.13-.45-.15v-.19zm-.7-2.22q.33 0 .55.23.22.21.22.53 0 .31-.23.53a.8.8 0 0 1-.55.22.7.7 0 0 1-.54-.22.7.7 0 0 1-.22-.53q0-.31.22-.53a.8.8 0 0 1 .54-.23zm4.09 6.14q-.85.74-1.53.74a1 1 0 0 1-.67-.26 1 1 0 0 1-.26-.65q0-.52.46-.94.45-.42 2-1.12v-.46q0-.51-.06-.65a.5.5 0 0 0-.21-.24 1 1 0 0 0-.37-.1q-.32 0-.53.14-.12.1-.13.2 0 .12.14.26.2.22.19.41 0 .24-.18.41a.7.7 0 0 1-.48.17.8.8 0 0 1-.53-.18.6.6 0 0 1-.2-.44q0-.36.28-.68t.79-.5q.52-.16 1.06-.17.66 0 1.05.28t.5.6q.07.2.07.95v1.78q0 .32.03.4t.07.12a.2.2 0 0 0 .12.04q.12 0 .26-.18l.15.12q-.25.35-.52.53-.26.16-.6.16-.4 0-.62-.18a.8.8 0 0 1-.28-.56m0-.36V48.3q-.6.34-.9.75a1 1 0 0 0-.2.53q0 .23.17.4.13.13.35.13.26 0 .58-.27m4.25-3.56v.6q.36-.38.69-.56.34-.18.7-.18a1.15 1.15 0 0 1 1.16.87q.09.3.08 1.08v1.78q0 .53.1.66.1.14.4.17v.18h-2.36v-.18q.26-.04.38-.21.08-.13.08-.61v-2.04q0-.56-.05-.72l-.15-.23a.4.4 0 0 0-.23-.08q-.43 0-.8.6v2.46q0 .52.1.66.09.14.36.17v.18h-2.37v-.18q.3-.03.43-.19.08-.1.08-.63v-2.59q0-.52-.1-.65-.1-.12-.4-.16v-.19zm12.65-2.22v2.34h-.19a3 3 0 0 0-1-1.46 2.4 2.4 0 0 0-1.47-.5q-.77 0-1.26.42-.5.42-.71 1.17a5.7 5.7 0 0 0 .01 3.23q.23.72.75 1.06t1.21.34q.26 0 .5-.05l.53-.15v-1.39q0-.4-.05-.5a.5.5 0 0 0-.23-.21 1 1 0 0 0-.42-.1h-.18v-.18h3.3v.18q-.37.03-.52.1a.5.5 0 0 0-.23.26q-.04.09-.04.45v1.39a7 7 0 0 1-2.81.57 4 4 0 0 1-1.6-.26q-.64-.26-1.13-.68a3.1 3.1 0 0 1-1.11-2.46q0-1.5 1.07-2.53a3.7 3.7 0 0 1 2.7-1.04q.52 0 .91.08.22.03.72.23.48.18.58.18a.4.4 0 0 0 .26-.1 1 1 0 0 0 .21-.38zm3.04 2.07q.6 0 1.14.31.52.31.8.88.27.57.27 1.25 0 .98-.5 1.63a2 2 0 0 1-1.7.8q-1.06 0-1.62-.73a2.7 2.7 0 0 1-.57-1.68q0-.97.58-1.73.59-.72 1.6-.73m.02.35a.6.6 0 0 0-.44.2q-.18.18-.24.74t-.05 1.55q0 .53.07.98.05.35.24.53.18.19.4.19t.38-.13a1 1 0 0 0 .26-.47 11 11 0 0 0 0-3.03 1 1 0 0 0-.28-.45.5.5 0 0 0-.34-.1m4.59 4.5-1.57-3.55q-.3-.64-.45-.81a.6.6 0 0 0-.33-.17v-.19h2.48v.19q-.23 0-.32.08a.3.3 0 0 0-.12.25q0 .18.22.69l.77 1.72.61-1.49q.27-.63.27-.9a.3.3 0 0 0-.12-.25q-.1-.1-.4-.1v-.19h1.53v.19a.6.6 0 0 0-.36.16 3 3 0 0 0-.42.77L60.38 51zm6.56-2.59h-2.56q.05.9.5 1.45.34.4.83.4.3 0 .54-.16.24-.15.53-.6l.16.11q-.37.76-.84 1.08-.45.32-1.06.32-1.05 0-1.57-.79a3 3 0 0 1-.43-1.57q0-1.15.63-1.83.64-.68 1.48-.68.72 0 1.24.57.53.56.56 1.7m-1.22-.32q0-.8-.09-1.1a1 1 0 0 0-.27-.44.4.4 0 0 0-.28-.08q-.26 0-.42.24-.3.45-.3 1.2v.18zm3.32-1.81v1.04q.47-.71.82-.94.36-.24.67-.24a.6.6 0 0 1 .45.18q.17.16.17.48 0 .33-.16.5a.5.5 0 0 1-.4.2.7.7 0 0 1-.46-.17q-.18-.18-.23-.19l-.11-.03q-.15 0-.28.1a1 1 0 0 0-.3.48q-.18.48-.17 1.06v1.33q0 .28.05.35.06.14.17.2t.4.08v.17h-2.52v-.17q.3-.03.41-.17t.11-.74v-2.53q0-.4-.04-.5a.4.4 0 0 0-.15-.2 1 1 0 0 0-.33-.1v-.18zm4.1-.01v.6q.36-.38.69-.56.34-.18.7-.18a1.14 1.14 0 0 1 1.16.87q.08.3.08 1.08v1.78q0 .53.1.66.1.14.4.17v.18H73.7v-.18q.26-.04.39-.21.07-.13.07-.61v-2.04q0-.56-.04-.72a.5.5 0 0 0-.16-.23.4.4 0 0 0-.23-.08q-.44 0-.8.6v2.46q0 .52.1.66.09.14.36.17v.18h-2.36v-.18q.28-.03.42-.19.08-.1.08-.63v-2.59q0-.52-.1-.65-.1-.12-.4-.16v-.19h1.9m5.32-.01v.6q.39-.4.7-.57.34-.16.73-.17.45 0 .75.21.31.21.48.63a3 3 0 0 1 .76-.64q.37-.2.77-.2.48 0 .78.22.28.23.4.56.1.33.11 1.07v1.88q0 .53.1.66t.4.17v.18h-2.41v-.18q.3-.03.42-.22.1-.13.1-.6V47.9q0-.62-.06-.78a.4.4 0 0 0-.15-.25.4.4 0 0 0-.26-.08 1 1 0 0 0-.43.15q-.23.15-.44.47v2.46q0 .5.08.62.12.19.44.2v.18H79.1v-.18q.2 0 .31-.1a.4.4 0 0 0 .15-.2q.04-.12.04-.52V47.9q0-.63-.05-.78a.5.5 0 0 0-.42-.33 1 1 0 0 0-.36.1q-.23.15-.5.52v2.47q-.01.48.1.64.09.15.4.18v.18h-2.41v-.18q.3-.03.42-.18.08-.11.08-.64V47.3q0-.52-.1-.64-.1-.14-.4-.17v-.19h1.9zm10.13 2.13h-2.56q.04.9.5 1.45.34.4.82.4.3 0 .55-.16.24-.15.52-.6l.17.11q-.37.76-.84 1.08-.45.32-1.06.32-1.05 0-1.58-.79a2.7 2.7 0 0 1-.43-1.57q0-1.15.64-1.83.63-.68 1.48-.68.71 0 1.23.57.53.56.57 1.7m-1.23-.32q0-.8-.08-1.1a1 1 0 0 0-.27-.44.4.4 0 0 0-.28-.08q-.26 0-.43.24-.3.45-.3 1.2v.18zm3.31-1.81v.6q.36-.38.69-.56t.7-.18a1.14 1.14 0 0 1 1.16.87q.08.3.08 1.08v1.78q0 .53.1.66.1.14.4.17v.18h-2.37v-.18q.26-.04.39-.21.07-.13.07-.61v-2.04q0-.56-.04-.72l-.15-.23a.4.4 0 0 0-.24-.08q-.42 0-.8.6v2.46q0 .52.1.66t.37.17v.18h-2.37v-.18q.3-.03.42-.19.09-.1.09-.63v-2.59q0-.52-.1-.65-.1-.12-.4-.16v-.19h1.9m5.23-1.69v1.69h1.1v.48h-1.1v2.84q0 .4.03.5a.4.4 0 0 0 .14.2.3.3 0 0 0 .17.07q.33 0 .62-.49l.15.1q-.4.96-1.31.95-.45 0-.75-.24-.3-.25-.4-.54a4 4 0 0 1-.04-.9v-2.48h-.61v-.17a6 6 0 0 0 1.84-2h.16M40.26 30.94a.3.3 0 0 1-.13.12zm1.17-9.04a.24.24 0 1 0 0-.48.25.25 0 0 0-.25.24c0 .13.11.25.25.25M52.82 11.7h-8.85v7.03c0 .68.3 1.27.7 1.46l3.4 2q.14.12.32.13.16 0 .27-.1l3.46-2.03c.4-.19.7-.78.7-1.46zm-5.9 2.04h-.78v-1.8h.77zm-.57.63.11-.11-.06-.12.14.01.09-.15.08.15h.15l-.07.12.1.1-.13.03v.16l-.13-.1-.14.1v-.16zm-2.14 2.24v-1.7h.94v1.7zm.16-2.47.14.02.09-.15.08.15.14-.01-.06.12.1.11-.13.03v.15l-.13-.1-.14.1v-.15l-.14-.03.11-.1zm1.05 1.74.14.01.09-.15.08.15h.15l-.07.12.1.1-.13.03v.16l-.13-.1-.14.1v-.16l-.13-.02.1-.11zm.61-1.37q-.02-.07-.1-.06c-.08 0-.1.14-.18.14q-.09.02-.1-.06c0-.04.11-.08.15-.12-.57 0-.58.26-.67.26-.15 0 .12-.27.2-.35-.11-.02-.18-.16-.3-.23.05-.09.09-.05.16.01q-.01-.11.19-.13c.25 0 .18.24.22.24s0-.24.17-.24c.25 0 .57.64.28.64-.12 0-.02-.09-.02-.1m-.65-1.88.1-.12-.06-.12.14.02.09-.15.08.15.15-.01-.07.12.1.11-.13.03v.15l-.13-.1-.14.1v-.15zm-.23-.68v1.8h-.94v-1.8zm1.76 9.28L44.8 20q-.52-.38-.58-1.16v-1.98h2.7zm-.77-4.62v-1.7h.77v1.7zm3.5 4.76-.98.58h-.02a.4.4 0 0 1-.52 0l-.97-.57v-4.53h2.49zm0-4.76h-2.5v-4.67h2.5zm2.94 2.22c-.05.5-.23.92-.58 1.15l-2.12 1.24v-4.38h2.7v1.98m0-2.22h-2.7v-4.67h2.7z" fill="#000"/><path d="M46.77 18.46s-.34.1-.25.1c.01-.1.19-.3.27-.36-.02-.12-.16-.02-.31.06.5-.71.18-.42-.1-.37.45-.47.33-.47 0-.32.25-.2.3-.44.27-.51-.24.32-.47.27-.47.57 0 .2-.07.51-.18.62-.13.14-.03-.52-.37-.52-.11 0-.37-.01-.45.12.07 0 .17.18.17.25s.07.26-.05.26-.26-.24-.26-.36v-.25c0-.29-.47-.68-.66-.68 0 .2.26.24.26.5-.1 0-.26-.21-.26-.09 0 .13.16.15.16.26 0 .1-.19-.04-.19.08 0 .1.1.08.13.18q-.13-.03-.16.03 0 .06.08.1-.04.02-.05.26c0 .55.36.81.62.81.19 0 .16-.13.18-.19 0 .1.1-.05.1.12s-.18.1-.18.24c0 .2.28 0 .28.22 0 .26-.04.26-.04.36 0 .07.3-.1.28-.13.08.02.07.23.2.22.09 0 .1-.21.17-.23-.04.01.27.2.27.1 0-.25-.11-.15-.11-.32s.36-.13.3-.22c-.04-.07-.07-.03-.11-.15 0 .03-.29-.4.06-.19.37.24.4-.54.38-.58zm9.45 1.84c.17 0 .3-.12.3-.26 0-.13-.13-.25-.3-.25s-.29.12-.29.25c0 .14.14.25.3.25m-1.19.69c.17 0 .3-.11.3-.25s-.14-.25-.3-.25-.29.1-.29.25c0 .13.14.25.3.25m-14.01 1.59c.16 0 .29-.12.29-.25 0-.14-.13-.25-.29-.25s-.3.11-.3.25c0 .13.14.25.3.25m.91.07c.16 0 .29-.1.29-.25 0-.13-.13-.25-.3-.25s-.28.11-.28.25.13.25.29.25m25.21-12c.43.5.52 1.32.21 1.9-.17-.01-.14-.23-.17-.35-.3-.57-.55-1.28-.27-1.93.2.03.12.28.23.38m-37 .69a3 3 0 0 0 0 1.2c-.08.09-.06-.07-.14-.05-.6-.43-.32-1.27-.48-1.87q.07-.07.16-.03.39.3.46.75m38.33.05c.09.17-.08.34-.2.42q-.23.03-.4-.17c-.04-.17.06-.32.2-.4q.24-.04.4.16zm-39.27.67q-.03.22-.2.34c-.1 0-.23 0-.3-.08q-.12-.14-.05-.32c.06-.1.19-.12.3-.14.1.05.21.08.25.2m39.88.26q.03.13 0 .25-.19.21-.43.13-.14-.1-.17-.26a.5.5 0 0 1 .26-.27q.2.01.33.15m-.89.01c.13.06.04.22.03.3-.08.08-.2.2-.33.16-.08-.08-.17-.08-.2-.18q-.01-.26.22-.35c.12-.03.2.03.29.07m-1.13.24c0 .16.02.38-.18.41-.2.06-.31-.1-.36-.21a.4.4 0 0 1 .23-.37q.19.02.3.17zm-36.18.07c.05.16-.1.25-.2.32-.1.03-.24-.06-.3-.16-.11-.11.03-.2.06-.3.15-.13.38-.02.45.14m-.94.05q0 .2-.17.3c-.12.04-.24-.06-.3-.15-.08-.15.01-.29.14-.35.16-.05.27.1.33.2m33.37.06c.15.32.28.7.3 1.1-.05.29.06.67-.16.87-.22-.08-.23-.34-.37-.47-.28-.54-.03-1.17.06-1.68.12-.05.12.1.17.18m-34.09.18c.05.19-.09.28-.2.38-.18.05-.3-.09-.38-.21a.4.4 0 0 1 .2-.37.4.4 0 0 1 .38.2m36.53.44c.2.45.22.98.08 1.47l-.09.08c-.22-.42-.52-.8-.63-1.24q0-.48.18-.88c.11-.07.17.02.22.11.02.17.1.37.25.46m1.94-.27c-.02.15-.08.32-.23.37q-.25.05-.36-.19c-.04-.15.05-.29.17-.36.17-.1.34.06.42.18M30 13.56c0 .13-.12.27-.24.3-.12.09-.22-.06-.32-.11-.05-.13-.08-.23 0-.35.04-.09.15-.09.24-.13.14.08.28.14.31.3m.69-.08c.06.15-.11.22-.17.3-.2.06-.28-.08-.36-.18-.03-.16.06-.25.17-.34.19-.05.28.08.36.21m37.48-.04c-.02.2-.33.4-.36.6-.17.41-.54.71-.95.85-.1.08-.22.18-.36.2-.03-.3.25-.59.42-.86a2.3 2.3 0 0 1 1.25-.8zm-38.48.64c.23.26.36.49.64.72.02.06-.03.15-.11.15-.76-.04-1.27-.8-1.64-1.34.05-.16.25-.03.36-.05.26.2.55.27.75.53m38.7.21a2 2 0 0 1-.96 1.65c-.17.06-.35.23-.52.12.32-.66.81-1.2 1.36-1.77zm-2.97.44c.05.23-.07.37-.26.45-.16.01-.27-.13-.35-.25a.3.3 0 0 1 .22-.34q.08-.05.18-.04c.1.03.14.1.22.18m-36.59.14c.3.2.56.47.84.72-.2.13-.45.01-.68.01-.53-.18-.88-.63-1.42-.77.02-.17.22-.11.32-.16.34-.03.62.13.95.2" fill="#000"/><path d="M45.38 10.35c-.86-.34-1.44.56-2.31.45-.11.06-.08.16-.14.24q-.1.06-.17-.02c-.05-.36-.17-.7-.22-1.05-.1-.16-.05-.37-.12-.53-.5-1.33 1.2-.32 1.55-1.1.3-.66-.58-.74-.84-1.22v-.2c-.25-.24-.5-.31-.66-.63.1-.38.15-.8.05-1.18-.02-.09-.08-.21-.22-.17-.3.4-.51.72-.79 1.1-.3-.21-.57-.48-.91-.67-.23-.03-.45-.26-.72-.17q-.04.14.05.24c.02.59.33 1.07.76 1.5l.05.22c-.28.63-.2 1.35-.28 2.02a11 11 0 0 1-3.36 4.63c-.88.98-1.93 1.93-2.07 3.28-.05.21.03.47-.14.63a5 5 0 0 1-1.44-.75c-.71-.49-1.73-.43-2.2-1.31-.18-.36.05-.7.22-.97.53-.48.45-1.36.17-1.95-.06-.02-.08.06-.12.08-.05.9-.77 1.52-.5 2.52.07.3.22.48.3.75-.11-.03-.26-.03-.36-.08-.34-.05-.68-.18-1.03-.14-.72.33-1.69-.07-2.26.57-.1.02-.22.03-.19.17.34 0 .67.08 1 .07.54.1.9-.35 1.28-.55h.09c.15-.15.41-.06.61-.09.98.1 1.73.57 2.54 1.04v.06c-.31.14-.67.23-.98.4-.35.26-.75.6-.86 1.02-.25.38.08.72.23 1.04.01.16.03.34.17.4.5-.52.03-1.16.1-1.76.13-.45.56-.67 1.01-.8.88-.36 1.52.35 2.23.74-.02.7.07 1.38-.08 2.06-.22.08-.5.13-.73.11-1.22.1-2.18.75-3.28 1.12-.5.16-1.08.15-1.57.34.38.1.78-.03 1.19-.05 1.5-.21 2.67-1.36 4.3-1.16l.04.04q-.28.56-.73 1c-.04-.17-.06-.31-.21-.4q-.2-.08-.36.12-.07.13 0 .23c.08.14.2.17.34.22-.03.13-.2.2-.3.32-.43.72-1.31.42-1.82.93-.08.1-.36.17-.23.34a2.4 2.4 0 0 0 1.59-.4l1.74-1.82c.1.49-.05 1-.34 1.4-.13-.08-.24-.2-.41-.24-.15.03-.26.18-.28.3q.08.18.23.31c-.53.36-1.2.4-1.8.57q-1.66.21-3.36.24c-.54-.03-1.16.15-1.67 0-.58.1-1.22-.08-1.7.24-.06.08.02.16.02.23.7.46 1.68.1 2.49.24h6.09c.44-.02.89-.03 1.25-.24.78-.44 1.22-1.24 1.62-2.01q.23-.43.32-.92c.16-.51.64-.88 1.17-.93.07.8-.08 1.6-.27 2.32-.1.49-.42.96-.22 1.49.05.24.31.24.51.27 1.87-.03 3.74-.1 5.72.03.36.06.66.16 1.05.15.03-.04.14-.06.1-.15-.06-.17-.18-.38-.38-.43-.03-.09-.17-.06-.21-.12-.99-.56-2.18-.27-3.34-.25-.6.06-1.2.17-1.72-.16-.23-.28-.06-1.15-.06-1.15 0-.34.85-2.75.96-2.95.03-.23.12-.45.1-.7.11-.31.08-.7.08-1.04.06-.49.31-.94.48-1.42l.27-.7c.09-.3.12-.56.3-.8.5.32 1 .3 1.24.87l.22 1.27c0 .08.06.23.17.14.4-.26.27-.84.27-1.24.1-.47-.24-.7-.38-1.11a2 2 0 0 1-.29-.44c-.06-.34-.8-.57-.64-.98.1-.35.19-.67.53-.87q.07.05.08.1l.18-.12.02-1.28c.5 0 1.25.06 1.76.06.14.05.25.15.4.17l.12-.17 1.25-.24c-.53.06-.85-.54-1.36-.54zm1.36.55.12-.02z" fill="#000"/><path d="M33.28 15.16c.02.18-.09.29-.23.35-.12-.05-.22-.06-.29-.19-.06-.16.1-.29.22-.35.12.03.28.05.3.19m-1 0c.09.09.1.24.06.35-.11.09-.28.16-.37.04-.1-.09-.19-.2-.1-.32.1-.1.29-.2.4-.07m21.53.16v.03zm11.77.26c.06.17-.08.29-.2.35-.16-.05-.36-.08-.36-.27q.05-.19.23-.24c.14-.04.26.06.33.16m.82-.03c.05.08.16.2.03.27-.06.05-.11.06-.16.13-.17.03-.33-.03-.37-.19s.11-.24.23-.32c.11-.03.19.05.26.1m-37.98.19q-.1.29-.42.2l-.12-.2q.01-.17.17-.26.3.02.37.26m5.2.27c-.01.12-.15.23-.25.28-.16.02-.27-.1-.34-.2 0-.13.06-.28.19-.31.17-.06.35.06.41.23m-.91-.11c.04.04.09.16.04.24-.09.08-.23.21-.38.12-.1-.07-.2-.13-.17-.29.06-.06.14-.15.23-.18.12-.03.18.05.28.1m36.05.19c0 .13-.12.24-.2.3a.3.3 0 0 1-.34-.09c-.09-.03-.06-.15-.06-.23q.14-.14.3-.2.19.07.3.22m.99.13c-.05.14-.15.27-.3.28-.09-.02-.26-.05-.23-.18q.01-.18.14-.25c.16-.07.34 0 .39.16m-39.58.21q.05.27-.19.37c-.1.06-.21-.02-.29-.08-.07-.08-.14-.2-.07-.3.03-.14.16-.11.25-.17a.4.4 0 0 1 .3.18m.76.14c.05.12-.1.16-.12.26-.08.05-.2.09-.28.03-.11-.1-.23-.23-.12-.37.12-.23.44-.1.52.08m36.92-.08c.02.15-.12.26-.22.35a.26.26 0 0 1-.3-.18q-.02-.19.16-.3c.14-.01.28 0 .36.13m1.26.25c-.03.14-.02.3-.17.38q-.2.05-.37-.06-.13-.14-.06-.32c.08-.12.22-.21.37-.18.11.06.14.13.23.18m-39.52.32c.06.12-.08.15-.13.21-.1.06-.21.02-.3-.03-.11-.06-.06-.2-.05-.29.14-.26.41-.07.47.11m38.56.29c.06.01.03.1.02.13-.37.19-.93.23-1.25-.06-.2-.15-.42-.21-.62-.34.08-.2.36-.18.56-.23.44.06.8.48 1.3.49zm-37.81-.14c.03.12-.06.17-.1.26s-.18.06-.25.03c-.14-.09-.2-.26-.11-.38.17-.17.37-.08.46.09m1.36.1c.06.13-.03.26-.15.33-.11.06-.2-.03-.3-.05-.08-.1-.22-.23-.08-.35.14-.23.42-.1.53.06m17.86.65c-.03.3-.54-.04-.47.36.07.3.13.64.3.86.15.2.08.52.07.76q-.21.32-.59.5c-.44-.04-1.09.22-1.3-.32-.08-.24-.24-.47-.24-.73l.15-.07c0-.1-.12-.16-.1-.26.5-.09-.21-.52.21-.55.35.36.93.25 1.23.64q.11.11.22.19c-.06-.36-.23-.73-.3-1.12q-.05-.32.18-.5c.27-.21.48.08.63.24zm-16.5-.09c.05.15-.08.24-.17.32-.14.06-.22-.1-.28-.17-.05-.15.06-.23.16-.3.1 0 .23.05.3.15zm9.53.15c.19.59.12 1.2-.19 1.7-.01.13.03.33-.14.31-.41-.56-.1-1.36.06-1.96.03-.15.22-.21.26-.06m13.24.3c.22.42.23.99.03 1.41l-.12.13q-.26-.52-.36-1.09c.08-.27.17-.52.19-.8.22-.05.2.23.26.35m-21.56.16c-.09.19-.35.23-.52.35-.37.28-.92.34-1.38.26a1.7 1.7 0 0 1 1.76-.72c.03.06.11.03.14.11M27.9 19c.57.4.72.95 1.06 1.5.05.06.2.08.14.2-.13.09-.25-.1-.42-.06-.59-.26-.96-.9-.94-1.58 0-.06.09-.06.15-.06m27.31.48c.01.15-.02.3-.14.35a.3.3 0 0 1-.36-.18c-.05-.11.05-.17.08-.25.12-.12.34-.06.42.08" fill="#000"/><path d="M61.72 20.29c0-.3.08-.57.1-.85a.5.5 0 0 0 .07-.32c.37-.48 1.13-.34 1.72-.29.23.13.52.1.77.17.1-.08.26-.1.39-.08.5-.26.17-.82.2-1.27l-.2-.46-.11-.3c-.1-.1-.16-.3-.25-.42-.27-.67-.77-1.05-1.2-1.59a6.7 6.7 0 0 0-3.26-1.97c-1.22-.41-2.46.13-3.56.5-.34-.08-.5-.34-.6-.63q-.08-.9.3-1.63c.04-.38.3-.67.41-1.02.28-.86.57-1.7.64-2.63.03-.57-.4-.96-.84-1.2-.3-.09-.63-.07-.85.16-.2.41-.64.69-1 .88-.03.26.3.1.4.19.33.06.72-.05 1 .16.03.61-.33 1.12-.65 1.58-.52.76-1.08 1.54-1.4 2.38l-.07-.06.07 3.74c.5.8 1.11 1.72 2.03 2.02.5.4 1.11.88 1.78.53.35-.11.38.38.55.58.2.56-.23.96-.26 1.48l-.4.85c-.47.88-.88 1.83-1.6 2.58-.22 0-.36.24-.6.26-.12.17-.36.05-.52.1-.48.2-1.16.08-1.48.53q.05.06.12.08c.94 0 2 .07 3 .03.12-.05.23-.16.24-.3-.13-.26.05-.48.17-.68.08-.37.33-.6.44-.95q.51-.94 1.05-1.87l.48-.76c.1-.27.3-.59.48-.86.12-.12.18-.26.28-.42.01-.15-.07-.2-.16-.32.1-.1.28-.07.42-.1.38.23.78.6.86 1l.14.4.06.19-.03.5.06.48c.08.73-.06 1.48-.14 2.21-.26.89-1.3.8-2.04 1-.18.12-.54.05-.54.36.9.19 1.95.08 2.9.06.16-.06.2-.2.27-.34.03-.2.23-.36.17-.58-.17-.21-.02-.55-.06-.84a.5.5 0 0 0 0-.29c.12-.44.09-.98.18-1.4l.06-.59zm7.6-.59c-.5.68-1.02 1.46-1.89 1.7-.06 0-.12.03-.15-.04.52-.56.8-1.41 1.62-1.6.12-.07.3-.13.41-.07zm-42.19.74c-.08.06-.02.2-.15.21-.13.06-.27-.01-.33-.13-.06-.16.08-.3.2-.34.12.06.25.1.28.26m4.45.21c.05.14-.1.14-.18.17a1.7 1.7 0 0 1-1.78-.44q-.01-.1.06-.14c.63.15 1.37.03 1.9.41m-3.6-.19q.05.1.03.23-.15.2-.38.14a1 1 0 0 1-.2-.2c.02-.15.14-.24.26-.29a.5.5 0 0 1 .3.12m14.47.08c.03.13-.09.23-.19.29a.3.3 0 0 1-.32-.13c-.05-.1 0-.26.1-.29.14-.03.36-.01.4.13zm27.44.06c.06.15-.08.23-.2.32q-.14.04-.29-.05c-.02-.08-.1-.14-.08-.25q.1-.2.36-.18c.08.06.14.08.22.16m1.02-.06c.09.13.01.24-.06.35a.2.2 0 0 1-.28.09c-.09-.1-.22-.14-.23-.28 0-.12.14-.21.23-.26.16-.06.22.09.34.09m-44.44.45c.01.1-.08.16-.11.26-.08.03-.16.09-.25.06a.4.4 0 0 1-.23-.25.4.4 0 0 1 .28-.3c.12.03.26.09.3.23" fill="#000"/><path d="M59.03 20.97q.03.1.02.2c-.1.13-.22.23-.37.16-.1-.1-.2-.19-.15-.33.12-.16.38-.23.5-.03m-30.06.23c-.03.11-.08.22-.22.24s-.18-.1-.26-.17c0-.13-.02-.27.12-.35.2-.06.36.1.36.3zm-1.48.04c.05.15-.06.26-.16.33-.19.06-.34-.07-.42-.2a.5.5 0 0 1 .28-.36c.14 0 .22.15.3.23m32.56-.04c.03.16-.01.32-.17.37-.19.06-.34-.08-.42-.2.08-.13.1-.3.28-.33q.2 0 .31.17m-31.84.06c.05.1-.04.15-.07.23-.08 0-.13.09-.22.06-.06-.08-.19-.11-.2-.22-.02-.15.09-.23.2-.29.15-.02.25.1.3.22m40.84.13q-.08.16-.26.23c-.12.03-.2-.07-.29-.12-.08-.06-.05-.2-.02-.27.16-.26.58-.14.58.15m1.16.06c-.04.17-.21.24-.37.26-.13-.06-.3-.16-.18-.35.06-.06.09-.12.18-.14.2-.05.33.08.37.24zm-7.33.11c.07.2-.12.26-.24.35a1 1 0 0 1-.3-.13.36.36 0 0 1 .22-.4q.2 0 .31.17m-4.25.19c.08.03.05.14.03.19-.09.05-.22.2-.35.12-.11-.06-.2-.15-.16-.3.08-.16.4-.18.48 0m.86.1q.04.16-.11.24c-.11.1-.23-.02-.34-.05q-.06-.1-.02-.23.08-.09.2-.12c.1.03.23.03.28.15m-26.23.02c.1.09-.02.2-.03.3-.08.08-.25.16-.39.07-.15-.06-.13-.26-.1-.38.09-.03.09-.14.21-.14q.2.03.31.16zm31.26.07c.03.15-.12.2-.23.24-.18.06-.27-.08-.35-.2 0-.1.09-.16.12-.23.22-.09.35.06.46.19m-.84 0c.07.15-.1.23-.16.3a.3.3 0 0 1-.34-.06q-.1-.09-.08-.23c.1-.08.14-.17.25-.2a.4.4 0 0 1 .34.19m6.97.17c.03.22-.25.12-.36.18-.64.38-1.48.08-2.1-.14.05-.2.28-.13.4-.2.67-.41 1.35.1 2.01.12zm-42.3-.17-.06.1c-.57.34-1.3.57-2 .35l-.05-.09c.57-.4 1.33-.51 2.07-.4zm37.74.1q0 .2-.16.3c-.15.04-.35 0-.4-.17-.04-.13.08-.25.2-.3.11 0 .3.02.36.17m-34.97.07c-.06.12-.03.23-.18.3-.16.05-.34-.08-.4-.2-.04-.17.09-.22.16-.3.19-.08.33.05.42.2m-1.1.07c.05.1-.05.16-.08.24-.07.1-.21.08-.3.05-.11-.09-.22-.2-.17-.37a1 1 0 0 1 .24-.17c.14.03.28.1.31.25m37.15.35a.3.3 0 0 1-.24.27c-.12.02-.23-.08-.3-.15a.24.24 0 0 1 .06-.3c.03-.04.14-.04.2-.07.14.01.25.12.28.24m-38.29-.16c.05.13-.06.17-.08.26-.05.27-.22.43-.34.66-.3.35-.71.35-1.13.46l-.06-.12a4 4 0 0 1 1.56-1.29zm37.52.35c.03.18-.12.2-.23.28a.4.4 0 0 1-.3-.18c-.06-.17.1-.23.2-.31a.3.3 0 0 1 .33.2m-35.74.01q-.01.04.05.07c-.02.17-.14.21-.23.29a.4.4 0 0 1-.34-.16c-.06-.13 0-.3.15-.35.14-.01.33 0 .37.14m38.58.46c.16-.02.19-.2.36-.23s.29.06.37.16c.06.19-.08.28-.2.35-.11.08-.34-.09-.33.11q.18.12.22.3c-.03.06-.14.05-.19.02-.45-.18-.92-.49-1.11-.95-.06-.14-.36-.24-.19-.37.45-.03.82.32 1.07.6m1.49-.47c.08.08.05.22-.01.3-.08.15-.31.08-.45.07-.08-.08-.15-.15-.12-.27a.5.5 0 0 1 .23-.2q.2-.02.36.1zm-5.61.83c.14.16.28.43.34.61-.03.05-.11.03-.14.03-.53-.3-1.2-.61-1.41-1.22-.05-.06-.17-.14-.16-.25.4-.07.79.22 1.07.43.1.16.23.23.3.4m-35.33-.58c.06.13-.06.24-.14.3q-.23.03-.35-.12c-.11-.17.09-.3.21-.37.13-.02.2.1.28.18m37.26.36c.02.09-.1.15-.15.21-.12.01-.25.06-.36-.05-.03-.07-.11-.2-.02-.27.17-.21.42-.05.53.1m3.85.22c.05.18-.1.3-.22.38-.15.05-.28-.06-.37-.14s-.01-.18 0-.29c.11-.09.25-.16.4-.1q.1.05.2.15zm-10.7 2.12c0 .18-.34.13-.48.27-.47.24-1.05.24-1.62.23V26a2.3 2.3 0 0 1 2.1-.42m-22.54.67q-.03.19-.23.26a.3.3 0 0 1-.27-.16c-.06-.18.1-.26.2-.33.14.01.26.12.3.23m22.28.16c-.03.14-.08.3-.23.35-.14.03-.23-.04-.34-.1-.07-.06-.03-.17-.04-.25.1-.27.5-.27.61 0m3.08.07c-.39.24-.82.53-1.33.53l-.83-.01-.08-.06c.5-.62 1.44-.62 2.24-.56zm-29.59.36q0 .21-.2.3-.24.02-.33-.14-.08-.23.12-.35c.17-.11.34.07.4.2m.78.15c.04.07-.04.12-.07.2-.09.04-.21.07-.3 0q-.15-.11-.08-.27c.05-.09.14-.08.19-.14q.17.06.26.2m-5.92 1.55c-.16.18-.4-.05-.57-.14-.54-.3-.53-.9-1.07-1.25.06-.18.2.01.31-.02q.16.1.33.17c.52.29.64.78 1 1.24" fill="#000"/><path d="M73.35 22.61c-.24-.44-.66-.63-1.16-.63-.4.03-.7.3-.86.63-.1.34.03.64.3.85.1.04.24.03.3-.08.08-.2-.14-.2-.17-.35q-.07-.32.17-.53c.15-.16.42-.08.6-.08.2.12.38.23.47.44.1.26.1.56 0 .81-.17.38-.55.69-.95.77-1.28.18-15.36.12-15.36.12-1.65.16-3.54-.3-4.96.55-.65.3-.97 1.01-1.14 1.64-.42.36-.87.8-1.2 1.2l-.05-.05c.07-.36.24-.68.32-1.05.23-.3.23-.72.4-1.06.6-.93 1.15-1.88 2.06-2.53.4-.51 1.07-.42 1.65-.42q.98.43 2.15.3a.1.1 0 0 0 .05-.1c-.22-.2-.58-.27-.82-.47-.61-.3-1.2.09-1.85.04q-.06-.03-.05-.09a9 9 0 0 1 1.92-1c.53-.3 1.1-.45 1.68-.66.23 0 .44-.2.66-.06l.82-.22q.04.05.12.05c.7-.23 1.58-.02 2.36-.03l.11.09.75.18c.27.03.4.35.7.37.15-.21-.18-.3-.26-.44.34-.08.73.01 1.04.15l-.15.17c-.1.16.04.29.18.35.11.03.2-.05.26-.08.2-.14-.02-.27.05-.4q1.71.28 3.3.92c.28.1.56.3.89.3-.33-.3-.78-.45-1.18-.62-.26-.15-.63-.16-.83-.38.05-.07.16-.05.2-.1.52-.06.97-.45 1.34-.86.03-.09.2-.06.19-.18-.14-.16-.37.04-.56.03-.65.12-.92.87-1.58 1q-1.18-.26-2.38-.56c-.39-.06-.8-.09-1.16-.24l-.86-.08h-1.58q-.05-.04-.05-.09c.55-.13 1.03-.46 1.59-.6l4.14-1.86q.65-.57 1.17-1.25a.3.3 0 0 0-.17-.29.24.24 0 0 0-.3.06c-.2.14 0 .3 0 .47-.2.25-.48.46-.71.6-.06-.02-4.26 1.88-4.26 1.88-.62.26-1.24.55-1.9.69l-.89.14q-.1.26-.38.35c-.25.04-.45.2-.72.2-2 .76-4.09 1.57-5.68 3.13q.14-.28.15-.64c-.03-.23-.01-.49-.17-.67-.03-.08-.15-.33-.11-.42l-.23.14c-.14.33-.26.95-.12 1.3.04.28.27.6.06.84-.75.89-1.16 1.96-1.65 2.97-.2-.03-.28-.2-.36-.37.53-.66.94-1.39 1.1-2.23.1-.08.03-.28.14-.37-.03-.24.14-.49.02-.69.1-.33-.46-.64-.1-.85l-.3.13c-.66.86.35 2.14-.4 2.96v.06c-.23.28-.33.56-.62.74-.37-.15-.51-.56-.73-.87-.34-.32-.34-.98-.14-1.42.14-.45-.09-.83-.14-1.22l-.16-.1a1.8 1.8 0 0 0-.21 1.8c.15.27.17.65.4.88.14.44.41.73.66 1.13.06.15-.09.18-.17.26-.17-.1-.14-.35-.3-.46a11 11 0 0 0-1.97-2.8c-.03-.13-.17-.26-.1-.41.3-.27.36-.8.2-1.17-.03-.07-.12-.16-.1-.24l-.24-.18c.03.53-.32 1-.17 1.57v.03a30 30 0 0 0-5.14-3.05l-.15.38c.46.12 1.66.84 1.66.84.54.2 1.03.52 1.54.8 2.1 1.15 3.5 3.04 4.43 5.16.02.16.17.35.06.52-.32-.5-.78-.77-1.17-1.16a2.2 2.2 0 0 0-1.17-1.7c-.23-.34-.73-.37-1.11-.48l-5.63-.03c-4.57-.06-8.74.14-13.29.06-.63-.06-1.4-.27-1.59-.93a1 1 0 0 1 0-.84c.17-.3.48-.38.79-.42.24.03.41.26.52.43 0 .2-.17.38-.25.55.02.06.08.18.2.14a.7.7 0 0 0 .4-.49c0-.1.05-.26-.06-.34-.09-.32-.43-.55-.72-.63-.39-.03-.79.08-1.06.35-.36.31-.35.86-.24 1.29.24.67.97 1.13 1.67 1.22l15.03.06c1.47.08 3.12-.17 4.6.12.54.17 1.12.57 1.26 1.17q-.03.03-.11.01a6.8 6.8 0 0 0-4.4-.88c-.6-.03-1.16.2-1.72.35a.9.9 0 0 1-.76-.24c-.55-.5-1.53-.46-2.23-.28q-.02.07.01.1c.76-.06 1.2.59 1.9.66.15.03.27-.13.4-.01-.7.33-1.38.73-2.14.95-.23-.05-.36-.27-.54-.38-.3-.33-.83-.19-1.23-.22-.14.03-.26-.06-.36 0 .12.25.4.39.67.5.39.17.83-.01 1.19.22-.1.1-.22.14-.33.21-.72.28-1.33.92-2.13.88a2.8 2.8 0 0 1-2.29-.74c-.25-.6-.88-.91-1.56-.88-.05.03-.1.03-.09.1.34.2.6.6.95.83.21.26.63 0 .83.29.3.2.66.37 1 .43q.39.14.8.21l-.1.06c-1.4.46-3.03.5-4.6.44-.47-.01-.92-.15-1.38-.13q.14.13.37.21a1 1 0 0 1-.42.13c-.19.04-.4.06-.59.15-.24-.02-.46.08-.66.16-.26.27-.58.56-.88.7 0 .06-.02.15.06.15.3-.12.66-.03.95-.15.51-.05.8-.6 1.2-.83.43-.33 1.06-.26 1.58-.18.31.07-.03.2.06.4.12.1.23.23.4.18q.05-.05.12-.08.12-.19.02-.38c.21-.14.5.02.74-.08.59-.01 1.17-.13 1.75-.15.09-.02.2-.1.3-.02-.05.13-.2.14-.15.3.03.14.2.2.31.24.16-.06.3-.17.23-.37-.03-.1-.15-.13-.23-.17.33-.15.7-.2 1.02-.35q.35-.08.65-.21c.2-.02.37-.2.56-.13q-.12.39-.33.74c-.25.8-.43 1.88 0 2.66.05.02.06-.02.1-.03-.33-.8-.15-1.75.13-2.5.22-1.3 1.58-1.69 2.55-2.18l.05.06c-.26.67-.65 1.31-.59 2.13.03.13-.06.27 0 .36.26-.13.44-.44.58-.7.1-.69-.3-1.54.42-2.04 1.27-.5 2.45-1.13 3.92-1.15.05.05.16-.03.17.06-.3.34-.76.66-.9 1.07-.5.67-.47 1.81-.25 2.64.13.47-.28.74-.48 1.1-.1.13-.12.35-.21.5l.3.03c.26-.27.5-.6.52-1 .03.15.17.27.3.3.1-.16-.09-.29-.1-.46.24-.13.35.17.55.24.32.07.6.21.94.21l.11-.1c-.34-.53-1.02-.62-1.6-.65-.32-.5-.32-1.13-.29-1.74.06-.32.13-.66.31-.95.08-.21.3-.4.44-.58q.44-.4.97-.52h.05l.02.04c-.42.33-.47.77-.72 1.16-.26.39-.38.9-.14 1.33.1.2.05.5.26.64.2-.27.22-.62.33-.93-.05-.5-.36-.98-.06-1.46.16-.38.48-.54.84-.68.85-.07 1.59.35 2.33.68.16.1.42.2.45.41a1.3 1.3 0 0 1-.58 1.03c-.41.24-1.02.27-1.4-.02a1 1 0 0 1-.25-.93c.16-.19.4-.34.67-.25.16.08.3.24.5.14.08-.05.1-.16.06-.24-.17-.1-.23-.32-.47-.35-.3-.05-.64-.03-.85.16-.33.28-.45.7-.36 1.07.11.49.48.84.96.98.71.17 1.45-.05 1.9-.64.19-.2.23-.41.34-.66.74.45 1.3 1.23 1.59 2.02 0 .26.08.54.02.77l.53.04c-.05-.12 0-.26.05-.36.2-1.01.84-1.86 1.6-2.51.26-.15.2.2.26.3.23.59.77 1 1.34 1.17.65.1 1.27-.05 1.67-.54.2-.37.45-.9.1-1.28q-.32-.4-.84-.4c-.4 0-.65.28-.84.57 0 .12-.02.26.09.32.06 0 .18.01.23-.08.03-.23.23-.34.41-.46.17-.09.36 0 .5.1.17.13.2.36.22.59a.9.9 0 0 1-.51.71c-.45.24-1.1.13-1.48-.13-.19-.2-.3-.43-.44-.67-.03-.25-.12-.46 0-.7.68-.4 1.4-.7 2.2-.77.34.06.61.27.83.5.7.72-.16 1.75.33 2.54.2-.03.2-.27.27-.43.23-.55-.06-1.14-.2-1.68-.19-.34-.29-.62-.59-.9.08-.03.11-.03.2-.03.32.21.67.46.93.8.45.71.69 1.57.6 2.5-.11.46-.6.67-1 .84-.15.12-.33.3-.41.49.19.1.45 0 .63-.08.3-.1.47-.48.67-.64q.03.03.03.09c.02.16-.08.4.08.44.08-.21.09-.52.14-.78.2.22.23.49.3.77.13.27.36.64.74.69.09-.14-.02-.28-.05-.4-.05-.38-.37-.58-.59-.85-.54-.74-.3-1.88-.71-2.7-.15-.45-.48-.77-.84-1.14l.06-.06c.76-.02 1.4.23 2.09.37.85.41 2.09.32 2.5 1.4q.23.93.87 1.66l.05-.03c.1-.16.1-.42 0-.57-.09-.76-.77-.95-1.13-1.59l.05-.06q.56.14 1.13.35a3.3 3.3 0 0 1 2.26 2.77 6 6 0 0 1-.58 2.61c-.05.13-.26.26-.13.37.17-.13.2-.32.3-.46.5-.83.77-2 .5-3.07 0-.2-.24-.35-.13-.55.08.09.17.1.26.14.1-.06.23-.06.3-.17 0-.09.07-.2 0-.27-.1-.14-.3-.14-.45-.1a1 1 0 0 0-.19.32c-.15-.26-.3-.59-.55-.8l.03-.05c.7.23 1.33.56 2.03.75q.23.15.54.16c.6.23 1.27.32 1.9.48.47-.05.85.16 1.31.06v-.03l-.02.02c-.17-.22-.53-.02-.74-.17-1.06-.1-2.09-.39-3.04-.75.02-.05.08-.03.12-.03q.25-.12.25-.38a.4.4 0 0 0-.36-.17c-.09.05-.22.16-.23.27.02.12.12.26.23.29q-.06.03-.14.01-.71-.3-1.4-.62c-.18-.03-.32-.17-.48-.2q-.54-.26-1.07-.48c-.98-.5-2.09-.77-3.14-1.14l-.66-.19-1.16-.3c-1.32-.32-3.08-.35-4.22.35-.2-.06-.3.23-.4.04.34-.84 1.28-1.11 2.13-1.14 6.2-.06 12-.1 18.1-.2.72 0 1.41-.25 1.78-.88.26-.37.31-.99.11-1.4zM48.8 28.25c-.06.19-.2.34-.17.54l-.06.03c.04-.23-.2-.37-.12-.61-.13-.19-.13-.41-.23-.61-.14-.25.12-.36.23-.53.21.1.3.3.44.48.1.26-.1.46-.09.7" fill="#000"/><path d="M65.55 27.29c0 .04.09.06.06.13-.54.48-1.3.61-2.07.64q-.08.05-.2.05-.08-.06-.03-.1c.56-.6 1.4-.9 2.24-.72m-2.49.24c.06.21-.08.34-.25.42q-.24-.05-.33-.25c-.05-.12.06-.18.1-.26.13-.12.42-.12.48.09m-29.37.04c.03.1.02.24-.08.32-.06.07-.2.09-.28.07-.1-.01-.17-.13-.2-.23q.01-.18.2-.29c.12 0 .26-.02.36.13m-2.77.99v.1q-.57.11-1-.23c-.22-.3-.47-.6-.82-.76 0-.05-.1-.11 0-.14.77 0 1.24.61 1.82 1.02m36.98-1c-.36.52-.67 1.16-1.3 1.39-.1 0-.2.15-.3.04.25-.58.78-1.2 1.38-1.45q.1-.02.22.02m-33.32.18c.01.17-.1.2-.22.3-.12.01-.18-.08-.26-.17-.06-.16.08-.22.16-.3.12-.02.27.07.33.17m35.26.09c-.14.2-.08.49-.22.7-.3.35-.58.75-1.07.83-.07-.16.11-.3.2-.45.21-.46.52-.98 1.01-1.17zm-43.72.14c.05.1.09.21 0 .34q-.16.11-.36.06c-.14-.08-.19-.25-.12-.37.1-.13.37-.21.48-.03m-.88.18c.01.08.06.14.05.22-.05.07-.12.17-.22.18q-.25.03-.35-.2-.03-.22.15-.32a.3.3 0 0 1 .37.12m1.82.1c.03.12.06.34-.12.36-.22.1-.34-.05-.47-.18q.01-.21.2-.3.23-.05.4.12m2.52.19c-.01.11.02.26-.1.3-.08.07-.22.04-.3.02-.03-.09-.2-.16-.1-.27l.2-.17c.1.05.24 0 .3.13m41.73.1c-.05.1-.11.24-.23.24-.14-.01-.28-.03-.36-.17-.06-.17.08-.26.2-.3.16 0 .36.06.39.23m-2.83.08c.02.12-.12.21-.18.26-.22.09-.4-.06-.48-.23a.4.4 0 0 1 .27-.28c.2-.01.3.1.4.25m1.91-.03q-.02.17-.14.26c-.12.05-.28.03-.37-.06-.14-.13-.03-.23.06-.32.14-.08.4-.06.45.12m-44.69.26c.03.16-.03.32-.19.38-.14 0-.29-.08-.34-.22-.02-.13.03-.27.16-.32.15-.04.28.05.37.16m42 .16q.06.28-.22.4c-.12.03-.2-.03-.3-.1-.05-.08-.13-.25 0-.32.12-.24.42-.14.52.02m-33.69.17c.06.17-.12.2-.17.3-.06.02-.18.04-.23-.03-.07-.09-.16-.18-.12-.32.08-.06.11-.12.2-.15.17-.05.23.1.33.2m37 .11c.03.1-.06.15-.08.23-.09.08-.25.09-.36.06-.13-.08-.13-.2-.13-.34.09-.06.1-.14.21-.17.14 0 .31.06.36.22m-.95.05c.06.18-.11.27-.23.32-.07 0-.16-.03-.17.06.4.2.64.52.95.8v.13a2.2 2.2 0 0 1-1.53-.58c-.1-.08-.29-.08-.42-.19.2-.2.57-.12.85-.14.2-.2-.23-.36.03-.55.1-.02.15-.1.28-.07q.14.07.23.2zm-6.32.01c.03.08-.06.17-.08.25q-.16.13-.34.06c-.08-.11-.2-.2-.16-.35.13-.24.53-.19.58.04m-34.56.54q-.05.2-.26.24-.2-.01-.28-.18c-.02-.11.06-.17.08-.25.17-.13.48-.04.46.19m1.25-.2c0 .2-.23.33-.3.55-.24.5-.66.96-1.24 1-.06-.13.2-.3.26-.44.25-.52.74-.8 1.19-1.11zm32.93.21c.01.17-.14.29-.27.35s-.24-.06-.32-.13c-.12-.12-.05-.24.02-.36.18-.19.44-.03.57.13m.96.11a.4.4 0 0 1-.28.34c-.03-.04-.1-.01-.15-.02-.1-.06-.2-.16-.2-.28.08-.08.11-.2.22-.21.14-.02.37 0 .42.18M32.86 30c.02.16-.1.26-.23.32q-.2 0-.3-.19c-.02-.14.12-.23.2-.3.18-.06.23.08.33.16m1.07.06a.4.4 0 0 1-.3.27c-.1-.03-.22-.06-.27-.19-.01-.15.1-.23.22-.3.16 0 .32.06.35.23m33.75 1.06c.08.06.22.14.19.25-.25.1-.45-.17-.68-.22a3 3 0 0 1-.8-1.22c.14-.14.3.03.42.08a3 3 0 0 1 .88 1.11m.57-1.07q.06.18-.03.34c-.1.16-.3.13-.43.1-.08-.1-.22-.22-.12-.36.04-.12.18-.15.3-.2.1-.01.18.08.28.13m-32.9.39c.01.13.04.31-.11.38-.14.03-.33-.01-.37-.18-.08-.19.09-.22.19-.31.12-.03.2.03.29.1zm28.95.99c.22.3.37.7.4 1.09-.05.1.08.21-.02.3h-.06c-.7-.5-.85-1.18-1.1-1.87q-.1-.06-.07-.16c.15-.13.26.14.42.19zm-26.95-.51q0 .02.02.03c-.62.42-1.48.68-2.2.27-.01-.05.02-.13.09-.14.44-.13.88-.35 1.36-.29zm-3.52.07c-.53.32-1 .95-1.65 1.1-.12.05-.2.22-.36.13.28-.83 1.2-1.27 2-1.35zm29.56.69c.05.12 0 .29-.12.32-.08.07-.23.07-.3 0-.14-.06-.14-.2-.14-.3.05-.11.16-.13.23-.17.14.03.25.03.33.15m-1.28.07c-.1.22-.36.34-.56.4-.52.19-1-.06-1.47-.18.02-.13.17-.08.25-.16.5-.1 1.04-.21 1.58-.07.05-.03.16-.05.2.01m-28.28.44c-.05.07-.06.2-.19.25-.1.05-.22 0-.3-.06-.04-.09-.15-.16-.07-.27.03-.1.16-.14.25-.17q.25.03.3.27zm.91.15c-.05.08-.09.23-.22.29q-.17.03-.3-.11c-.05-.09-.1-.2-.05-.3.03-.08.14-.1.21-.14.16-.02.3.14.36.26m28.36.15c.02.12-.05.2-.1.3-.09.1-.24.11-.35.05-.1-.02-.14-.14-.18-.21-.1-.13.06-.2.1-.3a.34.34 0 0 1 .53.16m.68-.03c.02.08.06.15.03.21-.1.08-.16.28-.34.2-.1.03-.14-.09-.19-.12-.06-.16-.01-.38.19-.42.14-.05.23.08.3.12zm-29.59.44a.4.4 0 0 1-.16.42c-.17.03-.39.03-.45-.17-.02-.16 0-.35.19-.45.15-.01.34.02.41.2m.89-.06c-.03.43-.12.95-.56 1.2-.25.04-.5.27-.74.11v-.07c.32-.46.91-.81 1.3-1.25zm25.61.35c.06.09-.05.17-.1.24-.09.11-.25.06-.36.02-.11-.05-.13-.2-.08-.3q.06-.14.2-.17c.14-.02.26.1.34.21m-24.06.7c.21.36.09.83.21 1.21-.26.03-.37-.26-.54-.41-.33-.46-.3-1.07-.44-1.6q.06-.06.1-.04c.24.16.4.45.6.65-.04.1.08.1.07.2m24.82-.58c0 .12-.14.15-.21.23a1 1 0 0 1-.3-.14c-.05-.15.08-.2.15-.27q.25-.08.36.18m1.85 1.36c0 .04-.02.13-.1.1h-.06c-.45-.4-.9-.84-.83-1.45l.09-.02c.41.35.88.74.9 1.36m-1.16-.48c.02.12-.06.21-.14.29-.17.05-.43.03-.47-.2-.01-.15.16-.23.23-.3.19-.05.31.08.37.21m-1.01.32c-.22.56-.8.85-1.2 1.28-.09-.05-.06-.16-.04-.23.16-.58.62-1.15 1.2-1.38.24.03 0 .2.04.32m1.16.47c0 .13-.14.2-.22.27-.12-.02-.25-.05-.34-.17-.02-.15.1-.2.2-.27q.25-.03.36.17M50.78 7.23a.38.38 0 0 1 0 .76h-4.59a.4.4 0 0 1-.38-.38c0-.21.17-.38.38-.38zm-3.25.65c.45 0 .03-.53-.21-.53h-.45c-.45 0-.03.53.22.53zm1.88 0c.45 0 .02-.53-.22-.53h-.45c-.44 0-.02.53.22.53zm1.38-.53h-.17c-.44 0-.06.53.18.53.3 0 .32-.53 0-.53m-.42 5.04.87.33.86-.33-.34 1.26.69-.13-.23.76.23.74-.6-.16.26 1.37-.86-.33-.88.33.36-1.37-.7.19.2-.77-.2-.73.67.1zm1.29 2.29c.2 0 .21-.27.21-.5 0-.53-.42 0-.63-.5-.16.42-.6.03-.6.48 0 .3 0 .5.31.5h.7zm-.86-.47c0 .2.27.06.47.06s.47.13.47-.06c0-.29-.27-.19-.47-.19s-.47-.1-.47.19m-2.48.04v-.16l-.15-.03.12-.12-.08-.12.15.01.1-.15.08.15.16-.01-.08.13.12.11-.15.03v.16l-.13-.1zm-.69.86v-.16l-.14-.03.11-.11-.07-.13.15.01.1-.15.08.15.15-.01-.07.13.12.11-.15.03v.16l-.14-.1zM48.8 15v-.16l-.15-.02.12-.12-.08-.13.16.02.09-.16.09.15.15-.01-.07.13.11.12-.14.02V15l-.14-.1zm.14.64v-.09l-.09-.01.07-.07-.04-.07h.08l.06-.08.04.09.09-.01-.04.07.06.07-.08.01v.1l-.07-.06zm-1.08.74v-.27l-.25-.05.2-.2-.12-.22.26.02.15-.27.15.27.26-.02-.12.22.2.2-.25.05v.27l-.24-.17zm.55-14.42.55 1.32 1.37-.4-.7 1.24 1.18.82-1.42.23.09 1.42-1.07-.95-1.07.95.09-1.42L46 4.94l1.17-.82-.7-1.24 1.39.4zm-4.99 29.48c-.16.06-.23.1-.19.27l.2.8c.03.15.05.39-.06.53a1 1 0 0 1-.56.33c-.13.03-.43.08-.66-.01-.15-.07-.25-.14-.32-.41l-.2-.85c-.05-.21-.14-.2-.31-.17l-.02-.07 1.03-.24.02.06c-.2.05-.3.08-.24.3l.2.85c.04.14.13.49.57.39.54-.13.45-.52.4-.68l-.18-.77c-.03-.15-.1-.23-.36-.18l-.01-.06.67-.16zm1.54.16c-.1-.16-.35-.41-.7-.33-.17.03-.32.14-.29.31.03.14.1.18.39.23l.5.1c.11 0 .38.1.44.38.05.23-.08.58-.65.7-.3.06-.45 0-.54.03-.07 0-.08.06-.08.1l-.09.02-.14-.62.1-.02c.11.24.36.49.75.4.37-.08.33-.33.32-.36-.04-.17-.2-.2-.41-.24l-.22-.03c-.58-.1-.63-.31-.65-.43-.04-.15-.02-.52.57-.65.24-.05.4 0 .5-.02q.1-.04.08-.1l.1-.02.11.55-.08.02zm2.04 1-1.12.11v-.06c.22-.04.3-.05.28-.27l-.14-1.36c-.22.03-.54.07-.56.5h-.1l-.03-.52 1.88-.17.06.51-.1.01c-.1-.4-.42-.39-.64-.38l.13 1.37c.03.22.1.22.34.2zm2.62-.01h-.65l-.63-.83h-.09v.51c0 .2.06.21.26.24v.07l-1.06-.02v-.06c.22-.02.28-.03.28-.24l.03-1.14c0-.23-.1-.23-.27-.25v-.06l1.01.02c.23 0 .9.03.88.47 0 .32-.33.4-.5.44l.61.75q.08.06.13.05v.07zm-1.37-.91c.41 0 .58-.05.59-.39q0-.39-.37-.38c-.18 0-.19.02-.2.1z" fill="#000"/><path d="m51.69 32.87-1.02-.13v-.06c.2.01.26.02.27-.07.01-.07-.06-.28-.1-.37l-.7-.08q-.16.25-.18.31c-.01.1.14.13.24.14v.07l-.64-.08v-.06c.18 0 .24-.09.35-.27l.87-1.32.09.01.52 1.45c.11.3.15.38.3.4zm-.88-.73-.23-.66-.38.59zm2.71 1.1-1.8-.32.02-.07c.17.01.27.02.3-.14l.23-1.23c.03-.17-.1-.2-.24-.23l.01-.07 1.09.2-.01.06c-.22-.03-.32-.04-.36.18l-.23 1.2c-.02.13.05.16.25.2.47.09.69-.1.88-.36l.09.02zm1.19.26-1.07-.23v-.06c.18.02.3.03.33-.13l.26-1.23c.04-.16-.1-.2-.24-.23v-.07l1.08.23v.06c-.15-.02-.3-.05-.34.12l-.26 1.23c-.04.16.08.2.25.24zm2.19.27-1.02-.1v-.07c.21.01.26.02.27-.07 0-.07-.07-.28-.1-.36l-.72-.08-.17.32c-.01.1.14.12.25.14v.07l-.64-.07v-.06c.17 0 .23-.1.34-.28l.84-1.34h.1l.55 1.44c.11.29.15.38.3.4zm-.9-.7-.25-.66-.36.6zm-7.15-20.26c0-.62-.36-.04-.55-.57-.15.45-.58.07-.58.55q0 .28.14.35v.19q0 .08.09.09h.67a.1.1 0 0 0 .1-.1v-.2a.4.4 0 0 0 .13-.31m-.55.12c-.2 0-.44.12-.44-.09 0-.3.21-.24.4-.24s.47-.07.47.24c0 .21-.25.09-.43.09m6.07 7.54c.17 0 .3-.11.3-.25s-.14-.25-.3-.25-.29.1-.29.25c0 .13.14.25.3.25M53 11.23s-.14.22-.14.26q.01.14.14.15.13-.02.14-.15zm-9.33 0s-.14.22-.14.26q.01.14.14.15.13-.02.14-.15zm2.33 0s-.13.22-.13.26q.01.14.13.15.13-.02.14-.15zm2.34 0s-.14.22-.14.26q.01.14.14.15.13-.02.14-.15zm2.33 0s-.14.22-.14.26q.01.14.14.15.13-.02.14-.15zm-6.99 3.14s.14.23.14.27q-.02.13-.14.15-.13-.02-.14-.15zm0 3.06s.14.23.14.27q-.02.13-.14.15-.13-.02-.14-.15zm.36 2.42s.14.22.14.26q-.01.14-.14.15-.12 0-.13-.15zM46 21.14s.14.22.14.26q-.01.14-.14.15-.12 0-.13-.15zm7.12-6.77s-.14.23-.14.27q.01.13.14.15.13-.02.14-.15zm0 3.06s-.14.23-.14.27q.01.13.14.15.13-.02.14-.15zm-.37 2.42s-.14.22-.14.26q.01.14.14.15.12 0 .14-.15zm-1.95 1.29s-.15.22-.15.26q.01.14.14.15t.14-.15zm-2.39 1.36s-.13.22-.13.26q.01.14.14.15t.14-.15zm3.79-4.56q.05.07.2.02l.09-.24s-.1-.12-.17-.1c-.24.05-.51.08-.66.32 0 .16.12.3.24.37.1-.03.1.06.16.1q.02.12-.1.13c-.17-.17-.48.06-.62-.16.06-.22.18-.46-.01-.66.01-.05.09-.1.04-.14-.07-.2-.3-.04-.43-.04-.22-.03-.4.1-.53.26a.4.4 0 0 0 .12.22q.09-.02.1.06l-.15.1q.06.06.07.15c-.1.04-.21-.1-.25-.17 0-.12 0-.32-.15-.35l-.12.04q-.06.07-.07.24c0 .1.07.26.07.26s.45.33.55.54c-.13.26-.13.62-.44.76q-.1.1-.08.23l.07.06c.2-.1.55-.13.53-.45q.1-.2.28-.38a.3.3 0 0 1 .34.16.6.6 0 0 1-.4.43q-.03.05-.01.12c.06.1.22.06.3.05.25-.17.35-.46.58-.54.03.14-.3.2-.1.33.14-.03.32.02.4-.16-.1-.25.36-.36.08-.58 0-.22.24-.3.22-.53-.1-.24-.37-.24-.44-.45q.15-.08.3 0m-10.73 2.64c.16 0 .3-.1.3-.25s-.14-.25-.3-.25-.29.11-.29.25c0 .13.13.25.3.25m-15.14 8.68c.15 0 .28-.11.28-.27 0-.15-.13-.27-.28-.27s-.29.12-.29.27.13.27.29.27m9.63 2.11h-.02l-.02-.02v.01h-.02v-.04h.03l.02.01zm-.04-.02v-.02zm.09-.01-.02-.02v.01zl-.02.02v-.02l.01.02h.01zl-.03-.02.02-.01h.02zm.1-.02-.02.05-.02-.03-.02.03-.01-.05h-.01.03l.01.03.01-.02v-.01zv.02l.02-.02h-.01.02z" fill="#000"/><path d="m36.12 31.37.02-.02-.02-.01.02-.02.02.02q0 .02-.04.03m.02-.02v-.03z" fill="#000"/><path d="M36.17 31.34h.02l.01.01q0 .02-.02.02h-.01.02zh-.02v-.03h.04v.01zm17.61-20.48H43.01v8.08c0 .83.36 1.55.85 1.77l4.15 2.58a.5.5 0 0 0 .7.04l4.21-2.62c.5-.22.85-.95.85-1.77zm-.3 8.2c-.06.6-.27 1.11-.7 1.4l-4.06 2.53h-.02a.5.5 0 0 1-.64 0l-4.05-2.53c-.43-.29-.64-.8-.7-1.4v-7.91h10.16zm-3.64 3.58.14-.06zm-8.12 11.05-1.02.11v-.06c.19-.04.24-.05.23-.14 0-.07-.13-.24-.18-.32l-.7.08q-.11.3-.1.35c0 .1.16.09.27.08v.07l-.63.07v-.06c.16-.05.2-.13.26-.34l.54-1.5h.08l.86 1.27c.18.26.24.35.39.32zm-1.03-.5-.39-.59-.22.66z" fill="#000"/><path d="M59.56 29.9a1.6 1.6 0 0 0-1.06-.94c-.5-.11-1.02-.03-1.34.33-.56.45-.17 1.18-.16 1.78 0 .12.02.21-.1.27-2.25-.2-4.34-.75-6.56-.98-.51-.09-1.02-.06-1.51-.16l-.62-.07c-1.93.06-3.87.17-5.68.63-.38.13-.81.15-1.2.3-.28-.06-.5.15-.77.07l-.51.12-.17-.01c-.25-.63.5-1.01.26-1.63-.2-.35-.6-.68-1.07-.62a1.3 1.3 0 0 0-1.24.62c-.35.77.1 1.57.23 2.31-.03.25.25.53 0 .72a2.1 2.1 0 0 0-1.74-.35c-.19.1-.53-.03-.62.19.67.35 1.51.3 2.26.27q.12-.07.23.02c.06.4-.08.93.16 1.28.28.37.75.46 1.2.5 1.42-.04 2.69-.45 3.98-.77.2-.02.36-.12.58-.12q1.07-.26 2.19-.3c-.33.42-.5.88-.65 1.38-.18.42.33.48.48.7-.48.14-.82.46-1.27.65-.99-.03-1.82.33-2.75.44-.01.2.33.14.36.34-.05.14-.2.15-.3.23-.01.1 0 .1.1.13.08-.11.29-.03.38-.14.3 0 .57-.09.86-.1.27-.11.56-.13.79-.32.33-.08.52-.3.85-.4.47 0 .88-.15 1.31-.18v.1q-.53.86-1.1 1.67c-.06.1.02.22.11.25q.34.06.6-.1c.33-.55.62-1.06.89-1.63.1-.53.5-.8.88-1.15.06-.03.15-.12.22-.03-.3.35-.5.69-.74 1.07-.13.43-.16.98.23 1.33.18.15.46.1.71.13.6-.3 1.37.18 1.84-.4.28-.05.32.27.48.42.26.08.53.34.8.16-.02-.17-.2-.32-.3-.48-.18-.32-.41-.58-.58-.87-.08-.21-.22-.35-.25-.56.28.09.52.27.83.32.26.1.59.09.84.24.2.26.5.42.77.58.39.19.82.22 1.22.37.16.02.39.14.5 0l-.23-.16c-.05-.2.28-.1.39-.25q-.06-.1-.19-.12c-.22-.11-.77-.15-.91-.23q-.29-.06-.54-.17c-.93 0-1.44-.83-2.18-1.13.17-.16.44-.28.54-.51.14-.21.19-.56.05-.8-.14-.48-.76-.42-1.12-.68l.05-.05c.6-.03 1.13.11 1.67.22 1.48.2 2.86.75 4.4.78.85 0 1.92.04 2.34-.77l.25-1.42c.18-.77.7-1.47.61-2.3zm-16.7 6.97-.21-.2c.1-.13.34-.06.5-.15.4-.12.87-.27 1.32-.18-.47.36-1.07.4-1.61.53m9.65-.24a7 7 0 0 0 1.65.38c-.05.2-.42 0-.38.3-.48-.18-1.03-.27-1.4-.64q.05-.05.13-.05m-14.5-6.5c.05-.27.1-.56.37-.77.37-.2.88-.15 1.22.05q.16.09.25.3c.08.25-.05.53-.23.68h-.16c0-.24 0-.5.1-.69-.03-.18-.18-.2-.3-.27-.27-.08-.5.05-.7.15-.15.19-.3.41-.2.68.11.16.02.4.08.58l-.05.06c-.19-.2-.43-.41-.39-.77zm.73.43c.23.17.55.1.83.14.05.17.05.38-.08.52-.26-.06-.6-.03-.74-.27.03-.1-.05-.26-.01-.39m-.05-.5c.05-.13 0-.3.17-.34.1-.03.27-.03.3.08q-.03.29-.09.54-.3.02-.38-.3zm7.24 4.9c-.08-.54.14-1 .5-1.38.22-.05.46-.09.66.03-.4.1-.91.2-1 .7.02.2-.05.3.05.48.17.29.55.16.77.4a.2.2 0 0 1-.14.18c-.26-.16-.58-.22-.83-.42M45.39 36c.36-.16.75-.48 1.17-.34-.3.23-.78.32-1.17.34m1.46.15q-.32.73-.75 1.44c-.03.07-.16.09-.25.1 0-.21.22-.38.3-.56.34-.42.43-.86.8-1.25.09.09-.1.15-.1.27m.4-.89v.06h-.04v-.07h.06l-.06.01zm-.15-.41q-.38-.05-.74-.18c-.16-.16 0-.33 0-.5.22-.33.83-.5 1.13-.2a1.6 1.6 0 0 1-.39.88m.34 0c.05-.2.14-.46.25-.64-.02.2-.11.47-.25.64m.17-1.24c-.2-.05-.3-.27-.53-.27.2-.06.37-.05.6-.02.07.1-.06.2-.07.29m.19.46h-.02v-.17h.02zm.02.7c-.02-.06.03-.14.04-.22.08-.08.16.06.2.1a.2.2 0 0 1-.24.12m.23-.95c.07-.22.09-.4.23-.57q.23-.02.41.06c.03.31.42.72 0 .98-.14.06-.34.2-.5.06-.2-.17-.22-.32-.14-.53m1.12-.43c-.03-.14.14-.03.2-.1l.48.04c-.25-.03-.56.53-.68.06m.77.2c-.18.05-.32.27-.5.32.09-.18.32-.34.5-.33m-.64.94v.05h-.02v-.05zm.03.94c-.02.03.01.07-.03.1l-.36-.27q.25-.03.39.17M48.9 35q.06-.05.14 0zm-.22-.23c.06-.09.14-.23.25-.23q0 .03.03.05-.13.12-.28.18m-.35-.03h-.06l.09-.09c.04.03-.02.06-.03.09m.04.58c.2-.21.4.13.47.3.23.33.83.63.6 1.1-.3.25-.75.01-1.08.2-.17-.01-.46.04-.55-.13.17-.49.32-1.04.56-1.47m-.42.3.07-.13q-.19.56-.5 1.1c-.1-.37.3-.66.43-.98m.67 1.81c-.3.02-.74.18-1.02-.06.02-.12-.12-.18-.1-.3.24-.1.46.2.69-.02.35.02.72-.05 1.08.03.17.05.43-.27.46.05-.12.5-.74.15-1.1.3m.9-2.2v-.05h.03v.05zm.09.96c.02.15.17.21.08.35-.03-.06-.12-.2-.08-.35m.43.91-.08.03c-.07-.06-.04-.23-.03-.32.1.08.17.19.11.3m.78.37c-.02.05-.1.05-.12.02-.47-.58-.68-1.2-.98-1.84l.06-.01c.37.6.67 1.25 1.04 1.83m.57-1.4q-.04.03-.03.05c-.45.02-.75-.24-1.09-.47l-.02-.08c.42.03.76.3 1.14.49m-.4-2.04c.18.05.2.25.21.4a.8.8 0 0 1-.52.75.8.8 0 0 1-.6.06c.36-.02.77-.16.92-.52zm-.34-.06c.08.22.22.42.14.68-.15.29-.47.29-.75.35a.5.5 0 0 1-.35-.11q0-.08-.06-.16c.04-.2-.36-.4-.08-.56.25-.23.83-.75 1.1-.2m7.85-1.11c-.12.15-.02.4-.17.53 0 .28-.23.41-.44.53-1.84.4-3.64-.22-5.42-.53-2.49-.53-5.4-.69-7.93-.12q-1.79.32-3.49.8c-.71.1-1.48.2-2.16-.01-.56-.26-.33-.96-.5-1.46.03-.38-.1-.69-.12-1.05a1 1 0 0 1-.06-.4c.23.03.47.2.71.26 1.3.24 2.46-.17 3.67-.38a27 27 0 0 1 3.57-.54c1.39-.01 2.8-.08 4.14.14.43.02.8.13 1.22.16.86.1 1.67.33 2.55.4l.47.07c1.39.21 2.95.6 4.28 0 0 .55-.23 1.06-.31 1.6zM58.06 31c.02.25-.22.19-.34.28h-.37c-.07-.13-.04-.31-.04-.43.24.05.52.05.75.15m-.17-.38c.17-.17-.05-1.13.44-.5 0 .12.02.3-.11.4-.08.05-.2.18-.33.1m1.25-.16c-.14.28-.35.48-.66.52.02-.37.36-.63.23-1.04-.2-.29-.6-.38-.98-.3-.13.09-.07.24-.12.38l-.06.5c-.3 0-.32-.27-.41-.48.01-.32.15-.65.47-.8.25-.12.65-.1.9.03.2.05.43.14.5.32.24.21.18.6.13.87m58.06-28.5h-1v49.08h1zM139.73 16h-2.33l4.23-12h2.68l4.23 12h-2.32l-3.2-9.54h-.1zm.07-4.7h6.33v1.74h-6.33zm15.97.91V7h2.12v9h-2.06v-1.6h-.1q-.3.76-1 1.24-.69.48-1.7.48-.89 0-1.56-.4t-1.06-1.15a4 4 0 0 1-.38-1.84V7h2.12v5.4q0 .86.47 1.36t1.23.5a2 2 0 0 0 1.63-.9q.29-.46.29-1.15m11.41-2.83-1.93.21a1.6 1.6 0 0 0-.83-.97q-.33-.15-.83-.16-.66 0-1.11.3-.45.27-.44.74 0 .39.28.63.3.25.99.4l1.53.34q1.28.27 1.9.87.63.6.63 1.56 0 .85-.5 1.5-.48.65-1.35 1.01t-1.99.37q-1.65 0-2.66-.7a2.8 2.8 0 0 1-1.2-1.94l2.07-.2q.15.62.6.93.45.3 1.19.3.75 0 1.2-.3.48-.32.47-.77a.8.8 0 0 0-.3-.64q-.3-.25-.91-.39l-1.54-.32a3.7 3.7 0 0 1-1.91-.9 2.2 2.2 0 0 1-.62-1.64q0-.82.45-1.44.47-.6 1.29-.95a5 5 0 0 1 1.9-.34 4 4 0 0 1 2.5.68q.9.67 1.12 1.82M173.62 7v1.64h-5.18V7zm-3.9-2.16h2.12v8.45q0 .43.13.66.14.23.35.3.22.09.48.09a2 2 0 0 0 .63-.09l.35 1.66a5 5 0 0 1-1.25.21 4 4 0 0 1-1.43-.24 2.2 2.2 0 0 1-1.01-.83 2.5 2.5 0 0 1-.37-1.4zM175.4 16V7h2.06v1.5h.1a2.25 2.25 0 0 1 2.21-1.63 5 5 0 0 1 .77.06v1.95a4 4 0 0 0-.98-.12q-.6 0-1.05.25a1.8 1.8 0 0 0-.99 1.7V16zm8.97.18q-.85 0-1.54-.3-.67-.31-1.08-.92-.39-.6-.39-1.49 0-.75.28-1.26.29-.5.77-.8t1.1-.44q.6-.15 1.27-.23.78-.08 1.28-.15.5-.08.71-.2.23-.15.23-.46v-.04q0-.66-.39-1.02-.4-.36-1.13-.36-.78-.01-1.24.34-.45.33-.6.8l-1.99-.28a3.2 3.2 0 0 1 2.1-2.2q.77-.3 1.72-.29.64 0 1.3.16.64.14 1.17.5.53.34.86.94t.33 1.5V16h-2.04v-1.24H187a2.6 2.6 0 0 1-1.4 1.24q-.52.2-1.23.2m.55-1.56q.65 0 1.11-.25.47-.26.72-.68.26-.42.26-.92v-1.06a1 1 0 0 1-.34.15l-.53.13-1.08.16q-.47.06-.84.21t-.6.41a1 1 0 0 0-.21.67q0 .59.42.88.43.3 1.1.3M193.37 4v12h-2.12V4zm2.18 12V7h2.12v9zm1.07-10.28q-.51 0-.87-.33-.36-.34-.36-.82t.36-.81.87-.34.86.34.37.81-.37.82q-.35.33-.86.33m5.82 10.46q-.85 0-1.54-.3-.68-.31-1.08-.92-.39-.6-.39-1.49 0-.75.28-1.26.28-.5.77-.8.48-.3 1.1-.44.6-.15 1.27-.23.78-.08 1.28-.15.5-.08.71-.2.24-.15.23-.46v-.04q0-.66-.39-1.02-.4-.36-1.13-.36-.78-.01-1.24.34-.45.33-.6.8l-1.99-.28a3.2 3.2 0 0 1 2.1-2.2q.77-.3 1.72-.29.64 0 1.3.16.63.14 1.17.5.53.34.86.94t.32 1.5V16h-2.03v-1.24h-.08a2.6 2.6 0 0 1-1.41 1.23q-.53.2-1.23.2m.55-1.56q.65 0 1.11-.25.47-.26.72-.68.26-.42.26-.92v-1.06a1 1 0 0 1-.34.15q-.23.08-.53.13l-1.08.16q-.47.06-.85.21-.37.15-.59.41a1 1 0 0 0-.22.67q0 .59.43.88t1.1.3m8.46-3.9V16h-2.12V7h2.02v1.53h.1q.33-.75 1-1.2.69-.45 1.7-.45.92 0 1.62.4t1.07 1.16q.4.75.38 1.83V16h-2.12v-5.4a2 2 0 0 0-.47-1.41q-.45-.51-1.28-.51-.55 0-.99.24-.42.25-.67.7-.24.45-.24 1.1m-65.23 14.11a3 3 0 0 0-1.01-1.5q-.35-.27-.81-.4a3.4 3.4 0 0 0-2.72.34q-.75.49-1.19 1.43a5.5 5.5 0 0 0-.43 2.29q0 1.35.43 2.3t1.2 1.44q.75.48 1.76.48.92 0 1.58-.35.68-.35 1.04-1t.36-1.52l.5.08h-3.26v-1.7h4.87v1.44a5 5 0 0 1-.66 2.67 4.5 4.5 0 0 1-1.8 1.73q-1.16.6-2.64.6a5.2 5.2 0 0 1-4.86-2.87 7 7 0 0 1-.7-3.28q0-1.45.4-2.6.43-1.14 1.17-1.93.75-.8 1.75-1.22t2.18-.42q1 0 1.85.29a5 5 0 0 1 2.64 2.08q.43.74.57 1.62zm8.25 8.35q-1.32 0-2.28-.58a4 4 0 0 1-1.5-1.63q-.54-1.04-.53-2.43 0-1.4.53-2.45t1.5-1.63 2.28-.58 2.29.58q.96.58 1.49 1.63.54 1.05.53 2.45 0 1.39-.53 2.43a4 4 0 0 1-1.5 1.63q-.96.57-2.28.58m.01-1.7q.72 0 1.2-.4t.71-1.06.24-1.5a4 4 0 0 0-.24-1.48q-.23-.68-.71-1.08t-1.2-.4q-.73 0-1.22.4-.48.4-.72 1.08a5 5 0 0 0-.23 1.49q0 .82.23 1.49t.72 1.06 1.22.4M168.32 24l-3.2 9h-2.35l-3.2-9h2.25l2.07 6.69h.1l2.07-6.69zm5.14 9.18q-1.35 0-2.34-.57a4 4 0 0 1-1.5-1.6 5.4 5.4 0 0 1-.53-2.46q0-1.39.53-2.43a4 4 0 0 1 3.73-2.24q.84 0 1.57.27.75.27 1.31.82.58.56.9 1.42.34.85.34 2.04v.65h-7.38v-1.43h5.34q0-.6-.26-1.08a2 2 0 0 0-.72-.76q-.45-.27-1.07-.27-.65 0-1.14.31-.5.3-.77.82-.27.5-.28 1.1v1.26q0 .78.3 1.34.27.57.8.86.51.3 1.2.3.47 0 .84-.14.38-.13.65-.39.27-.25.42-.64l1.98.23q-.2.78-.72 1.37-.53.57-1.33.9-.82.32-1.87.32m5.8-.18v-9h2.06v1.5h.09a2.25 2.25 0 0 1 2.22-1.63 5 5 0 0 1 .76.06v1.95a4 4 0 0 0-.98-.12q-.59 0-1.04.25a1.8 1.8 0 0 0-.99 1.7V33zm8.66-5.27V33h-2.12v-9h2.03v1.53h.1q.31-.75 1-1.2t1.69-.45q.93 0 1.62.4t1.08 1.16.38 1.83V33h-2.12v-5.4q0-.9-.47-1.41t-1.28-.51q-.55 0-1 .24-.42.24-.67.7-.24.45-.24 1.1m7.94 5.27v-9h2.02v1.53h.1q.29-.78.94-1.2.65-.45 1.55-.45.92 0 1.54.45.64.45.9 1.2h.09q.3-.75 1-1.2a3 3 0 0 1 1.7-.45q1.24 0 2.03.79.78.78.78 2.29V33h-2.12v-5.71q0-.84-.45-1.23t-1.09-.39q-.77 0-1.2.48t-.43 1.24V33h-2.08v-5.8q0-.7-.42-1.11a1.5 1.5 0 0 0-1.1-.42q-.45 0-.82.23t-.6.65-.22.98V33zm18.79.18q-1.35 0-2.34-.57a4 4 0 0 1-1.5-1.6 5.4 5.4 0 0 1-.53-2.46q0-1.39.53-2.43a4 4 0 0 1 3.73-2.24q.83 0 1.57.27t1.31.82.9 1.42q.33.85.33 2.04v.65h-7.38v-1.43h5.35q0-.6-.27-1.08a1.9 1.9 0 0 0-1.78-1.03q-.66 0-1.15.31-.49.3-.76.82-.27.5-.28 1.1v1.26q0 .78.29 1.34t.8.86 1.2.3q.48 0 .85-.14.37-.13.65-.39.27-.25.41-.64l1.98.23q-.18.78-.71 1.37-.53.57-1.34.9-.81.32-1.86.32m7.92-5.45V33h-2.12v-9h2.02v1.53h.1q.33-.75 1-1.2.69-.45 1.7-.45.92 0 1.61.4t1.08 1.16q.4.75.38 1.83V33h-2.12v-5.4a2 2 0 0 0-.47-1.41q-.45-.51-1.28-.51-.56 0-.99.24t-.67.7-.24 1.1M234.99 24v1.64h-5.17V24zm-3.9-2.16h2.13v8.45q0 .43.13.66.13.22.35.3.21.09.48.09a2 2 0 0 0 .62-.09l.36 1.66a5 5 0 0 1-1.25.21 4 4 0 0 1-1.44-.24 2.2 2.2 0 0 1-1.01-.83 2.5 2.5 0 0 1-.36-1.4zM139.74 50h-2.33l4.23-12h2.68l4.23 12h-2.32l-3.2-9.54h-.1zm.07-4.7h6.33v1.74h-6.33zm10.23 4.7v-9h2.06v1.5h.09a2.24 2.24 0 0 1 2.22-1.63 5 5 0 0 1 .76.06v1.95a4 4 0 0 0-.99-.12q-.57 0-1.04.25a1.8 1.8 0 0 0-.98 1.7V50zm10.1.18q-1.35 0-2.32-.6a4 4 0 0 1-1.48-1.63 5.4 5.4 0 0 1-.52-2.41q0-1.38.53-2.42.53-1.05 1.49-1.65t2.28-.59q1.1 0 1.94.4a3.3 3.3 0 0 1 1.93 2.84h-2.02q-.13-.66-.6-1.09a1.7 1.7 0 0 0-1.22-.44q-.65 0-1.14.36-.49.34-.77 1-.26.63-.26 1.55t.26 1.58.76 1.02 1.16.35q.46 0 .83-.18.38-.18.63-.52a2 2 0 0 0 .34-.83h2.03q-.08.95-.56 1.7-.49.73-1.32 1.15-.84.4-1.97.4m7.72-5.45V50h-2.13V38h2.08v4.53h.1q.32-.75.98-1.2a3 3 0 0 1 1.7-.45q.94 0 1.64.4.7.39 1.07 1.14.4.75.4 1.85V50h-2.13v-5.4a2 2 0 0 0-.47-1.41q-.45-.51-1.3-.51-.56 0-1 .24-.45.24-.7.7t-.25 1.1m8 5.27v-9h2.11v9zm1.06-10.28q-.5 0-.87-.33-.36-.34-.36-.82t.36-.81.87-.34.87.34.36.81-.36.82q-.36.33-.87.33m7.73 1.28v1.64h-5.17V41zm-3.9-2.16h2.12v8.45q0 .43.13.66.15.23.35.3.22.09.48.09a2 2 0 0 0 .63-.09l.35 1.66a5 5 0 0 1-1.24.21 4 4 0 0 1-1.44-.24 2.2 2.2 0 0 1-1.01-.83 2.5 2.5 0 0 1-.37-1.4zm9.56 11.34q-1.35 0-2.34-.57a4 4 0 0 1-1.5-1.6 5.4 5.4 0 0 1-.53-2.46q0-1.39.53-2.43a4 4 0 0 1 3.73-2.24q.84 0 1.57.27.75.27 1.31.82.59.56.9 1.42.33.85.33 2.04v.65h-7.37v-1.43h5.34q-.01-.6-.26-1.08a1.9 1.9 0 0 0-1.8-1.03q-.63 0-1.13.31-.5.3-.77.82-.27.5-.28 1.1v1.26q0 .78.3 1.34.27.56.8.86.51.3 1.2.3.46 0 .84-.14.38-.13.65-.39.27-.25.42-.64l1.97.23q-.18.78-.71 1.37-.53.57-1.34.9-.81.32-1.86.32m9.72 0q-1.35 0-2.31-.6a4 4 0 0 1-1.48-1.63 5.4 5.4 0 0 1-.52-2.41q0-1.38.53-2.42.53-1.05 1.49-1.65t2.28-.59q1.1 0 1.94.4a3.3 3.3 0 0 1 1.93 2.84h-2.03q-.12-.66-.58-1.09a1.7 1.7 0 0 0-1.23-.44q-.65 0-1.14.36-.5.34-.77 1-.27.63-.27 1.55t.27 1.58.76 1.02q.5.35 1.15.35.47 0 .84-.18.38-.18.63-.52t.34-.83h2.03q-.08.95-.56 1.7-.5.73-1.33 1.15-.84.4-1.97.4m10.1-9.18v1.64h-5.18V41zm-3.9-2.16h2.12v8.45q0 .43.13.66t.35.3q.21.09.48.09a2 2 0 0 0 .62-.09l.36 1.66a5 5 0 0 1-1.25.21 4 4 0 0 1-1.44-.24 2.2 2.2 0 0 1-1-.83 2.5 2.5 0 0 1-.37-1.4zm11.4 7.37V41h2.13v9h-2.06v-1.6h-.1q-.3.76-1 1.24t-1.7.48q-.89 0-1.57-.4-.67-.4-1.05-1.15a4 4 0 0 1-.38-1.84V41H214v5.4q0 .86.47 1.36t1.23.5a2 2 0 0 0 1.63-.9q.28-.45.28-1.15m4.3 3.79v-9h2.06v1.5h.1a2.25 2.25 0 0 1 2.22-1.63 5 5 0 0 1 .76.06v1.95a4 4 0 0 0-.98-.12q-.6 0-1.05.25a1.8 1.8 0 0 0-.98 1.7V50zm10.16.18q-1.35 0-2.34-.57a4 4 0 0 1-1.5-1.6 5.4 5.4 0 0 1-.53-2.46q0-1.39.53-2.43a4 4 0 0 1 3.73-2.24q.84 0 1.57.27.75.27 1.31.82.58.56.9 1.42.34.85.34 2.04v.65h-7.38v-1.43h5.34q0-.6-.26-1.08a2 2 0 0 0-.72-.76q-.45-.27-1.07-.27-.65 0-1.14.31-.5.3-.77.82-.27.5-.28 1.1v1.26q0 .78.3 1.34.27.56.8.86.51.3 1.2.3.47 0 .84-.14.38-.13.65-.39.27-.25.42-.64l1.98.23q-.2.78-.72 1.37-.52.57-1.33.9-.82.32-1.87.32" fill="#000"/></svg>